<?xml version="1.0" encoding="UTF-8"?>
<svg width="129px" height="99px" viewBox="0 0 129 99" version="1.1" xmlns="http://www.w3.org/2000/svg" xmlns:xlink="http://www.w3.org/1999/xlink">
    <title>编组</title>
    <defs>
        <linearGradient x1="47.6509593%" y1="43.5074265%" x2="52.2470476%" y2="56.2106724%" id="linearGradient-1">
            <stop stop-color="#C9C9C8" offset="2.420201e-05%"></stop>
            <stop stop-color="#C1C1C1" offset="100%"></stop>
        </linearGradient>
        <linearGradient x1="3.50277889%" y1="50%" x2="98.9945508%" y2="50%" id="linearGradient-2">
            <stop stop-color="#FFFFFF" offset="0%"></stop>
            <stop stop-color="#C8C8C8" offset="100%"></stop>
        </linearGradient>
        <linearGradient x1="30.1083901%" y1="73.4473602%" x2="66.9052635%" y2="17.2226411%" id="linearGradient-3">
            <stop stop-color="#CACACA" offset="0%"></stop>
            <stop stop-color="#CECECE" offset="100%"></stop>
        </linearGradient>
        <linearGradient x1="0.20143015%" y1="50%" x2="99.0179117%" y2="50%" id="linearGradient-4">
            <stop stop-color="#FFFFFF" offset="0%"></stop>
            <stop stop-color="#C6C6C7" offset="100%"></stop>
        </linearGradient>
        <linearGradient x1="34.5920621%" y1="39.4313157%" x2="65.4079379%" y2="60.5686843%" id="linearGradient-5">
            <stop stop-color="#BFBFBF" offset="0%"></stop>
            <stop stop-color="#BFBFBF" offset="100%"></stop>
        </linearGradient>
        <linearGradient x1="-0.89731343%" y1="49.6027559%" x2="99.7251586%" y2="49.6027559%" id="linearGradient-6">
            <stop stop-color="#BDBDBD" offset="0%"></stop>
            <stop stop-color="#DFDFDF" offset="100%"></stop>
        </linearGradient>
        <polygon id="path-7" points="4.06003354 32.8223893 0.0381223807 30.5021859 0 23.8433908 4.02191116 26.1635942"></polygon>
        <linearGradient x1="-0.89731343%" y1="49.6027559%" x2="99.7251586%" y2="49.6027559%" id="linearGradient-8">
            <stop stop-color="#BDBDBD" offset="0%"></stop>
            <stop stop-color="#DFDFDF" offset="100%"></stop>
        </linearGradient>
        <polygon id="path-9" points="4.02191116 26.1635942 0 23.8433908 41.6296397 0 45.6515509 2.32020338"></polygon>
        <polygon id="path-10" points="4.06003354 16.9582344 0.0381223807 14.6380311 0 7.97923601 4.02191116 10.2805759"></polygon>
        <linearGradient x1="-0.89731343%" y1="49.6027559%" x2="99.7251586%" y2="49.6027559%" id="linearGradient-11">
            <stop stop-color="#BDBDBD" offset="0%"></stop>
            <stop stop-color="#DFDFDF" offset="100%"></stop>
        </linearGradient>
        <polygon id="path-12" points="4.02191116 10.2805759 0 7.97923601 13.8765466 0 17.9175189 2.32020338"></polygon>
        <linearGradient x1="-0.89731343%" y1="49.6027559%" x2="99.7251586%" y2="49.6027559%" id="linearGradient-13">
            <stop stop-color="#D7D7D7" offset="0%"></stop>
            <stop stop-color="#DFDFDF" offset="100%"></stop>
        </linearGradient>
        <path d="M15.4701045,34.8895312 C10.8297781,35.6682388 -0.631268985,3.32338601 4.13950833,0.246541525 C6.20808756,-1.08295918 11.0347724,3.30439314 12.8797215,5.29864419 C22.5330912,15.763714 18.8059214,34.3197452 15.4701045,34.8895312 Z" id="path-14"></path>
        <linearGradient x1="-0.89731343%" y1="49.6027559%" x2="99.7251586%" y2="49.6027559%" id="linearGradient-15">
            <stop stop-color="#D7D7D7" offset="0%"></stop>
            <stop stop-color="#DFDFDF" offset="100%"></stop>
        </linearGradient>
        <path d="M15.9360007,34.8895312 C17.7623139,32.3065013 3.44998192,16.7893288 0.598697043,18.5366726 C-0.817627474,19.4103445 0.4682461,24.5764044 2.48091778,27.919149 C6.43171775,34.4147095 14.7992139,36.5039249 15.9360007,34.8895312 Z" id="path-16"></path>
        <linearGradient x1="-0.157175573%" y1="50.0388453%" x2="100.036107%" y2="50.0388453%" id="linearGradient-17">
            <stop stop-color="#8BBDEA" offset="0.2014463%"></stop>
            <stop stop-color="#B6DCFF" offset="100%"></stop>
        </linearGradient>
        <linearGradient x1="-0.89731343%" y1="49.6027559%" x2="99.7251586%" y2="49.6027559%" id="linearGradient-18">
            <stop stop-color="#BDBDBD" offset="0%"></stop>
            <stop stop-color="#DFDFDF" offset="100%"></stop>
        </linearGradient>
        <path d="M35.9889285,0.187431773 C35.9889285,0.187431773 35.9889285,0.187431773 35.9889285,0.187431773 C35.9328419,0.149945418 35.8954508,0.131202241 35.8393641,0.112459064 C35.8206686,0.112459064 35.8019731,0.0937158863 35.8019731,0.0937158863 C35.7832775,0.0937158863 35.764582,0.0749727091 35.7458864,0.0749727091 C35.7271909,0.0749727091 35.7084953,0.0562295318 35.6897998,0.0562295318 C35.6524087,0.0374863545 35.596322,0.0374863545 35.5589309,0.0187431773 C35.5589309,0.0187431773 35.5402354,0.0187431773 35.5402354,0.0187431773 C35.5402354,0.0187431773 35.5402354,0.0187431773 35.5402354,0.0187431773 C35.4841488,0 35.4280621,0 35.3719755,0 C35.3532799,0 35.3532799,0 35.3345844,0 C35.3158888,0 35.2971933,0 35.2598022,0 C35.2411066,0 35.2037155,0 35.18502,0 C35.1663244,0 35.1289334,0 35.1102378,0 C35.0728467,0 35.0541512,0 35.0167601,0 C34.9980645,0 34.979369,0 34.9606734,0 C34.9232823,0 34.8858912,0.0187431773 34.8671957,0.0187431773 C34.8298046,0.0187431773 34.7924135,0.0374863545 34.7550224,0.0374863545 C34.7363269,0.0374863545 34.7363269,0.0374863545 34.7176313,0.0374863545 C34.6615447,0.0562295318 34.5867625,0.0749727091 34.5306758,0.0937158863 C34.5119803,0.0937158863 34.5119803,0.0937158863 34.4932847,0.112459064 C34.4558936,0.131202241 34.4185026,0.149945418 34.3811115,0.149945418 C34.3437204,0.168688595 34.3250248,0.168688595 34.2876337,0.187431773 C34.2689382,0.20617495 34.2315471,0.20617495 34.2128515,0.224918127 C34.1380693,0.262404482 34.0445916,0.299890836 33.9698094,0.356120368 C33.8763317,0.4123499 33.8015495,0.468579432 33.7080718,0.524808963 C33.6706807,0.543552141 33.6519851,0.562295318 33.614594,0.581038495 C33.5585074,0.61852485 33.5024207,0.674754381 33.4463341,0.712240736 C33.408943,0.730983913 33.3715519,0.768470268 33.3528564,0.805956622 C33.2967697,0.843442977 33.2406831,0.899672509 33.203292,0.937158863 C33.1659009,0.974645218 33.1285098,0.993388395 33.0911187,1.03087475 C33.0537276,1.04961793 33.0350321,1.08710428 32.997641,1.10584746 C32.9789454,1.12459064 32.9602499,1.14333381 32.9415543,1.16207699 C32.8667721,1.2370497 32.8106855,1.29327923 32.7359033,1.36825194 C32.7172078,1.38699512 32.6798167,1.42448147 32.6611211,1.44322465 C32.6424256,1.46196783 32.6424256,1.46196783 32.62373,1.480711 C32.5863389,1.51819736 32.5489478,1.55568371 32.5302523,1.61191324 C32.4928612,1.6493996 32.4554701,1.68688595 32.4367745,1.74311549 C32.418079,1.76185866 32.418079,1.78060184 32.3993834,1.79934502 C32.3806879,1.83683137 32.3432968,1.87431773 32.3246013,1.8930609 C32.3059057,1.93054726 32.2685146,1.96803361 32.2498191,2.00551997 C32.2311235,2.04300632 32.1937324,2.08049268 32.1750369,2.11797903 C32.1563413,2.15546539 32.1376458,2.17420856 32.1189502,2.21169492 C32.1002547,2.23043809 32.1002547,2.24918127 32.0815591,2.26792445 C32.0254725,2.34289716 31.9880814,2.43661304 31.9319948,2.51158575 C31.9319948,2.51158575 31.9132992,2.53032893 31.9132992,2.53032893 L15.4425221,31.1324174 L19.3872825,33.4378282 L35.8206686,4.87322609 C35.8767552,4.76076703 35.9515374,4.64830796 36.0263196,4.55459208 C36.0450152,4.51710572 36.0637107,4.49836254 36.0824063,4.46087619 C36.1384929,4.38590348 36.175884,4.31093077 36.2319706,4.23595806 C36.2506662,4.19847171 36.2880573,4.16098535 36.3067528,4.14224218 C36.3441439,4.08601264 36.4002306,4.02978311 36.4563172,3.9548104 C36.4937083,3.91732405 36.5310994,3.87983769 36.5497949,3.82360816 C36.587186,3.78612181 36.6245771,3.74863545 36.6432727,3.7111491 C36.7180549,3.63617639 36.7741415,3.56120368 36.8489237,3.50497415 C36.8863148,3.46748779 36.9424014,3.41125826 36.9797925,3.37377191 C37.0171836,3.33628555 37.0545747,3.2987992 37.0919658,3.28005602 C37.1480525,3.22382649 37.2041391,3.18634013 37.2415302,3.14885378 C37.2789213,3.11136743 37.3163124,3.09262425 37.3350079,3.07388107 C37.3910946,3.03639472 37.4471812,2.98016518 37.5032679,2.94267883 C37.540659,2.92393565 37.5593545,2.90519248 37.5967456,2.8864493 C37.6902233,2.83021977 37.7650055,2.77399024 37.8584833,2.7177607 C37.9332654,2.66153117 38.0267432,2.62404482 38.1015254,2.58655846 C38.1202209,2.56781529 38.157612,2.56781529 38.1763076,2.54907211 C38.2510897,2.51158575 38.3071764,2.49284258 38.3819586,2.45535622 C38.4006541,2.45535622 38.4006541,2.45535622 38.4193497,2.43661304 C38.4941319,2.41786987 38.5689141,2.38038351 38.6436962,2.36164034 C38.6810873,2.34289716 38.7184784,2.34289716 38.7558695,2.34289716 C38.8119562,2.32415398 38.8493473,2.32415398 38.9054339,2.32415398 C38.942825,2.32415398 38.9615205,2.32415398 38.9989116,2.32415398 C39.0549983,2.32415398 39.1110849,2.32415398 39.1671716,2.32415398 C39.1858671,2.32415398 39.2045627,2.32415398 39.2419538,2.32415398 C39.3167359,2.32415398 39.3915181,2.34289716 39.4663003,2.34289716 C39.4663003,2.34289716 39.4849959,2.34289716 39.4849959,2.34289716 C39.5597781,2.36164034 39.6158647,2.38038351 39.6719513,2.39912669 C39.6906469,2.39912669 39.7093424,2.41786987 39.728038,2.41786987 C39.8028202,2.43661304 39.8589068,2.4740994 39.933689,2.51158575 L35.9889285,0.187431773 Z" id="path-19"></path>
        <linearGradient x1="-0.89731343%" y1="49.6027559%" x2="99.7251586%" y2="49.6027559%" id="linearGradient-20">
            <stop stop-color="#BDBDBD" offset="0%"></stop>
            <stop stop-color="#DFDFDF" offset="100%"></stop>
        </linearGradient>
    </defs>
    <g id="-" stroke="none" stroke-width="1" fill="none" fill-rule="evenodd" opacity="0.40508016">
        <g id="V1.0github-可用区初始化" transform="translate(-807.000000, -268.000000)" fill-rule="nonzero">
            <g id="编组-2" transform="translate(232.000000, 268.000000)">
                <g id="椭圆形备份-4" transform="translate(402.000000, 0.000000)">
                    <g id="编组" transform="translate(156.904492, -9.000000)">
                        <ellipse id="椭圆形" fill="#EAEAEA" opacity="0.3" transform="translate(75.595508, 104.442722) rotate(-28.476935) translate(-75.595508, -104.442722) " cx="75.5955084" cy="104.442722" rx="77.7748676" ry="15.1648807"></ellipse>
                        <g transform="translate(39.833137, 0.000000)">
                            <path d="M9.75107324,122.571282 L1.75746088,117.935283 C0.793692008,117.369918 0.188974288,116.18265 0.188974288,114.505398 L8.18258666,119.141397 C8.18258666,120.818648 8.78730438,122.005916 9.75107324,122.571282 M8.0125098,44.1927516 L0.0188974288,39.5567529 L0.188974288,114.505398 L8.18258666,119.141397 L8.0125098,44.1927516 Z" id="形状" fill="url(#linearGradient-1)" style="mix-blend-mode: multiply;"></path>
                            <path d="M65.4228984,5.16367332 C65.3095138,5.22020988 65.1961292,5.27674645 65.0827447,5.35212855 L57.0891323,0.716129876 C57.2025169,0.659593307 57.3159014,0.584211215 57.429286,0.527674645 C57.4670809,0.508829122 57.4859783,0.489983599 57.5237732,0.471138076 C57.6182603,0.43344703 57.69385,0.395755984 57.7883372,0.358064938 C57.8072346,0.358064938 57.826132,0.339219415 57.8450295,0.339219415 C57.8639269,0.339219415 57.8639269,0.339219415 57.8828243,0.320373892 C57.958414,0.282682846 58.0340037,0.263837323 58.1284909,0.226146277 C58.1473883,0.226146277 58.1662857,0.207300754 58.1851832,0.207300754 C58.2796703,0.169609707 58.3741575,0.150764184 58.4686446,0.113073138 L58.487542,0.113073138 C58.5442343,0.0942276152 58.5820292,0.0942276152 58.6387215,0.0753820922 C58.6576189,0.0753820922 58.6954137,0.0565365691 58.7143112,0.0565365691 C58.7899009,0.0376910461 58.884388,0.018845523 58.9599778,0.018845523 L58.9599778,0.018845523 L58.9599778,0.018845523 C59.0355675,0 59.1111572,0 59.1678495,0 C59.1867469,0 59.2245418,0 59.2434392,0 C59.281234,0 59.3190289,0 59.3379263,0 C59.3568238,0 59.3568238,0 59.3757212,0 C59.4891058,0 59.5835929,0 59.67808,0 L59.6969775,0 C59.7158749,0 59.7158749,0 59.7347723,0 C59.810362,0 59.9048492,0.018845523 59.9804389,0.018845523 C59.9993363,0.018845523 60.0182338,0.018845523 60.0182338,0.018845523 C60.0371312,0.018845523 60.0371312,0.018845523 60.0560286,0.018845523 C60.1505158,0.0376910461 60.2450029,0.0565365691 60.3205926,0.0753820922 L60.3205926,0.0753820922 C60.3205926,0.0753820922 60.3205926,0.0753820922 60.3394901,0.0753820922 C60.4150798,0.0942276152 60.5095669,0.131918661 60.5851566,0.169609707 C60.6040541,0.169609707 60.6040541,0.169609707 60.6229515,0.18845523 C60.6418489,0.18845523 60.6418489,0.207300754 60.6607463,0.207300754 C60.7363361,0.2449918 60.7930283,0.263837323 60.8497206,0.301528369 C60.8686181,0.301528369 60.8686181,0.320373892 60.8875155,0.320373892 C60.9064129,0.320373892 60.9064129,0.339219415 60.9253103,0.339219415 L68.9189227,4.97521808 C68.9000253,4.95637256 68.8811279,4.95637256 68.8622304,4.93752704 C68.8055381,4.89983599 68.7299484,4.86214495 68.6732561,4.84329942 C68.6543587,4.8244539 68.6354613,4.8244539 68.5976664,4.80560838 C68.5220767,4.76791733 68.446487,4.74907181 68.3519998,4.71138076 C68.3519998,4.71138076 68.3519998,4.71138076 68.3331024,4.71138076 C68.2386153,4.69253524 68.1630256,4.67368972 68.0685384,4.65484419 C68.049641,4.65484419 68.0118461,4.65484419 67.9929487,4.63599867 C67.917359,4.61715315 67.8417693,4.61715315 67.7472821,4.61715315 C67.7283847,4.61715315 67.7094873,4.61715315 67.6905898,4.61715315 C67.5961027,4.61715315 67.4827181,4.61715315 67.388231,4.61715315 C67.3504361,4.61715315 67.2937438,4.61715315 67.255949,4.61715315 C67.2370516,4.61715315 67.1992567,4.61715315 67.1803593,4.61715315 C67.1047695,4.61715315 67.0291798,4.63599867 66.9724875,4.63599867 L66.9724875,4.63599867 C66.8968978,4.65484419 66.8024107,4.65484419 66.726821,4.67368972 C66.7079235,4.67368972 66.6701287,4.69253524 66.6512313,4.69253524 C66.594539,4.71138076 66.5378467,4.71138076 66.4811544,4.73022629 C66.3866673,4.74907181 66.2921801,4.78676285 66.197693,4.8244539 C66.1787955,4.8244539 66.1598981,4.84329942 66.1410007,4.84329942 C66.065411,4.86214495 65.9898213,4.89983599 65.8953341,4.93752704 C65.8575393,4.95637256 65.8386418,4.95637256 65.800847,4.97521808 C65.7252572,5.01290913 65.6307701,5.05060018 65.536283,5.08829122 C65.4795907,5.14482779 65.4606932,5.16367332 65.4228984,5.16367332 Z M65.0827447,5.35212855 L57.0891323,0.716129876 L5.32907491,30.3412921 L13.3226873,34.9772908 L65.0827447,5.35212855 Z" id="形状" fill="url(#linearGradient-2)"></path>
                            <path d="M8.05030465,43.6273859 C8.06920208,43.4766217 8.06920208,43.3258575 8.08809951,43.1750933 C8.08809951,43.1374023 8.10699694,43.0808657 8.10699694,43.0431746 C8.12589437,42.9677926 8.12589437,42.8924105 8.1447918,42.8358739 C8.1447918,42.7793373 8.16368923,42.7416463 8.16368923,42.6851097 C8.18258666,42.6097276 8.18258666,42.553191 8.20148408,42.477809 C8.20148408,42.4401179 8.22038151,42.4024269 8.22038151,42.3647358 C8.25817637,42.1951261 8.29597123,42.0066709 8.35266351,41.8370612 C8.35266351,41.7993701 8.37156094,41.7805246 8.37156094,41.7428336 C8.4093558,41.5920694 8.46604809,41.4413052 8.50384294,41.2716955 C8.50384294,41.25285 8.50384294,41.25285 8.52274037,41.2340044 C8.57943266,41.0832402 8.63612495,40.9324761 8.6739198,40.7817119 C8.69281723,40.7440208 8.71171466,40.7063298 8.71171466,40.6686387 C8.76840695,40.5367201 8.80620181,40.4236469 8.86289409,40.2917283 C8.86289409,40.2728828 8.88179152,40.2540372 8.88179152,40.2351917 C8.93848381,40.103273 9.01407352,39.9525089 9.07076581,39.8205902 C9.08966324,39.7828992 9.10856067,39.7452081 9.12745809,39.7075171 C9.18415038,39.5944439 9.24084267,39.5002163 9.29753495,39.3871432 C9.31643238,39.3494521 9.33532981,39.3306066 9.35422724,39.2929156 C9.42981695,39.1609969 9.50540667,39.0290782 9.58099638,38.8971596 C9.59989381,38.8783141 9.61879124,38.840623 9.61879124,38.8217775 C9.69438096,38.7087043 9.75107324,38.5956312 9.82666296,38.4825581 C9.84556039,38.444867 9.86445782,38.407176 9.88335524,38.3883305 C9.97784239,38.2564118 10.0534321,38.1244931 10.1479192,37.9925745 C10.1668167,37.9737289 10.1857141,37.9548834 10.1857141,37.9360379 C10.2802012,37.8041192 10.3746884,37.6722006 10.488073,37.5402819 C10.5069704,37.5214364 10.5069704,37.5025909 10.5258678,37.4837453 C10.6581498,37.3141356 10.7904318,37.1633715 10.9227138,37.0126073 C10.9416113,36.9937617 10.9605087,36.9749162 10.9794061,36.9560707 C11.0549958,36.8618431 11.149483,36.7676155 11.2250727,36.6733879 C11.2250727,36.6733879 11.2250727,36.6545423 11.2439701,36.6545423 C11.3384573,36.5603147 11.4329444,36.4660871 11.5085341,36.3718595 C11.5274315,36.353014 11.546329,36.3341684 11.5652264,36.3153229 C11.678611,36.2022498 11.810893,36.0891766 11.9242776,35.9761035 C11.943175,35.957258 11.943175,35.957258 11.9620724,35.9384125 C12.0943544,35.8253393 12.2266364,35.7122662 12.3589184,35.6180386 C12.3778158,35.599193 12.4156107,35.5803475 12.4345081,35.561502 C12.5667901,35.4672744 12.6990721,35.3730468 12.8313541,35.2788191 C12.8502516,35.2599736 12.8880464,35.2411281 12.9069438,35.2411281 C13.0392258,35.1469005 13.1904053,35.0526729 13.3226873,34.9772908 L5.32907491,30.3412921 C5.17789548,30.4166742 5.04561348,30.5109018 4.91333148,30.6051294 C4.89443405,30.623975 4.85663919,30.6428205 4.83774176,30.6428205 C4.70545976,30.7370481 4.57317776,30.8312757 4.44089576,30.9255033 C4.42199833,30.9443488 4.38420347,30.9631944 4.36530605,30.9820399 C4.23302404,31.0762675 4.10074204,31.1893406 3.96846004,31.3024138 C3.94956261,31.3212593 3.94956261,31.3212593 3.93066518,31.3401048 C3.79838318,31.453178 3.68499861,31.5662511 3.57161404,31.6793242 C3.55271661,31.6981698 3.55271661,31.6981698 3.53381918,31.7170153 L3.51492175,31.7358608 C3.42043461,31.8300884 3.32594746,31.924316 3.25035775,32.0185437 C3.25035775,32.0185437 3.25035775,32.0373892 3.23146032,32.0373892 C3.13697318,32.1316168 3.06138346,32.2258444 2.98579375,32.320072 L2.96689632,32.3389176 C2.94799889,32.3577631 2.94799889,32.3577631 2.92910146,32.3766086 C2.79681946,32.5273728 2.66453746,32.6969825 2.53225545,32.8477467 C2.53225545,32.8477467 2.53225545,32.8477467 2.51335803,32.8665922 C2.4944606,32.8854377 2.4944606,32.8854377 2.47556317,32.9042832 C2.38107602,33.0362019 2.26769145,33.1681206 2.17320431,33.3000392 C2.15430688,33.3188848 2.15430688,33.3188848 2.13540945,33.3377303 C2.13540945,33.3377303 2.13540945,33.3565758 2.11651202,33.3565758 C2.02202488,33.4884945 1.92753773,33.6204131 1.85194802,33.7523318 C1.85194802,33.7711773 1.83305059,33.7711773 1.83305059,33.7900228 C1.81415316,33.8088684 1.81415316,33.8277139 1.79525573,33.8465594 C1.71966602,33.9596325 1.66297373,34.0727057 1.58738402,34.1857788 C1.56848659,34.2046243 1.56848659,34.2234699 1.54958916,34.2423154 C1.54958916,34.2423154 1.54958916,34.2611609 1.53069173,34.2611609 C1.45510202,34.3930796 1.3795123,34.5249982 1.30392258,34.6569169 C1.30392258,34.6757624 1.28502516,34.6757624 1.28502516,34.6946079 C1.26612773,34.7134535 1.26612773,34.732299 1.2472303,34.76999 C1.19053801,34.8830632 1.13384573,34.9772908 1.07715344,35.0903639 C1.05825601,35.1092094 1.05825601,35.128055 1.03935858,35.165746 C1.03935858,35.1845915 1.02046115,35.1845915 1.02046115,35.2034371 C0.963768867,35.3353557 0.888179152,35.4672744 0.831486866,35.6180386 C0.831486866,35.6180386 0.831486866,35.6180386 0.831486866,35.6368841 C0.831486866,35.6557296 0.812589437,35.6745751 0.812589437,35.6745751 C0.755897151,35.8064938 0.699204864,35.9195669 0.661410007,36.0514856 C0.661410007,36.0703311 0.642512578,36.0891766 0.642512578,36.1080222 C0.642512578,36.1268677 0.623615149,36.1457132 0.623615149,36.1645587 C0.566922863,36.3153229 0.510230577,36.4660871 0.472435719,36.6168513 L0.472435719,36.6168513 L0.472435719,36.6356968 C0.415743433,36.786461 0.377948575,36.9372252 0.340153718,37.0879894 C0.340153718,37.1068349 0.321256289,37.1256804 0.321256289,37.1445259 C0.321256289,37.1633715 0.321256289,37.1633715 0.321256289,37.182217 C0.264564003,37.3518267 0.226769145,37.5402819 0.188974288,37.7098916 C0.188974288,37.7287371 0.188974288,37.7475827 0.170076859,37.7664282 C0.170076859,37.7852737 0.170076859,37.8041192 0.15117943,37.8418103 C0.132282001,37.9171924 0.132282001,37.9737289 0.113384573,38.049111 C0.113384573,38.1056476 0.0944871438,38.1433387 0.0944871438,38.1998752 C0.0755897151,38.2752573 0.0755897151,38.3506394 0.0566922863,38.407176 C0.0566922863,38.444867 0.0377948575,38.4825581 0.0377948575,38.5014036 L0.0377948575,38.5202491 C0.0188974288,38.6710133 0,38.8217775 0,38.9725417 C0,39.0102327 0,39.0290782 0,39.0667693 C0,39.2175335 0.0188974288,39.4059887 0.0188974288,39.5567529 L8.0125098,44.1927516 C8.0125098,44.0419874 8.05030465,43.6650769 8.05030465,43.6273859 Z" id="路径" fill="url(#linearGradient-3)"></path>
                            <g transform="translate(8.012399, 4.617153)">
                                <path d="M57.0703457,0.734975399 C60.037242,-0.961121676 62.4372155,0.395755984 62.4561129,3.78795013 L62.6263006,78.7365953 C62.6450872,82.1287894 60.2451137,86.255959 57.2782174,87.9709016 L5.5559549,117.577218 C2.58905858,119.273315 0.189085125,117.916438 0.170187697,114.524244 L0,39.5755984 C-0.018786591,36.1834043 2.38118686,32.0562347 5.34808318,30.3412921 L57.0703457,0.734975399 Z" id="路径" fill="url(#linearGradient-4)"></path>
                                <path d="M59.4703192,0 L59.4703192,0.18845523 C61.1899852,0.18845523 62.2482412,1.56417841 62.2482412,3.78795013 L62.4184307,78.7365953 C62.4372155,82.0722529 60.0750369,86.1240403 57.1648329,87.8012919 L5.46146775,117.426454 C4.64887831,117.897592 3.85518631,118.142584 3.15598144,118.142584 C1.43631542,118.142584 0.378059413,116.766861 0.378059413,114.543089 L0.207869955,39.5944439 C0.189085125,36.2587863 2.55126372,32.1881534 5.46146775,30.5297473 L57.2026277,0.923430629 C58.0152172,0.452292553 58.7900117,0.207300754 59.508114,0.207300754 L59.4703192,0 M59.4703192,0 C58.7522169,0 57.92073,0.2449918 57.0703457,0.734975399 L5.34808318,30.3412921 C2.38118686,32.0373892 0.000110837755,36.1834043 0.000110837755,39.5755984 L0.170187697,114.524244 C0.170187697,116.917625 1.37962314,118.312194 3.13708401,118.312194 C3.85518631,118.312194 4.68667317,118.067202 5.53705747,117.577218 L57.25932,87.9709016 C60.2262163,86.2748045 62.6072923,82.1287894 62.6072923,78.7365953 L62.4372155,3.78795013 C62.4372155,1.39456871 61.22778,0 59.4703192,0 L59.4703192,0 Z" id="形状" fill="url(#linearGradient-5)"></path>
                            </g>
                        </g>
                        <g transform="translate(59.731362, 26.984491)" id="路径">
                            <g transform="translate(0.057184, 0.000000)">
                                <g>
                                    <use fill="#8BBDEA" xlink:href="#path-7"></use>
                                    <use fill="url(#linearGradient-6)" xlink:href="#path-7"></use>
                                </g>
                                <g>
                                    <use fill="#B6DCFF" xlink:href="#path-9"></use>
                                    <use fill="url(#linearGradient-8)" xlink:href="#path-9"></use>
                                </g>
                                <polygon fill="#FFFFFF" points="45.6515509 2.32020338 45.7087345 8.99786188 4.06003354 32.8223893 4.02191116 26.1635942"></polygon>
                            </g>
                            <g transform="translate(0.000000, 39.009598)">
                                <g>
                                    <use fill="#8BBDEA" xlink:href="#path-10"></use>
                                    <use fill="url(#linearGradient-6)" xlink:href="#path-10"></use>
                                </g>
                                <g>
                                    <use fill="#B6DCFF" xlink:href="#path-12"></use>
                                    <use fill="url(#linearGradient-11)" xlink:href="#path-12"></use>
                                </g>
                                <polygon fill="#FFFFFF" points="17.9175189 2.32020338 17.9556413 8.99786188 4.06003354 16.9582344 4.02191116 10.2805759"></polygon>
                            </g>
                        </g>
                        <g transform="translate(16.950178, 86.950026)" id="路径">
                            <g>
                                <use fill="#75ADFF" xlink:href="#path-14"></use>
                                <use fill="url(#linearGradient-13)" xlink:href="#path-14"></use>
                            </g>
                            <g>
                                <use fill="#5299FF" xlink:href="#path-16"></use>
                                <use fill="url(#linearGradient-15)" xlink:href="#path-16"></use>
                            </g>
                            <path d="M5.90991398,3.60827901 C7.43805359,5.92540881 8.81710641,8.33750294 10.0843441,10.8255685 C11.332946,13.3136341 12.4697328,15.8586783 13.4387969,18.479694 C13.923329,19.7902018 14.3519535,21.1197025 14.7433064,22.4681961 C15.1160233,23.8166897 15.4328328,25.1841761 15.6750988,26.5516625 C15.898729,27.9381418 16.0664516,29.3246211 16.1223592,30.7300933 C16.1782667,32.1355655 16.1223592,33.5220448 15.9546365,34.9085241 L15.9360007,34.9085241 C16.0478158,33.5220448 16.0478158,32.1165726 15.9546365,30.7300933 C15.8614573,29.343614 15.6750988,27.9571347 15.4328328,26.5896483 C14.9483007,23.8546754 14.1842309,21.1766811 13.2524384,18.5556655 C12.320646,15.9346498 11.2211309,13.3896056 9.97252904,10.90154 C8.74256301,8.4134744 7.40078189,5.98238741 5.89127813,3.64626475 L5.90991398,3.60827901 Z" fill="#FFFFFF"></path>
                        </g>
                        <polygon id="路径" fill="#497A9E" points="86.6966667 87.1611404 82.6143211 84.9511747 93.4749008 90.7366135 97.53799 92.9465793"></polygon>
                        <g transform="translate(78.634676, 58.966109)" id="路径">
                            <g>
                                <use fill="url(#linearGradient-17)" xlink:href="#path-19"></use>
                                <use fill="url(#linearGradient-18)" xlink:href="#path-19"></use>
                            </g>
                            <path d="M4.35606252,34.2812712 C4.35606252,34.262528 4.33736697,34.262528 4.33736697,34.2437849 C4.29997588,34.1875553 4.24388923,34.1313258 4.20649814,34.0750963 C4.20649814,34.0750963 4.20649814,34.0750963 4.20649814,34.0563531 C4.16910704,34.0001236 4.13171595,33.9251508 4.09432486,33.8501781 C4.09432486,33.831435 4.07562931,33.8126918 4.07562931,33.8126918 C4.03823821,33.7377191 4.01954267,33.6627464 4.00084712,33.5877737 C4.00084712,33.5690305 4.00084712,33.5690305 3.98215157,33.5502873 C3.96345602,33.4753146 3.94476048,33.4003419 3.92606493,33.3253692 C3.92606493,33.3253692 3.92606493,33.306626 3.92606493,33.306626 C3.90736938,33.2316533 3.90736938,33.1379374 3.88867384,33.0442215 C3.88867384,33.0254783 3.88867384,33.0067352 3.88867384,32.987992 C3.88867384,32.8942761 3.86997829,32.8005602 3.86997829,32.7068443 C3.86997829,32.6881011 3.86997829,32.669358 3.86997829,32.669358 C3.86997829,32.5756421 3.86997829,32.4819262 3.88867384,32.4069535 C3.88867384,32.3882103 3.88867384,32.3882103 3.88867384,32.3694671 C3.88867384,32.2757512 3.90736938,32.1820354 3.92606493,32.0883195 C3.94476048,31.9946036 3.96345602,31.9008877 3.96345602,31.825915 C3.96345602,31.7884286 3.98215157,31.7509423 3.98215157,31.7134559 C4.00084712,31.6759696 4.00084712,31.61974 4.01954267,31.5822537 C4.03823821,31.507281 4.05693376,31.4323083 4.07562931,31.3760787 C4.09432486,31.3385924 4.09432486,31.301106 4.1130204,31.2636197 C4.13171595,31.188647 4.16910704,31.1136743 4.18780259,31.0199584 C4.20649814,30.982472 4.20649814,30.9449857 4.22519369,30.9262425 C4.26258478,30.8325266 4.29997588,30.7388107 4.33736697,30.6450948 C4.33736697,30.6263516 4.35606252,30.6076085 4.35606252,30.6076085 C4.41214916,30.4951494 4.44954025,30.3826903 4.5056269,30.2889745 C4.52432244,30.2702313 4.52432244,30.2327449 4.54301799,30.2140017 C4.59910463,30.1015427 4.65519127,29.9890836 4.71127792,29.8953677 C4.76736456,29.7829087 4.84214675,29.6704496 4.91692894,29.5767337 C4.93562448,29.5392474 4.95432003,29.5205042 4.97301558,29.4830178 C5.02910222,29.4080451 5.06649331,29.3330724 5.12257996,29.2580997 C5.1412755,29.2206134 5.1786666,29.183127 5.19736215,29.1643838 C5.25344879,29.1081543 5.29083988,29.0519248 5.34692652,28.976952 C5.38431762,28.9394657 5.42170871,28.9019793 5.44040426,28.8457498 C5.47779535,28.8082635 5.51518645,28.7707771 5.533882,28.7332907 C5.60866419,28.658318 5.66475083,28.5833453 5.73953302,28.5271158 C5.77692411,28.4896294 5.83301075,28.4333999 5.87040185,28.3959136 C5.90779294,28.3584272 5.94518404,28.3209408 5.98257513,28.3021977 C6.03866177,28.2459681 6.09474842,28.2084818 6.15083506,28.1709954 C6.18822615,28.1522523 6.22561725,28.1147659 6.24431279,28.0960227 C6.30039944,28.0585364 6.35648608,28.0023068 6.41257272,27.9648205 C6.44996381,27.9460773 6.46865936,27.9273341 6.50605046,27.9085909 C6.59952819,27.8523614 6.67431038,27.7961319 6.76778812,27.7399024 C6.84257031,27.6836728 6.93604804,27.6461865 7.01083023,27.6087001 C7.02952578,27.5899569 7.06691687,27.5899569 7.08561242,27.5712138 C7.16039461,27.5337274 7.21648125,27.5149842 7.29126344,27.4774979 C7.30995899,27.4774979 7.30995899,27.4774979 7.32865454,27.4587547 C7.40343673,27.4400115 7.47821891,27.4025252 7.5530011,27.383782 C7.5903922,27.3650388 7.62778329,27.3650388 7.66517439,27.3650388 C7.72126103,27.3462956 7.75865212,27.3462956 7.81473877,27.3462956 C7.85212986,27.3462956 7.87082541,27.3462956 7.9082165,27.3462956 C7.96430314,27.3462956 8.02038979,27.3462956 8.07647643,27.3462956 C8.09517198,27.3462956 8.11386752,27.3462956 8.15125862,27.3462956 C8.22604081,27.3462956 8.300823,27.3650388 8.37560518,27.3650388 C8.37560518,27.3650388 8.39430073,27.3650388 8.39430073,27.3650388 C8.46908292,27.383782 8.52516956,27.4025252 8.5812562,27.4212683 C8.59995175,27.4212683 8.6186473,27.4400115 8.63734285,27.4400115 C8.71212504,27.4587547 8.76821168,27.496241 8.84299387,27.5337274 L4.89823339,25.2283166 C4.89823339,25.2283166 4.89823339,25.2283166 4.89823339,25.2283166 C4.84214675,25.2095734 4.80475565,25.1720871 4.74866901,25.1533439 C4.72997346,25.1533439 4.71127792,25.1346007 4.71127792,25.1346007 C4.69258237,25.1346007 4.67388682,25.1158575 4.65519127,25.1158575 C4.63649573,25.1158575 4.61780018,25.0971144 4.59910463,25.0971144 C4.56171354,25.0783712 4.5056269,25.0783712 4.4682358,25.059628 C4.4682358,25.059628 4.44954025,25.059628 4.44954025,25.059628 C4.44954025,25.059628 4.44954025,25.059628 4.44954025,25.059628 C4.39345361,25.0408848 4.33736697,25.0408848 4.28128033,25.0408848 C4.26258478,25.0408848 4.26258478,25.0408848 4.24388923,25.0408848 C4.22519369,25.0408848 4.20649814,25.0408848 4.16910704,25.0408848 C4.1504115,25.0408848 4.1130204,25.0408848 4.09432486,25.0408848 C4.07562931,25.0408848 4.03823821,25.0408848 4.01954267,25.0408848 C3.98215157,25.0408848 3.96345602,25.0408848 3.92606493,25.0408848 C3.90736938,25.0408848 3.88867384,25.0408848 3.86997829,25.0408848 C3.83258719,25.0408848 3.7951961,25.059628 3.77650055,25.059628 C3.73910946,25.059628 3.70171836,25.0783712 3.66432727,25.0783712 C3.64563172,25.0783712 3.64563172,25.0783712 3.62693617,25.0783712 C3.57084953,25.0971144 3.49606734,25.1158575 3.4399807,25.1346007 C3.42128515,25.1346007 3.42128515,25.1346007 3.40258961,25.1533439 C3.36519851,25.1720871 3.32780742,25.1908302 3.29041632,25.1908302 C3.25302523,25.2095734 3.23432968,25.2095734 3.19693859,25.2283166 C3.17824304,25.2470598 3.14085194,25.2470598 3.1221564,25.265803 C3.04737421,25.3032893 2.95389647,25.3407757 2.87911428,25.3970052 C2.78563655,25.4532347 2.71085436,25.5094643 2.61737662,25.5656938 C2.57998553,25.584437 2.56128998,25.6031801 2.52389888,25.6219233 C2.46781224,25.6594097 2.4117256,25.7156392 2.35563896,25.7531256 C2.31824786,25.7718687 2.28085677,25.8093551 2.26216122,25.8280983 C2.20607458,25.8655846 2.14998794,25.9218142 2.11259684,25.9593005 C2.07520575,25.9967869 2.03781465,26.01553 2.00042356,26.0530164 C1.96303247,26.0717596 1.94433692,26.1092459 1.90694582,26.1279891 C1.88825028,26.1467323 1.86955473,26.1654755 1.85085918,26.1842186 C1.77607699,26.2591913 1.71999035,26.3154209 1.64520816,26.3903936 C1.62651261,26.4091368 1.58912152,26.4466231 1.57042597,26.4653663 C1.55173042,26.4841095 1.55173042,26.4841095 1.53303488,26.5028527 C1.49564378,26.540339 1.45825269,26.5778254 1.43955714,26.6340549 C1.40216605,26.6715412 1.36477495,26.7090276 1.3460794,26.7652571 C1.32738386,26.7840003 1.32738386,26.8027435 1.30868831,26.8214867 C1.28999276,26.858973 1.25260167,26.8964594 1.23390612,26.9152026 C1.21521057,26.9526889 1.17781948,26.9901753 1.15912393,27.0276616 C1.14042838,27.065148 1.10303729,27.1026343 1.08434174,27.1401207 C1.0656462,27.177607 1.04695065,27.1963502 1.0282551,27.2338366 C1.00955955,27.2525797 1.00955955,27.2713229 0.990864006,27.2900661 C0.934777364,27.3650388 0.89738627,27.4587547 0.841299628,27.5337274 C0.841299628,27.5337274 0.822604081,27.5524706 0.822604081,27.5524706 C0.785212986,27.6274433 0.747821891,27.702416 0.710430797,27.7773887 C0.69173525,27.8148751 0.673039702,27.8523614 0.654344155,27.8898478 C0.635648608,27.9085909 0.635648608,27.9460773 0.61695306,27.9648205 C0.598257513,27.9835637 0.598257513,28.0023068 0.579561966,28.02105 C0.542170871,28.0960227 0.504779777,28.1897386 0.467388682,28.2647113 C0.467388682,28.2647113 0.467388682,28.2647113 0.467388682,28.2834545 C0.467388682,28.3021977 0.448693135,28.3209408 0.448693135,28.3209408 C0.41130204,28.3959136 0.392606493,28.4521431 0.373910946,28.5271158 C0.355215398,28.545859 0.355215398,28.5833453 0.336519851,28.6020885 C0.317824304,28.6395749 0.317824304,28.6770612 0.299128757,28.6958044 C0.280433209,28.7332907 0.280433209,28.7520339 0.261737662,28.7895203 C0.243042115,28.8457498 0.224346567,28.8832362 0.224346567,28.9394657 C0.20565102,28.976952 0.20565102,29.0144384 0.186955473,29.0519248 C0.186955473,29.0706679 0.186955473,29.0706679 0.168259926,29.0894111 C0.149564378,29.1456406 0.130868831,29.2018702 0.130868831,29.2580997 C0.112173284,29.2955861 0.112173284,29.3518156 0.0934777364,29.3893019 C0.0934777364,29.3893019 0.0934777364,29.4080451 0.0934777364,29.4080451 C0.0934777364,29.4455315 0.0747821891,29.4642747 0.0747821891,29.501761 C0.0560866419,29.5954769 0.0373910946,29.6891928 0.0373910946,29.7641655 C0.0373910946,29.7829087 0.0373910946,29.8016518 0.0373910946,29.820395 C0.0186955473,29.8953677 0.0186955473,29.9703404 0.0186955473,30.0453132 C0.0186955473,30.0640563 0.0186955473,30.0640563 0.0186955473,30.0827995 C0.0186955473,30.1765154 0,30.2702313 0,30.345204 C0,30.3639472 0,30.3826903 0,30.3826903 C0,30.4764062 0,30.5701221 0.0186955473,30.663838 C0.0186955473,30.6825812 0.0186955473,30.7013244 0.0186955473,30.7200675 C0.0186955473,30.8137834 0.0373910946,30.8887561 0.0560866419,30.982472 C0.0560866419,30.982472 0.0560866419,31.0012152 0.0560866419,31.0012152 C0.0747821891,31.0761879 0.0934777364,31.1511606 0.112173284,31.2261333 C0.112173284,31.2448765 0.112173284,31.2448765 0.130868831,31.2636197 C0.149564378,31.3385924 0.186955473,31.4135651 0.20565102,31.4885378 C0.20565102,31.507281 0.224346567,31.5260242 0.224346567,31.5260242 C0.261737662,31.6009969 0.299128757,31.6572264 0.336519851,31.7321991 C0.336519851,31.7321991 0.336519851,31.7321991 0.336519851,31.7509423 C0.373910946,31.8071718 0.41130204,31.8634013 0.467388682,31.9196309 C0.467388682,31.9383741 0.486084229,31.9383741 0.486084229,31.9571172 C0.542170871,32.0133468 0.579561966,32.0508331 0.635648608,32.1070627 C0.654344155,32.1070627 0.654344155,32.1258058 0.673039702,32.1258058 C0.729126344,32.1632922 0.785212986,32.2195217 0.859995175,32.2570081 L4.80475565,34.5624189 C4.74866901,34.5249325 4.67388682,34.4874462 4.61780018,34.4312166 C4.59910463,34.4312166 4.59910463,34.4124735 4.58040909,34.4124735 C4.44954025,34.3749871 4.39345361,34.3187576 4.35606252,34.2812712 Z" fill="url(#linearGradient-20)"></path>
                            <path d="M37.8771788,2.69901753 C38.6250007,2.26792445 39.3728226,2.15546539 39.933689,2.49284258 C41.0741174,3.14885378 41.0741174,5.26683281 39.9523846,7.23486642 L21.4250972,39.3981586 C20.8642308,40.3728038 20.1164089,41.1412741 19.368587,41.5723672 C18.6207651,42.0034602 17.8729432,42.1159193 17.3120768,41.7785421 L4.71127792,34.5811621 C3.57084953,33.9251508 3.57084953,31.8071718 4.69258237,29.8391382 C5.25344879,28.864493 6.00127068,28.0960227 6.74909257,27.6649296 C7.49691446,27.2338366 8.24473635,27.1213775 8.80560277,27.4587547 L19.3498914,33.4753146 L35.8206686,4.87322609 C36.4002306,3.87983769 37.1293569,3.1301106 37.8771788,2.69901753 Z" fill="#FFFFFF"></path>
                        </g>
                    </g>
                </g>
            </g>
        </g>
    </g>
</svg>