<?xml version="1.0" encoding="UTF-8"?>
<svg width="141px" height="78px" viewBox="0 0 141 78" version="1.1" xmlns="http://www.w3.org/2000/svg" xmlns:xlink="http://www.w3.org/1999/xlink">
    <title>路径 3</title>
    <defs>
        <linearGradient x1="50%" y1="82.3626577%" x2="50%" y2="0%" id="linearGradient-1">
            <stop stop-color="#6AB1F9" stop-opacity="0" offset="0%"></stop>
            <stop stop-color="#2B7CF4" offset="100%"></stop>
        </linearGradient>
    </defs>
    <g id="-" stroke="none" stroke-width="1" fill="none" fill-rule="evenodd" opacity="0.362338112">
        <g id="V1.0github-可用区" transform="translate(-634.000000, -212.000000)" fill="url(#linearGradient-1)" fill-rule="nonzero">
            <g id="椭圆形备份-4" transform="translate(634.000000, 212.000000)">
                <g id="路径-3" transform="translate(-83.000000, -43.000000)">
                    <path d="M170.471714,146.992335 C189.486508,147.317053 207.196757,137.30377 216.79861,120.799347 C226.400463,104.294924 226.400463,83.8664349 216.79861,67.3620121 C207.196757,50.8575892 189.486508,40.8443058 170.471714,41.1690234 C169.484913,41.1690234 168.558839,41.3979791 167.587221,41.4590339 C160.164412,16.8372135 137.589503,0 112,0 C86.4104966,0 63.835588,16.8372135 56.4127794,41.4590339 C55.4259791,41.4590339 54.5150865,41.1690234 53.5282862,41.1690234 C34.5134921,40.8443058 16.8032433,50.8575892 7.20138999,67.3620121 C-2.40046333,83.8664349 -2.40046333,104.294924 7.20138999,120.799347 C16.8032433,137.30377 34.5134921,147.317053 53.5282862,146.992335 L170.471714,146.992335 Z" id="路径"></path>
                </g>
            </g>
        </g>
    </g>
</svg>