<?xml version="1.0" encoding="UTF-8"?>
<svg width="60px" height="60px" viewBox="0 0 60 60" version="1.1" xmlns="http://www.w3.org/2000/svg" xmlns:xlink="http://www.w3.org/1999/xlink">
    <title>产品图标/mts-cover 智能封面</title>
    <g id="githuab-v1.0" stroke="none" stroke-width="1" fill="none" fill-rule="evenodd">
        <g id="备份任务-新增04" transform="translate(-655.000000, -305.000000)" fill="#575757" fill-rule="nonzero">
            <g id="编组-3备份" transform="translate(632.000000, 281.000000)">
                <g id="形状" transform="translate(23.000000, 24.000000)">
                    <path d="M13.9352217,28.529398 L27.4410208,35.4463741 C28.283109,35.8725385 29.2871373,36.1347935 30.3883295,36.1347935 C31.3923578,36.1347935 32.428774,35.8725385 33.3356382,35.4463741 L46.8414374,28.529398 C47.5863615,28.1032336 48.1045697,27.2509048 48.1045697,26.398576 C48.1045697,25.4479016 47.5863615,24.6939184 46.8414374,24.267754 L33.3356382,17.350778 C32.428774,16.8590498 31.4247458,16.5967948 30.3883295,16.5967948 C29.3843013,16.5967948 28.347885,16.8590498 27.4410208,17.2852142 L13.9352217,24.1694084 C13.1902975,24.6939184 12.6720894,25.4479016 12.6720894,26.398576 C12.6720894,27.2181229 13.1902975,28.0704517 13.9352217,28.529398 L13.9352217,28.529398 Z M45.448753,32.8893877 L32.2020579,40.2325281 C31.1008657,40.7570382 29.8377334,40.7570382 28.8337052,40.2325281 L15.42507,32.8893877 C14.5829818,32.3648776 13.4817896,32.7254783 12.9635814,33.5778071 C12.4453733,34.4301359 12.8016414,35.5447197 13.6437296,36.0692298 L27.1495288,43.4123702 C28.185945,43.9368802 29.2871373,44.1991353 30.4531055,44.1663534 C31.5542978,44.1663534 32.65549,43.9040984 33.8214583,43.4123702 L47.3272575,36.0692298 C48.1693457,35.5447197 48.4284497,34.4301359 47.9102416,33.5778071 C47.9102416,33.5778071 47.9102416,33.5778071 47.9102416,33.5778071 C47.3596455,32.6926964 46.2908412,32.3648776 45.448753,32.8893877 Z M11.2794051,13.1546977 C11.2794051,15.3510835 9.56284065,17.1540867 7.45762016,17.1540867 C5.35239967,17.1540867 3.63583527,15.3838653 3.63583527,13.1546977 C3.63583527,10.9583119 5.35239967,9.15530869 7.45762016,9.15530869 C9.59522866,9.15530869 11.2794051,10.9583119 11.2794051,13.1546977 Z M57.6266439,44.1663534 C57.6266439,46.3627391 55.9100795,48.1329605 53.804859,48.1329605 C51.6996385,48.1329605 49.9830741,46.3627391 49.9830741,44.1663534 C49.9830741,41.9699676 51.6996385,40.1669644 53.804859,40.1669644 C55.9100795,40.1669644 57.6266439,41.9371857 57.6266439,44.1663534 Z M19.0525269,5.48373846 C19.0525269,6.69666791 18.0808866,7.64734234 16.9149184,7.64734234 C15.7165621,7.64734234 14.7773099,6.66388603 14.7773099,5.48373846 C14.7773099,5.48373846 14.7773099,5.48373846 14.7773099,5.48373846 C14.7773099,4.27080901 15.7489501,3.32013457 16.9149184,3.32013457 C18.0808866,3.32013457 19.0525269,4.27080901 19.0525269,5.48373846 Z M15.7489501,3.68073522 C20.3480472,1.15653069 25.4977404,-0.121962518 30.7122096,0.00916499064 C38.7120475,0.173074376 46.1612892,3.48404396 51.6996385,9.2864362 C57.2379878,15.0888284 60.1852965,22.6942239 59.9909684,30.6930019 C59.8938044,35.4463741 58.6630601,40.0358369 56.3311236,44.3958265 C56.0720195,45.1170278 55.3594833,45.5759741 54.5173951,45.5759741 C53.3838149,45.5431922 52.5093387,44.6252997 52.5417267,43.5434977 C52.5417267,43.3795883 52.5741147,43.2812427 52.6065027,43.1828971 L52.6065027,43.0189877 L52.7036667,42.8222964 C54.7117232,39.2162899 55.8129155,35.1513372 55.9100795,30.7913475 C56.0720195,23.8743715 53.5133669,17.3179961 48.7523298,12.3351508 C43.9589047,7.31952357 37.5460792,4.50028215 30.6150456,4.33637276 C26.2102765,4.23802713 21.8378955,5.2870472 17.9513346,7.38508733 M8.39687238,16.1050666 C5.74105576,20.1372375 4.25120741,24.8250459 4.15404339,29.6767637 C3.99210335,36.5937398 6.55075595,43.1501152 11.3117931,48.1329605 C16.1052182,53.1485877 22.5180437,55.9678291 29.4490773,56.1317385 C34.9550386,56.262866 40.2342838,54.6237722 44.8981569,51.3783663 C45.222037,51.0177657 45.6754691,50.8210744 46.2260652,50.8210744 C47.3596455,50.8538563 48.2341217,51.7717489 48.2017337,52.8535508 C48.2017337,53.345279 48.0074056,53.8370071 47.6511375,54.1976078 C42.4042803,58.0003055 36.3153349,60 30.0644494,60 C29.8377334,60 29.6110173,60 29.3519133,60 C12.8016414,59.6066175 -0.380277667,45.8382291 0.0083784236,29.2833812 C0.105542446,23.6776802 1.85449485,18.399798 4.73702753,13.9086809"></path>
                </g>
            </g>
        </g>
    </g>
</svg>