<?xml version="1.0" encoding="UTF-8"?>
<svg width="91px" height="118px" viewBox="0 0 91 118" version="1.1" xmlns="http://www.w3.org/2000/svg" xmlns:xlink="http://www.w3.org/1999/xlink">
    <title>编组 27</title>
    <defs>
        <rect id="path-1" x="0" y="0" width="91" height="118"></rect>
    </defs>
    <g id="-1.3.0" stroke="none" stroke-width="1" fill="none" fill-rule="evenodd">
        <g id="编组-27">
            <mask id="mask-2" fill="white">
                <use xlink:href="#path-1"></use>
            </mask>
            <g id="蒙版"></g>
            <g mask="url(#mask-2)" id="编组" opacity="0.4">
                <g transform="translate(-9.000000, 0.000000)">
                    <g transform="translate(0.000000, -0.000000)">
                        <path d="M92.6461722,46.8898862 C90.9101896,46.8898862 89.5028706,45.4821947 89.5028706,43.7457527 L89.5028706,23.1619907 C89.5028706,21.4255486 90.9101896,20.0178571 92.6461722,20.0178571 C94.3821547,20.0178571 95.7894737,21.4255486 95.7894737,23.1619907 L95.7894737,43.7457527 C95.7894737,45.4821947 94.382029,46.8898862 92.6461722,46.8898862 Z M47.8948626,118 L0,90.3406799 L0,44.5906442 C0,42.8542021 1.40731896,41.4465107 3.14330153,41.4465107 C4.8792841,41.4465107 6.28660306,42.8542021 6.28660306,44.5906442 L6.28660306,86.7102118 L47.8948626,110.739064 L89.5028706,86.7102118 L89.5028706,70.7217896 C89.5028706,68.9853476 90.9101896,67.5776561 92.6461722,67.5776561 C94.3821547,67.5776561 95.7894737,68.9853476 95.7894737,70.7217896 L95.7894737,90.3406799 L47.8948626,118 Z" id="形状" fill="#FFFFFF" fill-rule="nonzero"></path>
                        <path d="M43.7629319,90.2700207 L11.2045444,73.8540489 C9.65350413,73.0720062 9.02928967,71.1791101 9.81034383,69.6261066 C10.591398,68.0732291 12.4819012,67.4480986 14.0329415,68.2301414 L46.5914548,84.6461132 C48.1424951,85.4281559 48.7667095,87.321052 47.9856554,88.8740555 C47.4330061,89.9728193 46.3249405,90.6071429 45.1747408,90.6071429 C44.6991907,90.6071429 44.2165974,90.4988406 43.7629319,90.2700207 Z M43.1580866,49.0917541 C42.3394261,47.5583962 42.9171043,45.6507659 44.4486497,44.8310692 L90.1095039,20.3902809 C91.6405461,19.5707101 93.5461422,20.1488677 94.3648027,21.6824774 C95.1835889,23.2158354 94.6057849,25.1234656 93.0742396,25.9431623 L47.4135112,50.3839507 C46.9584923,50.6283905 46.4501585,50.7564599 45.9337846,50.7564599 C44.8107519,50.7564599 43.7244452,50.152738 43.1580866,49.0917541 Z" id="形状" fill="#FFFFFF" fill-rule="nonzero"></path>
                        <path d="M46.2665348,88.6404762 C44.5496951,88.6404762 43.1578947,87.2495728 43.1578947,85.5335619 L43.1578947,46.9246837 C43.1578947,45.2087971 44.5496951,43.8177694 46.2665348,43.8177694 C47.9833745,43.8177694 49.3751749,45.2087971 49.3751749,46.9246837 L49.3751749,85.5335619 C49.3752992,87.2495728 47.9833745,88.6404762 46.2665348,88.6404762 L46.2665348,88.6404762 Z M91.834846,68.9894919 C87.3325404,68.9894919 83.669692,65.3285526 83.669692,60.8287465 C83.669692,56.3289404 87.3325404,52.6680012 91.834846,52.6680012 C96.3371516,52.6680012 100,56.3289404 100,60.8287465 C100,65.3285526 96.3371516,68.9894919 91.834846,68.9894919 L91.834846,68.9894919 Z M91.834846,57.6391883 C90.0752314,57.6391883 88.6435161,59.0699845 88.6435161,60.8288708 C88.6435161,62.5877571 90.0752314,64.0185533 91.834846,64.0185533 C93.5944606,64.0185533 95.0261759,62.5876329 95.0261759,60.8288708 C95.0261759,59.0701088 93.594585,57.6391883 91.834846,57.6391883 L91.834846,57.6391883 Z M68.8050457,36.694982 C67.0882059,36.694982 65.6964056,35.3039544 65.6964056,33.5880677 L65.6964056,13.7831048 C65.6964056,12.0672181 67.0882059,10.6761905 68.8050457,10.6761905 C70.5218854,10.6761905 71.9136857,12.0672181 71.9136857,13.7831048 L71.9136857,33.5880677 C71.9136857,35.3040786 70.5217611,36.694982 68.8050457,36.694982 L68.8050457,36.694982 Z" id="形状" fill="#FFFFFF" fill-rule="nonzero"></path>
                        <path d="M22.0725234,43.1964286 C20.9576528,43.1964286 19.8791203,42.5963408 19.3166901,41.5417434 C18.5038884,40.0176156 19.0774324,38.1214683 20.5980171,37.3067058 L65.9320937,13.013039 C67.4521788,12.1984017 69.3441373,12.773079 70.1569389,14.2974572 C70.9698654,15.8215851 70.3961965,17.7177323 68.8756119,18.5324949 L23.5415353,42.8261616 C23.0898233,43.0691441 22.585164,43.1964286 22.0725234,43.1964286 L22.0725234,43.1964286 Z" id="路径" fill="#FFFFFF" fill-rule="nonzero"></path>
                        <path d="M23.0725955,77.9642857 C21.3756625,77.9642857 20,76.577121 20,74.8659994 L20,39.8347913 C20,38.1236697 21.3756625,36.7365049 23.0725955,36.7365049 C24.7695286,36.7365049 26.145191,38.1236697 26.145191,39.8347913 L26.145191,74.8659994 C26.145191,76.577121 24.7695286,77.9642857 23.0725955,77.9642857 Z M49.5589834,22.3406305 C47.8620504,22.3406305 46.4863879,24.886799 46.4863879,23.1756775 L46.4863879,3.09828633 C46.4863879,1.38716475 47.8620504,0 49.5589834,0 C51.2559165,0 52.6315789,1.38716475 52.6315789,3.09828633 L52.6315789,23.1758014 C52.6315789,24.886923 51.2559165,22.3406305 49.5589834,22.3406305 Z" id="形状" fill="#FFFFFF" fill-rule="nonzero"></path>
                        <path d="M6.26317964,28.4464286 C5.12827628,28.4464286 4.03494219,27.7987062 3.48982624,26.6766987 C2.71949165,25.0910773 3.3355856,23.1587097 4.86595551,22.3605635 L47.0813579,0.343915339 C48.6114796,-0.454230905 50.4767614,0.184106096 51.247096,1.76972749 C52.0173065,3.35534888 51.4012125,5.28771648 49.8708426,6.08586272 L7.65556437,28.1025109 C7.22382681,28.3285225 6.74689515,28.4464286 6.26317964,28.4464286 L6.26317964,28.4464286 Z" id="路径" fill="#FFFFFF" fill-rule="nonzero"></path>
                    </g>
                </g>
            </g>
        </g>
    </g>
</svg>