<?xml version="1.0" encoding="UTF-8"?>
<svg width="14px" height="14px" viewBox="0 0 14 14" version="1.1" xmlns="http://www.w3.org/2000/svg" xmlns:xlink="http://www.w3.org/1999/xlink">
    <title>形状备份 2</title>
    <g id="githuab-v1.0" stroke="none" stroke-width="1" fill="none" fill-rule="evenodd">
        <path d="M10.4979259,3.5 L10.5,3.50207408 L10.5,12.8312593 L10.4979259,12.8333333 L1.16874074,12.8333333 L1.16666667,12.8312593 L1.16666667,3.50207408 L1.16874074,3.5 L10.4979259,3.5 Z M10.5,2.33333333 L1.16666667,2.33333333 C0.523043887,2.33504284 0.00170950182,2.85637722 0,3.5 L0,12.8333333 C0.00207407812,13.4762963 0.522666667,13.9979259 1.16666667,14 L10.5,14 C11.1436228,13.9982905 11.6649572,13.4769561 11.6666667,12.8333333 L11.6666667,3.5 C11.6649572,2.85637722 11.1436228,2.33504284 10.5,2.33333333 Z M9.33333333,5.83333333 L2.33333333,5.83333333 L2.33333333,7 L9.33333333,7 L9.33333333,5.83333333 Z M9.33333333,9.33333333 L2.33333333,9.33333333 L2.33333333,10.5 L9.33333333,10.5 L9.33333333,9.33333333 Z M12.8333333,0 L3.5,0 C2.85637722,0.00170950182 2.33504284,0.523043887 2.33333333,1.16666667 L2.33333333,1.75051851 L3.5,1.75051851 L3.5,1.16874074 L3.50207408,1.16666667 L12.8312593,1.16666667 L12.8333333,1.16874074 L12.8333333,10.4979259 L12.8312593,10.5 L12.2505185,10.5 L12.2505185,11.6666667 L12.8333333,11.6666667 C13.4769561,11.6649572 13.9982905,11.1436228 14,10.5 L14,1.16666667 C13.9982905,0.523043887 13.4769561,0.00170950182 12.8333333,0 L12.8333333,0 Z" id="形状备份-2" fill="#666666" fill-rule="nonzero"></path>
    </g>
</svg>