<?xml version="1.0" encoding="UTF-8"?>
<svg width="28px" height="32px" viewBox="0 0 28 32" version="1.1" xmlns="http://www.w3.org/2000/svg" xmlns:xlink="http://www.w3.org/1999/xlink">
    <title>编组 19</title>
    <g id="githuab-v1.0" stroke="none" stroke-width="1" fill="none" fill-rule="evenodd">
        <g id="备份任务" transform="translate(-244.000000, -236.000000)" fill-rule="nonzero">
            <g id="编组-19" transform="translate(244.000000, 236.000000)">
                <g id="编组" fill="#D4D4D4">
                    <path d="M25.6666667,17.6063661 C25.6666667,24.3233953 20.5333333,29.601061 14,29.601061 C7.46666667,29.601061 2.33333333,24.3233953 2.33333333,17.6063661 C2.33333333,10.889337 7.46666667,5.6116712 14,5.6116712 L14,7.77071628 C14,8.25050408 14.7,8.73029187 14.9333333,8.25050408 L18.4333333,4.6520956 C18.6666667,4.41220171 18.6666667,3.93241391 18.4333333,3.69252001 L14.9333333,0.0941115387 C14.7,-0.14578236 14,0.0941115387 14,0.573899335 L14,3.21273222 C6.3,3.21273222 0,9.68986747 0,17.6063661 C0,25.5228647 6.3,32 14,32 C21.7,32 28,25.5228647 28,17.6063661 L25.6666667,17.6063661 Z" id="路径"></path>
                </g>
                <g id="编组" transform="translate(6.125000, 11.555556)" fill="#575757">
                    <path d="M14.7841925,0 L0.778115397,0 C0.34837413,0 0,0.357790152 0,0.799146671 L0,3.19658668 C0,3.6379432 0.34837413,3.99573336 0.778115397,3.99573336 L14.7841925,3.99573336 C15.2139338,3.99573336 15.5623079,3.6379432 15.5623079,3.19658668 L15.5623079,0.799146671 C15.5623079,0.357790152 15.2139338,0 14.7841925,0 Z M3.73860237,2.79701335 L1.55623079,2.79701335 L1.55623079,1.19872001 L3.73860237,1.19872001 L3.73860237,2.79701335 Z M6.80623079,2.79701335 L4.62385922,2.79701335 L4.62385922,1.19872001 L6.80623079,1.19872001 L6.80623079,2.79701335 Z M14.7841925,5.99360003 L0.778115397,5.99360003 C0.34837413,5.99360003 0,6.35139019 0,6.79274671 L0,9.19018672 C0,9.63154324 0.34837413,9.98933339 0.778115397,9.98933339 L14.7841925,9.98933339 C15.2139338,9.98933339 15.5623079,9.63154324 15.5623079,9.19018672 L15.5623079,6.79274671 C15.5623079,6.35139019 15.2139338,5.99360003 14.7841925,5.99360003 Z M3.73860237,8.79061338 L1.55623079,8.79061338 L1.55623079,7.19232004 L3.73860237,7.19232004 L3.73860237,8.79061338 Z M6.80623079,8.79061338 L4.62385922,8.79061338 L4.62385922,7.19232004 L6.80623079,7.19232004 L6.80623079,8.79061338 Z" id="形状"></path>
                </g>
            </g>
        </g>
    </g>
</svg>