<?xml version="1.0" encoding="UTF-8"?>
<svg width="48px" height="16px" viewBox="0 0 48 16" version="1.1" xmlns="http://www.w3.org/2000/svg" xmlns:xlink="http://www.w3.org/1999/xlink">
    <title>合并形状</title>
    <g id="-Zeus-V0.1.0" stroke="none" stroke-width="1" fill="none" fill-rule="evenodd">
        <g id="系统资源池" transform="translate(-552.000000, -257.000000)" fill="#F4F6FB" fill-rule="nonzero">
            <g id="编组-12" transform="translate(552.000000, 257.000000)">
                <path d="M31,28.0816327 C31.5522847,28.0816327 32,28.5293479 32,29.0816327 L32,31 C32,31.5522847 31.5522847,32 31,32 L17,32 C16.4477153,32 16,31.5522847 16,31 L16,29.0816327 C16,28.5293479 16.4477153,28.0816327 17,28.0816327 L31,28.0816327 Z M31,23.1836735 C31.5522847,23.1836735 32,23.6313887 32,24.1836735 L32,26.1020408 C32,26.6543256 31.5522847,27.1020408 31,27.1020408 L17,27.1020408 C16.4477153,27.1020408 16,26.6543256 16,26.1020408 L16,24.1836735 C16,23.6313887 16.4477153,23.1836735 17,23.1836735 L31,23.1836735 Z M31,18.2857143 C31.5522847,18.2857143 32,18.7334295 32,19.2857143 L32,21.2040816 C32,21.7563664 31.5522847,22.2040816 31,22.2040816 L17,22.2040816 C16.4477153,22.2040816 16,21.7563664 16,21.2040816 L16,19.2857143 C16,18.7334295 16.4477153,18.2857143 17,18.2857143 L31,18.2857143 Z M31,13.3877551 C31.5522847,13.3877551 32,13.8354704 32,14.3877551 L32,16.3061224 C32,16.8584072 31.5522847,17.3061224 31,17.3061224 L17,17.3061224 C16.4477153,17.3061224 16,16.8584072 16,16.3061224 L16,14.3877551 C16,13.8354704 16.4477153,13.3877551 17,13.3877551 L31,13.3877551 Z M31,8.48979592 C31.5522847,8.48979592 32,8.93751117 32,9.48979592 L32,11.4081633 C32,11.960448 31.5522847,12.4081633 31,12.4081633 L17,12.4081633 C16.4477153,12.4081633 16,11.960448 16,11.4081633 L16,9.48979592 C16,8.93751117 16.4477153,8.48979592 17,8.48979592 L31,8.48979592 Z M31,3.59183673 C31.5522847,3.59183673 32,4.03955198 32,4.59183673 L32,6.51020408 C32,7.06248883 31.5522847,7.51020408 31,7.51020408 L17,7.51020408 C16.4477153,7.51020408 16,7.06248883 16,6.51020408 L16,4.59183673 C16,4.03955198 16.4477153,3.59183673 17,3.59183673 L31,3.59183673 Z M31,-1.30612245 C31.5522847,-1.30612245 32,-0.858407199 32,-0.306122449 L32,1.6122449 C32,2.16452965 31.5522847,2.6122449 31,2.6122449 L17,2.6122449 C16.4477153,2.6122449 16,2.16452965 16,1.6122449 L16,-0.306122449 C16,-0.858407199 16.4477153,-1.30612245 17,-1.30612245 L31,-1.30612245 Z M31,-6.20408163 C31.5522847,-6.20408163 32,-5.75636638 32,-5.20408163 L32,-3.28571429 C32,-2.73342954 31.5522847,-2.28571429 31,-2.28571429 L17,-2.28571429 C16.4477153,-2.28571429 16,-2.73342954 16,-3.28571429 L16,-5.20408163 C16,-5.75636638 16.4477153,-6.20408163 17,-6.20408163 L31,-6.20408163 Z M31,-11.1020408 C31.5522847,-11.1020408 32,-10.6543256 32,-10.1020408 L32,-8.18367347 C32,-7.63138872 31.5522847,-7.18367347 31,-7.18367347 L17,-7.18367347 C16.4477153,-7.18367347 16,-7.63138872 16,-8.18367347 L16,-10.1020408 C16,-10.6543256 16.4477153,-11.1020408 17,-11.1020408 L31,-11.1020408 Z M31,-16 C31.5522847,-16 32,-15.5522847 32,-15 L32,-13.0816327 C32,-12.5293479 31.5522847,-12.0816327 31,-12.0816327 L17,-12.0816327 C16.4477153,-12.0816327 16,-12.5293479 16,-13.0816327 L16,-15 C16,-15.5522847 16.4477153,-16 17,-16 L31,-16 Z" id="合并形状" transform="translate(24.000000, 8.000000) rotate(-270.000000) translate(-24.000000, -8.000000) "></path>
            </g>
        </g>
    </g>
</svg>