<?xml version="1.0" encoding="UTF-8"?>
<svg width="16px" height="16px" viewBox="0 0 16 16" version="1.1" xmlns="http://www.w3.org/2000/svg" xmlns:xlink="http://www.w3.org/1999/xlink">
    <title>编组</title>
    <g id="Zeus-V0.2.0（1.0组件样式）" stroke="none" stroke-width="1" fill="none" fill-rule="evenodd">
        <g id="V0.2.0实例可视化展示" transform="translate(-275.000000, -408.000000)" fill="#FFFFFF" fill-rule="nonzero">
            <g id="编组" transform="translate(275.000000, 408.000000)">
                <path d="M9.34683321,16 C9.22751293,16 9.11064834,15.9639895 9.0088919,15.8958714 L9.0007117,15.8901003 C8.86833239,15.7925433 8.77844779,15.6480675 8.75408611,15.4937343 C8.72614659,15.3326961 8.76122547,15.1686889 8.85315917,15.0336535 C8.94501155,14.8987517 9.08306661,14.8087337 9.24188926,14.7801621 L9.2459387,14.7794949 C9.37095097,14.7597467 9.497248,14.7324594 9.64390607,14.6935801 L9.65193989,14.6915785 C9.68882395,14.6824717 9.73445743,14.6712132 9.78916554,14.6712132 C10.0693088,14.6712132 10.3058677,14.8571869 10.3778307,15.1339793 L10.3790829,15.1390331 C10.4153978,15.2979198 10.3904506,15.4619103 10.3092016,15.6024664 L10.3041113,15.6108561 C10.2185364,15.7451909 10.0781883,15.8462505 9.92863543,15.8811769 C9.78189604,15.9180047 9.62617958,15.9484277 9.46641368,15.9788007 C9.44571111,15.9846551 9.42772444,15.9876574 9.41546228,15.9897089 C9.41351074,15.9900425 9.41165677,15.9903427 9.40998171,15.9906429 L9.38165189,15.9999833 L9.34683321,15.9999833 L9.34683321,16 Z" id="路径"></path>
                <path d="M15.0288985,6.33740273 C14.8896074,6.33740273 14.7695228,6.29528759 14.6718971,6.21225822 C14.566758,6.12831149 14.4928272,6.02354905 14.4578947,5.90907925 C14.4165547,5.78401814 14.3663513,5.65395324 14.3177906,5.52817492 L14.3164245,5.5245722 C14.2510317,5.38443303 14.2503975,5.20753277 14.3149446,5.05024732 C14.3750031,4.90387011 14.4938518,4.78583096 14.6413393,4.72588568 C14.7104562,4.69319433 14.7857531,4.67728231 14.8713605,4.67728231 C15.1221982,4.67728231 15.343958,4.82751244 15.4363308,5.06002136 C15.4962755,5.21085193 15.5480075,5.35811314 15.6046184,5.5211863 C15.656513,5.67763778 15.645617,5.84334626 15.5744997,5.98933984 C15.5025042,6.13713479 15.3780286,6.24790178 15.2238408,6.30147557 C15.1643352,6.32464309 15.0952345,6.33740273 15.0288985,6.33740273 Z" id="路径"></path>
                <path d="M11.7048602,15.1188679 C11.5824988,15.1188679 11.4638128,15.078771 11.3614709,15.0028636 C11.286483,14.9514415 11.228376,14.888227 11.1838484,14.8096677 C11.1036402,14.6714133 11.0813926,14.5008178 11.1233182,14.3426483 C11.1659918,14.1818102 11.2680898,14.0488932 11.4108122,13.9684157 L11.4141136,13.9665977 C11.5252374,13.9072696 11.6371093,13.8384342 11.7572427,13.7556384 C11.8521363,13.6852352 11.971668,13.6464893 12.094127,13.6464893 C12.289232,13.6464893 12.4766447,13.7463313 12.5954445,13.9135576 L12.6016081,13.9221975 L12.6070237,13.9315879 C12.6915415,14.0778317 12.7190419,14.2418222 12.6844347,14.3933199 C12.6512748,14.5467525 12.5639272,14.6793193 12.4320846,14.7753251 L12.4274659,14.7786943 L12.4227497,14.7817633 C12.3308973,14.8417253 12.232426,14.9011868 12.1372072,14.9586969 C12.0947287,14.9843663 12.0537627,15.0091016 12.0134472,15.033837 C11.924083,15.0900461 11.8199034,15.1188679 11.7048602,15.1188679 Z" id="路径"></path>
                <path d="M15.3882904,8.83802456 C15.2652785,8.83802456 15.1449174,8.79881161 15.049227,8.72757447 C14.892177,8.61395533 14.7959987,8.43310208 14.7852977,8.23121629 L14.7846472,8.21885695 L14.7852977,8.20654766 C14.7924046,8.07217951 14.7924046,7.93597665 14.7852977,7.80165855 L14.7851677,7.79888979 C14.7792805,7.63523286 14.8361516,7.47954862 14.9452913,7.35935785 C15.0554069,7.23808293 15.2047971,7.16816345 15.3658965,7.16249251 L15.388323,7.16235908 C15.7152869,7.16235908 15.980387,7.4207709 15.9922589,7.75063669 C16,7.91175837 16,8.07536526 16,8.23356808 C16,8.56121552 15.723337,8.83799121 15.3958689,8.83799121 L15.3882904,8.83799119 L15.3882904,8.83802456 Z" id="路径"></path>
                <path d="M13.6432903,13.5001955 C13.5220185,13.5001955 13.4090082,13.4670871 13.3073005,13.4017545 C13.2775396,13.3850252 13.2570322,13.3673952 13.2421679,13.3532011 C13.1231566,13.2518246 13.0492422,13.109784 13.0339226,12.9528488 C13.0177573,12.7875239 13.0671638,12.6245675 13.1730835,12.4940189 L13.1760596,12.4904162 C13.2700424,12.3809669 13.3570647,12.2715509 13.435728,12.1639196 L13.4378909,12.1610341 C13.5578129,12.0040155 13.7334676,11.9144979 13.9205063,11.9144979 C14.059163,11.9144979 14.1861756,11.9568132 14.287867,12.0368904 C14.5465596,12.2379922 14.6039836,12.6315895 14.4127004,12.8959892 L14.4106025,12.898858 C14.3180345,13.0211337 14.2140664,13.1584874 14.1009747,13.2885857 L14.097771,13.2922051 C13.9778164,13.4243882 13.8121634,13.5001955 13.6432903,13.5001955 Z" id="路径"></path>
                <path d="M14.9096595,11.3153621 C14.8405425,11.3153621 14.7717671,11.3039035 14.7051871,11.2813531 L14.6922094,11.2769498 L14.6799797,11.271012 C14.6371598,11.2502129 14.6021296,11.2319491 14.5699618,11.2101827 C14.3428191,11.0535644 14.2523815,10.7572406 14.3492917,10.4890214 L14.3504138,10.4859858 C14.3992835,10.3592734 14.4404122,10.2362972 14.4891356,10.0885356 C14.5711978,9.83025724 14.7979502,9.66259729 15.0664005,9.66259729 C15.1113835,9.66259729 15.1791669,9.66259729 15.253244,9.69098539 C15.4068626,9.74435904 15.5355502,9.85934588 15.60657,10.0068072 C15.6762399,10.1513664 15.6866155,10.3131886 15.6357617,10.462418 C15.5867293,10.6110636 15.5331759,10.7650966 15.4769391,10.9191796 L15.47502,10.9242334 C15.3797687,11.16243 15.1580903,11.3153621 14.9096595,11.3153621 Z" id="路径"></path>
                <path d="M6.6892614,16 C6.66177725,16 6.62077869,16 6.57316116,15.9873071 C5.43453637,15.785955 4.36584167,15.3358484 3.39661037,14.64943 C3.04814701,14.4034609 2.70397704,14.1145761 2.37382561,13.790915 L2.36297832,13.77989 C1.18392417,12.6086055 0.409147367,11.1113247 0.1233609,9.45097079 C0.0929657015,9.29752157 0.0698724997,9.13691695 0.0546830295,8.9734268 L0.0472346636,8.94405463 L0.0455433282,8.92625785 C0.0291504042,8.7549785 0.0149529709,8.60081206 0.00727693009,8.44863048 L0.00698419164,8.44265929 L0.00698419164,8.41915822 C-0.0615798413,6.74025697 0.375743542,5.11561335 1.27188975,3.72020954 L1.2865263,3.69097079 L1.29246223,3.681547 C1.34520254,3.59771703 1.3976176,3.51543823 1.45860315,3.43050741 C1.48312748,3.38894269 1.50983103,3.35238175 1.53381867,3.31982382 L1.53381867,3.31960699 L1.59130772,3.2342592 L1.59449523,3.22998931 C2.69807365,1.74726955 4.21864693,0.721961902 5.99199317,0.264733263 L6.01308604,0.257778005 L6.01879428,0.256243515 C6.20539383,0.205655306 6.39509958,0.169094364 6.57857667,0.133734329 L6.62583642,0.12461078 C7.07321022,0.041864941 7.54005062,0 8.0142418,0 C9.59445083,0 11.1302299,0.471222543 12.455568,1.36269578 L12.4921919,1.38684735 L13.2292553,0.31735632 L13.9151883,2.80101533 C13.9493402,2.90099083 13.9365089,3.01107397 13.8805485,3.09637172 C13.8227993,3.18211981 13.7234985,3.23709466 13.6199044,3.24166477 L11.0745623,3.4912199 L11.8106661,2.41352269 L11.7779941,2.39163949 C10.6647556,1.64219017 9.3659583,1.24612439 8.0218203,1.24612439 C6.62947931,1.24612439 5.29010632,1.66487396 4.14850543,2.45712229 L4.12427384,2.47358472 C3.47312695,2.92962913 2.912938,3.49081961 2.46060403,4.14062703 C1.41633609,5.62940136 1.01244906,7.43773369 1.32308512,9.2328227 C1.6342741,11.0311308 2.61983326,12.5996153 4.09822082,13.6493748 C4.30630355,13.7970029 4.50236805,13.9218139 4.69721286,14.0306461 L4.7060273,14.0306461 L4.7581659,14.0621532 C4.85491339,14.1205806 4.97140394,14.1763728 5.07670568,14.2261937 L5.11923295,14.2261937 L5.16328891,14.2714446 C5.69308266,14.5160793 6.24104198,14.6894269 6.79231892,14.786717 C6.94411604,14.8110354 7.08610668,14.9012702 7.1820573,15.0344208 L7.18620432,15.0401918 L7.18999355,15.0461963 C7.27295018,15.1780459 7.30511803,15.3309113 7.28311443,15.488447 L7.28239888,15.4931172 C7.23369169,15.7872894 6.98430141,16 6.6892614,16 Z" id="路径"></path>
                <path d="M12.094127,11.0743968 C12.0083243,11.0743968 11.9366866,11.0562998 11.8689683,11.0174705 L7.12575539,8.5463376 L7.12575539,3.32312632 C7.12575539,3.05689192 7.34743384,2.83197206 7.60983436,2.83197206 C7.87221863,2.83197206 8.09389708,3.05689192 8.09389708,3.32312632 L8.09389708,7.95060436 L12.3146507,10.1466295 C12.4310275,10.2083594 12.5190093,10.3156905 12.5568366,10.4414688 C12.594111,10.5653624 12.5818976,10.6963113 12.5224407,10.8101973 C12.4408502,10.9725532 12.2764169,11.0743968 12.094127,11.0743968 Z" id="路径"></path>
            </g>
        </g>
    </g>
</svg>