<?xml version="1.0" standalone="no"?><!DOCTYPE svg PUBLIC "-//W3C//DTD SVG 1.1//EN" "http://www.w3.org/Graphics/SVG/1.1/DTD/svg11.dtd"><svg t="1646113622481" class="icon" viewBox="0 0 1064 1024" version="1.1" xmlns="http://www.w3.org/2000/svg" p-id="3905" xmlns:xlink="http://www.w3.org/1999/xlink" width="12.46875" height="12"><defs><style type="text/css"></style></defs><path d="M1029.825829 639.009994a33.216994 33.216994 0 0 1-33.216994-33.217995V418.78003a33.216994 33.216994 0 1 1 66.433989 0v187.012969a33.216994 33.216994 0 0 1-33.216995 33.217995z m-329.848945 384.656936a33.216994 33.216994 0 0 1-16.607997-62.11599l161.767973-93.340984a33.216994 33.216994 0 1 1 33.217994 57.46599l-161.768973 93.339985a33.216994 33.216994 0 0 1-16.608997 4.650999z m-336.823944 0a33.216994 33.216994 0 0 1-16.608998-4.317999l-161.767973-93.340985a33.216994 33.216994 0 1 1 33.216995-57.46599l161.768973 93.339984A33.216994 33.216994 0 0 1 363.15294 1023.99993zM33.303994 639.009994A33.216994 33.216994 0 0 1 0.087 605.791999V418.78003a33.216994 33.216994 0 0 1 66.434989 0v187.012969a33.216994 33.216994 0 0 1-33.217995 33.217995z m168.412973-478.329921a33.216994 33.216994 0 0 1-16.940998-60.45599l162.099973-95.001984a33.216994 33.216994 0 0 1 33.217995 57.465991l-162.099973 93.672984a33.216994 33.216994 0 0 1-16.276997 4.317999z m660.02989 0a33.216994 33.216994 0 0 1-16.609997-4.318999l-162.099973-93.672984a33.216994 33.216994 0 1 1 33.216994-57.465991l162.099973 95.001984a33.216994 33.216994 0 0 1-16.607997 62.11599z" fill="#999999" p-id="3906"></path><path d="M699.312884 1023.99993a33.216994 33.216994 0 0 1-29.895995-18.601997 153.795974 153.795974 0 0 0-276.035954 0 33.216994 33.216994 0 0 1-59.45999-29.231995 220.230963 220.230963 0 0 1 395.287934 0A33.216994 33.216994 0 0 1 699.312884 1023.99993zM531.564912 171.972071A218.902964 218.902964 0 0 1 332.260945 48.737092a33.216994 33.216994 0 1 1 61.11999-29.563995 152.799975 152.799975 0 0 0 138.183977 86.365985A152.799975 152.799975 0 0 0 669.749889 19.173097a33.216994 33.216994 0 1 1 59.78999 29.231995 218.569964 218.569964 0 0 1-197.974967 123.567979z m485.637919 280.022954a220.230963 220.230963 0 0 1-182.69497-342.802943 33.216994 33.216994 0 0 1 55.139991 37.202994 153.795974 153.795974 0 0 0 132.869978 239.49696 33.216994 33.216994 0 0 1 33.217995 33.217994 33.216994 33.216994 0 0 1-33.217995 33.216995z m-816.149864 478.66192a33.216994 33.216994 0 0 1-27.570996-51.818991A153.795974 153.795974 0 0 0 35.297994 639.673994 33.216994 33.216994 0 0 1 0.088 608.449999a33.216994 33.216994 0 0 1 30.890995-35.542994 219.899963 219.899963 0 0 1 205.615966 109.617982 218.569964 218.569964 0 0 1-7.971999 232.520961 33.216994 33.216994 0 0 1-27.569995 15.611997zM46.589992 451.996025h-15.279997a33.216994 33.216994 0 1 1 4.649999-66.434989 153.795974 153.795974 0 0 0 138.184977-239.16496 33.216994 33.216994 0 1 1 54.476991-37.202994 218.902964 218.902964 0 0 1 7.971999 232.520961A218.569964 218.569964 0 0 1 46.589992 451.996025z m815.486865 478.66192a33.216994 33.216994 0 0 1-27.569996-14.614997 220.230963 220.230963 0 0 1 199.303967-342.470943 33.216994 33.216994 0 1 1-4.317999 66.433989A153.795974 153.795974 0 0 0 891.309852 879.171954a33.216994 33.216994 0 0 1-29.231995 51.485991zM531.564912 701.125984A189.006969 189.006969 0 1 1 720.57188 512.120015a189.006969 189.006969 0 0 1-189.006968 189.006969z m0-311.246949a122.57198 122.57198 0 1 0 122.571979 122.57298 122.57198 122.57198 0 0 0-122.571979-122.57298z" fill="#999999" p-id="3907"></path></svg>