<?xml version="1.0" encoding="UTF-8"?>
<svg width="12px" height="12px" viewBox="0 0 12 12" version="1.1" xmlns="http://www.w3.org/2000/svg" xmlns:xlink="http://www.w3.org/1999/xlink">
    <title>编组 28</title>
    <g id="Zeus-V0.2.0（1.0组件样式）" stroke="none" stroke-width="1" fill="none" fill-rule="evenodd">
        <g id="V0.2.0插拔工具" transform="translate(-320.000000, -449.000000)">
            <g id="编组-28" transform="translate(320.000000, 449.000000)">
                <g id="编组-2" fill="#0091FF">
                    <circle id="椭圆形" cx="6" cy="6" r="6"></circle>
                </g>
                <g id="编组" transform="translate(2.000000, 2.000000)" fill="#FFFFFF" fill-rule="nonzero">
                    <path d="M4.70863236,0.15259176 L7.38486775,1.58312603 C7.76550324,1.78657654 8,2.16256471 8,2.56946573 L8,5.43053427 C8,5.83743529 7.76550324,6.21342346 7.38486775,6.41687397 L4.70863236,7.84740824 C4.3279872,8.05086392 3.85901302,8.05086392 3.47836786,7.84740824 L0.802132473,6.41687397 C0.421496981,6.21342346 0.187011387,5.83743529 0.187000222,5.43053427 L0.192331371,5.43053427 C0.174340978,5.29051192 0.241659135,5.15279367 0.367154416,5.07288449 C0.492649697,4.9929753 0.655645556,4.98404098 0.790449311,5.04968235 C0.925253066,5.11532373 1.00965451,5.24472575 1.00963709,5.38573515 L1.00717656,5.43053427 C1.00714412,5.55023344 1.06808923,5.66293689 1.17162192,5.73463669 L1.21222064,5.75931417 L3.88845603,7.18984843 C3.99850272,7.24867481 4.13178953,7.25694788 4.24933361,7.21224799 L4.29854419,7.18946878 L6.97477958,5.75931417 C7.08676309,5.69945692 7.16169222,5.59420853 7.17695305,5.47533338 L7.17982366,5.43053427 L7.17982366,2.56946573 C7.17985611,2.44976656 7.11891099,2.33706311 7.01537831,2.26536331 L6.97477958,2.24068583 L4.29854419,0.810151569 C4.1884975,0.751325189 4.05521069,0.743052118 3.93766661,0.787752008 L3.88845603,0.810531216 L1.21222064,2.24068583 C1.10023713,2.30054308 1.02530801,2.40579147 1.01004717,2.52466662 L1.00717656,2.56946573 L1.00389585,2.56946573 L1.00553621,2.59528217 C1.00550878,2.78775692 0.849904829,2.94975852 0.643428352,2.97227806 L0.595448037,2.97493564 C0.368962598,2.97493563 0.185359876,2.80495899 0.185359876,2.59528217 L0.187000222,2.56946573 C0.187011387,2.16256471 0.421496981,1.78657654 0.802132473,1.58312603 L3.47836786,0.15259176 C3.85901302,-0.05086392 4.3279872,-0.05086392 4.70863236,0.15259176 Z M3.88940031,2.0231444 L5.86629521,3.6662846 C6.04456826,3.81453923 6.04456826,4.05485998 5.86629521,4.20311461 L3.88940031,5.84625481 C3.71108917,5.99449632 3.42198971,5.99449632 3.24367858,5.84625481 C3.06536745,5.6980133 3.06536745,5.45766632 3.24367858,5.30942481 L4.44104943,4.31473273 L0.456663201,4.31473273 C0.293513155,4.31473273 0.142756293,4.24237119 0.0611812686,4.124906 C-0.0203937562,4.0074408 -0.0203937562,3.86271771 0.0611812686,3.74525252 C0.142756293,3.62778732 0.293513155,3.55542578 0.456663201,3.55542579 L4.44104943,3.55542579 L3.24367858,2.55959475 C3.15773035,2.48854825 3.10940369,2.39194343 3.10940369,2.29117974 C3.10940369,2.19041606 3.15773035,2.09381124 3.24367858,2.02276474 C3.32925609,1.95149758 3.44541155,1.91144991 3.56653945,1.91144991 C3.68766734,1.91144991 3.8038228,1.95149758 3.88940031,2.02276474 L3.88940031,2.0231444 Z" id="形状"></path>
                </g>
            </g>
        </g>
    </g>
</svg>