<?xml version="1.0" encoding="UTF-8"?>
<svg width="55px" height="60px" viewBox="0 0 55 60" version="1.1" xmlns="http://www.w3.org/2000/svg" xmlns:xlink="http://www.w3.org/1999/xlink">
    <title>编组</title>
    <defs>
        <path d="M2.08,0 L275.92,0 C277.068752,-2.1102237e-16 278,0.93124772 278,2.08 L278,108 L278,108 L0,108 L0,2.08 C-1.4068158e-16,0.93124772 0.93124772,1.26455202e-14 2.08,0 Z" id="path-1"></path>
        <polygon id="path-3" points="0 0 55 0 55 17.3684211 0 17.3684211"></polygon>
        <polygon id="path-5" points="0 0 55 0 55 12.6315789 0 12.6315789"></polygon>
    </defs>
    <g id="githuab-v1.0" stroke="none" stroke-width="1" fill="none" fill-rule="evenodd">
        <g id="备份任务-新增04" transform="translate(-376.000000, -305.000000)">
            <rect fill="#FFFFFF" x="0" y="0" width="1440" height="853"></rect>
            <path d="M631.48,280.52 L631.48,543.48 L352.52,543.48 L352.52,280.52 L631.48,280.52 Z" id="Rectangle-5-Copy-5" stroke="#E9E9E9" stroke-width="1.04" fill="#FFFFFF"></path>
            <g id="编组-3" transform="translate(353.000000, 281.000000)">
                <g id="Group-8备份-2">
                    <mask id="mask-2" fill="white">
                        <use xlink:href="#path-1"></use>
                    </mask>
                    <path stroke="#F2F5F8" stroke-width="1.04" d="M275.92,0.52 C276.350782,0.52 276.740782,0.694608948 277.023087,0.976913421 C277.305391,1.2592179 277.48,1.6492179 277.48,2.08 L277.48,2.08 L277.48,107.48 L0.52,107.48 L0.52,2.08 C0.52,1.6492179 0.694608948,1.2592179 0.976913421,0.976913421 C1.2592179,0.694608948 1.6492179,0.52 2.08,0.52 L2.08,0.52 Z"></path>
                </g>
                <g id="编组" transform="translate(23.000000, 24.000000)">
                    <g transform="translate(0.000000, 42.631579)">
                        <mask id="mask-4" fill="white">
                            <use xlink:href="#path-3"></use>
                        </mask>
                        <g id="Clip-2"></g>
                        <path d="M45.831441,6.43806332 C44.4498032,6.43486389 43.3481731,7.45445164 43.3355528,8.74815906 C43.3227697,10.0575195 44.4287151,11.1075735 45.8212634,11.1083374 C47.2138931,11.1090243 48.3295276,10.0611083 48.323769,8.75770361 C48.3180472,7.47231905 47.2103106,6.44127784 45.831441,6.43806332 M0.0112035694,0.0678045321 C1.05453597,0.531746353 2.03598818,1.01493 3.05538272,1.41259442 C5.93224112,2.53495795 8.95060972,3.19406687 12.0088748,3.68969662 C18.0251752,4.6646922 24.0935039,4.97752459 30.1894344,4.82946943 C35.5616924,4.69897625 40.8962524,4.22266468 46.1461343,3.09220736 C48.9501207,2.48845687 51.6918197,1.7116063 54.2320011,0.405987272 C54.4654359,0.285954924 54.6947183,0.158821427 54.991336,0 L54.991336,0.45966586 C54.991336,3.90456369 54.9828682,7.34946151 54.9999929,10.794283 C55.002735,11.3476382 54.8332159,11.8157033 54.3934595,12.145945 C53.7941988,12.5959899 53.1771069,13.0445841 52.5057069,13.3869664 C50.3242678,14.4994036 47.9553968,15.1386599 45.5528174,15.666283 C41.9175197,16.4646661 38.2262855,16.9000506 34.5043556,17.1411079 C30.6187688,17.3928551 26.7307394,17.4359202 22.8422215,17.2683177 C17.499438,17.0380267 12.2032274,16.4797846 7.0473871,15.0667321 C5.09506743,14.5317024 3.18345841,13.8910717 1.47532119,12.8194089 C1.18407724,12.6366879 0.912374395,12.4218972 0.654187488,12.1989363 C0.205393343,11.8112746 -0.00394079039,11.3464165 -7.0874758e-06,10.7464075 C0.0230096562,7.32708907 0.0112035694,3.90754159 0.0112035694,0.488146817 C0.0112035694,0.349712564 0.0112035694,0.211354668 0.0112035694,0.0678045321" id="Fill-1" fill="#575757" mask="url(#mask-4)"></path>
                    </g>
                    <path d="M45.8356095,37.9480153 C47.2274963,37.9433384 48.3375695,36.8886945 48.3246229,35.5833234 C48.3119205,34.3033994 47.1881678,33.2653382 45.8191616,33.2689206 C44.4296362,33.2725979 43.3209472,34.32984 43.3363366,35.6365867 C43.3515632,36.9302659 44.4569952,37.952585 45.8356095,37.9480153 M0.00968916541,26.8421053 C4.10392389,29.0579197 8.54315828,30.0019868 13.0636553,30.6794318 C19.8243294,31.6926571 26.6274261,31.8982978 33.4548691,31.5289699 C38.4289059,31.2599024 43.3569373,30.6866915 48.1723573,29.4411556 C49.3443953,29.1380056 50.5068251,28.7811339 51.6367661,28.361523 C52.7652415,27.9425235 53.8475486,27.4139407 54.9751283,26.9224969 C54.9791996,26.9928778 54.9918205,27.1096444 54.9918205,27.226411 C54.9929605,30.7126736 54.9865279,34.1989361 54.9999817,37.6851222 C55.0019173,38.1955176 54.8503845,38.6458485 54.4393488,38.9385291 C53.6886876,39.4732254 52.9296395,40.0233581 52.0963314,40.4249344 C49.829691,41.5174815 47.3815532,42.1351677 44.9058123,42.6493076 C41.1933815,43.4202117 37.428757,43.8304995 33.636855,44.0411838 C30.0204248,44.2421629 26.4021219,44.2640185 22.7839818,44.1079731 C17.5346456,43.8815467 12.3325361,43.3324075 7.26168447,41.9683474 C5.22759517,41.4212714 3.23438146,40.7680509 1.45784088,39.6498273 C1.16698916,39.4668063 0.89893656,39.2478689 0.639433635,39.0258748 C0.197293414,38.6476825 -0.00325748194,38.18864 3.9985121e-05,37.6053419 C0.0193787946,34.1573647 0.00968916541,30.7092348 0.00968916541,27.2611812 C0.00968916541,27.1378427 0.00968916541,27.0145805 0.00968916541,26.8421053" id="Fill-3" fill="#575757"></path>
                    <path d="M43.331048,19.8377028 C43.3334129,21.1239392 44.4360094,22.1657196 45.8069679,22.1769388 C47.1833001,22.188158 48.3220473,21.1233286 48.3191218,19.8278575 C48.3162664,18.5488716 47.1999913,17.4968641 45.8368492,17.4885452 C44.4539219,17.4800735 43.3286905,18.5349812 43.331048,19.8377028 M0.00703807805,11.0526316 C1.55003807,11.9370383 3.12707184,12.5646252 4.75784313,13.0807072 C7.39432051,13.9152 10.1026108,14.4672292 12.8442834,14.8853152 C16.2983041,15.4120058 19.7767509,15.7618608 23.2722146,15.8319998 C26.5619287,15.8980173 29.8579122,15.8775633 33.1461607,15.7662875 C36.7893212,15.6428765 40.4091955,15.230591 43.9927562,14.581329 C47.1355877,14.0118986 50.2276942,13.2786836 53.1385587,11.9909972 C53.7473398,11.721737 54.3342188,11.4088976 54.9678332,11.0980425 C54.9748353,11.2452656 54.9864785,11.3779113 54.9865599,11.5105571 C54.9874555,14.9279786 54.9719856,18.3455527 54.999917,21.7627452 C55.005368,22.4399407 54.7422169,22.9351108 54.2326874,23.3619736 C53.2996084,24.1437287 52.1947322,24.6535524 51.0560664,25.1013272 C48.2945271,26.1872975 45.4003539,26.8303775 42.4622135,27.3138705 C36.336379,28.3218408 30.1561555,28.5431714 23.9554141,28.3653437 C19.1689469,28.2280424 14.4141522,27.7883576 9.73556714,26.7832875 C7.19785283,26.2381272 4.69482366,25.5788672 2.39729985,24.3956641 C1.72891892,24.0514567 1.12437167,23.5862045 0.53122329,23.1300344 C0.14113765,22.8300169 -0.00183675702,22.3985747 1.77838504e-05,21.9047784 C0.0130631954,18.4366035 0.00703807805,14.9683523 0.00703807805,11.5001011 C0.00703807805,11.3749348 0.00703807805,11.2497685 0.00703807805,11.0526316" id="Fill-5" fill="#575757"></path>
                    <g>
                        <mask id="mask-6" fill="white">
                            <use xlink:href="#path-5"></use>
                        </mask>
                        <g id="Clip-8"></g>
                        <path d="M29.0035737,12.6315789 C24.2343553,12.6343153 20.3765758,12.4936366 16.5329639,12.1013715 C12.8136834,11.7218323 9.12379641,11.1831811 5.5452134,10.10719 C4.08417511,9.66795487 2.65228594,9.15614374 1.40107243,8.28970519 C1.07595396,8.06457308 0.765817152,7.80195751 0.509988893,7.50864562 C-0.179086397,6.71863939 -0.165488905,5.88428544 0.524156339,5.09474196 C1.16112148,4.36551137 2.00701575,3.9019814 2.89036418,3.50208075 C4.98071393,2.5557392 7.20443309,2.00127715 9.45990687,1.55548626 C14.0477983,0.648710578 18.6959421,0.242485561 23.3729094,0.0767408186 C26.8834235,-0.0476641466 30.3925535,-0.0252203494 33.8981008,0.176002561 C38.9346281,0.465072499 43.9369581,0.991614779 48.8040459,2.33099272 C50.4836211,2.79321154 52.132256,3.34412578 53.571066,4.32579125 C53.8869838,4.54128255 54.1851515,4.79541421 54.4382929,5.07499759 C55.1675093,5.88050624 55.2075689,6.76776894 54.4357688,7.53579413 C53.9130389,8.05601204 53.276318,8.50835868 52.6132163,8.86044093 C50.719501,9.86578421 48.6382705,10.4053609 46.5383944,10.8634149 C42.4890287,11.7465898 38.3767238,12.2081145 34.2329085,12.4239143 C32.1902722,12.5302717 30.1447046,12.5872682 29.0035737,12.6315789" id="Fill-7" fill="#575757" mask="url(#mask-6)"></path>
                    </g>
                    <path d="M46.358877,48.9473684 C47.6619965,48.9506288 48.7088782,49.996366 48.7142857,51.3000718 C48.7197279,52.6220547 47.6653822,53.6849072 46.3492585,53.6842105 C45.0332116,53.6834357 43.9880228,52.6184148 44.0001037,51.2903912 C44.0120307,49.9782439 45.0531412,48.9441234 46.358877,48.9473684" id="Fill-9" fill="#FFFFFF"></path>
                    <path d="M46.3620124,37.8947368 C45.0591943,37.899363 44.014539,36.8644268 44.0001496,35.5547816 C43.9856063,34.2319076 45.0333395,33.1616175 46.3464688,33.1578947 C47.640207,33.1542682 48.7021758,34.2051407 48.7141798,35.5008609 C48.7264146,36.8223424 47.6773732,37.8900023 46.3620124,37.8947368" id="Fill-11" fill="#FFFFFF"></path>
                    <path d="M44,19.7418353 C43.9977719,18.4256906 45.061241,17.3599133 46.3682614,17.3684722 C47.6565827,17.3768769 48.7115871,18.4397241 48.7142857,19.7318885 C48.7170506,21.040708 47.6408076,22.1165092 46.3400202,22.1051744 C45.0443117,22.0938396 44.0022351,21.0413248 44,19.7418353" id="Fill-13" fill="#FFFFFF"></path>
                </g>
            </g>
        </g>
    </g>
</svg>