<?xml version="1.0" encoding="UTF-8"?>
<svg width="80px" height="80px" viewBox="0 0 80 80" version="1.1" xmlns="http://www.w3.org/2000/svg" xmlns:xlink="http://www.w3.org/1999/xlink">
    <title>编组 23</title>
    <defs>
        <rect id="path-1" x="232" y="723" width="1184" height="376" rx="4"></rect>
        <filter x="-0.6%" y="-1.3%" width="101.2%" height="103.7%" filterUnits="objectBoundingBox" id="filter-2">
            <feOffset dx="0" dy="2" in="SourceAlpha" result="shadowOffsetOuter1"></feOffset>
            <feGaussianBlur stdDeviation="2" in="shadowOffsetOuter1" result="shadowBlurOuter1"></feGaussianBlur>
            <feComposite in="shadowBlurOuter1" in2="SourceAlpha" operator="out" result="shadowBlurOuter1"></feComposite>
            <feColorMatrix values="0 0 0 0 0.268566621   0 0 0 0 0.277546687   0 0 0 0 0.290647645  0 0 0 0.0656687063 0" type="matrix" in="shadowBlurOuter1"></feColorMatrix>
        </filter>
        <rect id="path-3" x="0" y="0" width="112" height="112" rx="4"></rect>
        <path d="M20.296286,21.8458298 L20.2952263,21.8458298 C18.7628632,21.8458298 17.520865,20.6194288 17.520865,19.1075995 L17.520865,13.4283068 C17.520865,11.9164775 18.7628632,10.691122 20.2952263,10.691122 L20.296286,10.691122 C21.828649,10.691122 23.0706473,11.9164775 23.0706473,13.4283068 L23.0706473,19.1075995 C23.0706473,20.6194288 21.828649,21.8458298 20.296286,21.8458298" id="path-5"></path>
    </defs>
    <g id="Zeus-V0.2.0（1.0组件样式）" stroke="none" stroke-width="1" fill="none" fill-rule="evenodd">
        <g id="V0.2.0系统告警" transform="translate(-270.000000, -763.000000)">
            <rect fill="#FFFFFF" x="0" y="0" width="1440" height="1383"></rect>
            <g id="矩形">
                <use fill="black" fill-opacity="1" filter="url(#filter-2)" xlink:href="#path-1"></use>
                <rect stroke="#EBEBEB" stroke-width="1" stroke-linejoin="square" fill="#FFFFFF" fill-rule="evenodd" x="232.5" y="723.5" width="1183" height="375" rx="4"></rect>
            </g>
            <g id="编组-2" transform="translate(254.000000, 747.000000)">
                <mask id="mask-4" fill="white">
                    <use xlink:href="#path-3"></use>
                </mask>
                <use id="蒙版" fill="#F7F8FC" xlink:href="#path-3"></use>
                <g id="cl-icon-Crowd" mask="url(#mask-4)" fill="#000000" fill-rule="nonzero" opacity="0">
                    <g transform="translate(24.000000, 13.000000)" id="矩形">
                        <rect x="0" y="0" width="46" height="46"></rect>
                    </g>
                </g>
            </g>
            <g id="编组-28" transform="translate(270.000000, 763.000000)">
                <g id="编组-10">
                    <rect id="矩形" fill="#F7F8FC" x="0" y="0" width="80" height="80"></rect>
                    <g id="编组-29" transform="translate(16.000000, 9.451613)" fill="#99C6F3">
                        <circle id="椭圆形" cx="32" cy="1" r="1"></circle>
                        <circle id="椭圆形备份-2" cx="44" cy="12" r="2"></circle>
                        <circle id="椭圆形备份-5" cx="3" cy="28" r="3"></circle>
                        <circle id="椭圆形备份-6" cx="3" cy="15" r="2"></circle>
                        <circle id="椭圆形备份-7" transform="translate(16.000000, 10.000000) scale(1, -1) translate(-16.000000, -10.000000) " cx="16" cy="10" r="1.5"></circle>
                    </g>
                    <circle id="椭圆形" fill="#99C6F3" cx="63.2258065" cy="35.2258065" r="3.22580645"></circle>
                </g>
                <g id="编组" transform="translate(8.000000, 16.000000)">
                    <polygon id="Fill-1" fill="#BFDCF8" points="22 14.0268134 28.6127678 15.1855183 29.2017291 25 39 11.0118799 32.3893622 9.62101564 33.3340434 0"></polygon>
                    <g transform="translate(0.000000, 20.000000)">
                        <path d="M60.6947163,16.3405126 C60.425546,7.27267296 52.9078536,0 43.6522113,0 L20.462239,0 C11.035981,0 3.39536039,7.53823635 3.39536039,16.8381826 L3.39536039,16.9772374 L2.35470998,16.9772374 C1.05442684,16.9772374 0,18.017535 0,19.3003943 L0,25.6655514 C0,26.9484108 1.05442684,27.9887083 2.35470998,27.9887083 L3.39536039,27.9887083 L3.39536039,29.7284622 C3.39536039,32.6402497 5.78716076,35 8.73743646,35 L55.3770139,35 C58.3272896,35 60.71909,32.6402497 60.71909,29.7284622 L60.71909,27.3498925 L61.64529,27.3498925 C62.9455732,27.3498925 64,26.3106405 64,25.0288266 L64,18.6636695 C64,17.3808101 62.9455732,16.3405126 61.64529,16.3405126 L60.6947163,16.3405126 Z" id="Fill-2" fill="#E6F1FD"></path>
                        <path d="M20.462239,0 C11.035981,0 3.39536039,7.53823635 3.39536039,16.8381826 L3.39536039,16.9772374 L2.35470998,16.9772374 C1.05442684,16.9772374 0,18.017535 0,19.3003943 L0,25.6655514 C0,26.9484108 1.05442684,27.9887083 2.35470998,27.9887083 L3.39536039,27.9887083 L3.39536039,29.7284622 C3.39536039,32.6402497 5.78716076,35 8.73743646,35 L55.3770139,35 C58.3272896,35 60.71909,32.6402497 60.71909,29.7284622 L60.71909,27.3498925 L61.64529,27.3498925 C62.9455732,27.3498925 64,26.3106405 64,25.0288266 L64,18.6636695 C64,17.3808101 62.9455732,16.3405126 61.64529,16.3405126 L60.6947163,16.3405126 C60.425546,7.27267296 52.9078536,0 43.6522113,0 M36.7125834,1.11022302e-16 C32.7799541,1.11022302e-16 29.6238278,1.11022302e-16 27.2442044,1.11022302e-16" id="形状" stroke="#0064C8" stroke-width="2"></path>
                        <g id="Fill-6">
                            <use fill="#FFFFFF" fill-rule="evenodd" xlink:href="#path-5"></use>
                            <use stroke="#979797" stroke-width="1" xlink:href="#path-5"></use>
                            <use stroke="#0064C8" stroke-width="1.4" xlink:href="#path-5"></use>
                        </g>
                        <path d="M43.1134469,21.8458298 C41.5810839,21.8458298 40.3390857,20.6194288 40.3390857,19.1075995 L40.3390857,13.4283068 C40.3390857,11.9164775 41.5810839,10.691122 43.1134469,10.691122 C44.6458099,10.691122 45.8888679,11.9164775 45.8888679,13.4283068 L45.8888679,19.1075995 C45.8888679,20.6194288 44.6458099,21.8458298 43.1134469,21.8458298" id="Fill-8" stroke="#0064C8" stroke-width="1.4" fill="#FFFFFF"></path>
                        <path d="M31.9087576,29.3738201 C27.3392214,29.3738201 23.6842283,28.3805712 23.4553276,28.3167941 C23.1745004,28.2383797 23.0102429,27.9498148 23.0897223,27.6717051 C23.168142,27.3946409 23.4595665,27.2325845 23.7425132,27.3099534 C23.8241121,27.332955 32.0189691,29.556787 39.0597851,27.3162266 C39.3384929,27.2284024 39.6373355,27.3789581 39.7274121,27.6528856 C39.8164291,27.9278588 39.6638286,28.2216513 39.3851208,28.310521 C36.8799298,29.1082567 34.2719454,29.3738201 31.9087576,29.3738201" id="Fill-10" stroke="#0064C8" fill="#0064C8"></path>
                    </g>
                </g>
            </g>
        </g>
    </g>
</svg>