<?xml version="1.0" encoding="UTF-8"?>
<svg width="80px" height="80px" viewBox="0 0 80 80" version="1.1" xmlns="http://www.w3.org/2000/svg" xmlns:xlink="http://www.w3.org/1999/xlink">
    <title>编组 12</title>
    <defs>
        <rect id="path-1" x="232" y="210" width="1184" height="489" rx="4"></rect>
        <filter x="-0.6%" y="-1.0%" width="101.2%" height="102.9%" filterUnits="objectBoundingBox" id="filter-2">
            <feOffset dx="0" dy="2" in="SourceAlpha" result="shadowOffsetOuter1"></feOffset>
            <feGaussianBlur stdDeviation="2" in="shadowOffsetOuter1" result="shadowBlurOuter1"></feGaussianBlur>
            <feComposite in="shadowBlurOuter1" in2="SourceAlpha" operator="out" result="shadowBlurOuter1"></feComposite>
            <feColorMatrix values="0 0 0 0 0.268566621   0 0 0 0 0.277546687   0 0 0 0 0.290647645  0 0 0 0.0656687063 0" type="matrix" in="shadowBlurOuter1"></feColorMatrix>
        </filter>
        <rect id="path-3" x="0" y="0" width="112" height="112" rx="4"></rect>
        <rect id="path-5" x="0" y="0" width="80" height="80" rx="4"></rect>
    </defs>
    <g id="Zeus-V0.2.0（1.0组件样式）" stroke="none" stroke-width="1" fill="none" fill-rule="evenodd">
        <g id="V0.2.0系统告警" transform="translate(-272.000000, -252.000000)">
            <rect fill="#FFFFFF" x="0" y="0" width="1440" height="1383"></rect>
            <g id="矩形">
                <use fill="black" fill-opacity="1" filter="url(#filter-2)" xlink:href="#path-1"></use>
                <rect stroke="#EBEBEB" stroke-width="1" stroke-linejoin="square" fill="#FFFFFF" fill-rule="evenodd" x="232.5" y="210.5" width="1183" height="488" rx="4"></rect>
            </g>
            <g id="编组-2" transform="translate(256.000000, 236.000000)">
                <mask id="mask-4" fill="white">
                    <use xlink:href="#path-3"></use>
                </mask>
                <use id="蒙版" fill="#F7F8FC" xlink:href="#path-3"></use>
                <g id="编组-27" mask="url(#mask-4)">
                    <g transform="translate(16.000000, 16.000000)" id="编组-12">
                        <mask id="mask-6" fill="white">
                            <use xlink:href="#path-5"></use>
                        </mask>
                        <use id="蒙版" fill="#F7F8FC" xlink:href="#path-5"></use>
                        <g id="编组" mask="url(#mask-6)" fill-rule="nonzero">
                            <g transform="translate(10.000000, 10.000000)">
                                <path d="M39.6215589,2.09816144 C39.623313,2.9493247 39.1101374,3.71757109 38.3216955,4.04410754 C37.5332535,4.37064399 36.6251171,4.19103975 36.0214119,3.58917516 C35.4177067,2.98731056 35.2375533,2.0819429 35.5650883,1.2959048 C35.8926234,0.509866698 36.6632192,-0.00174423648 37.5169855,4.46876562e-06 C38.6793068,4.46876562e-06 39.6215589,0.939383848 39.6215589,2.09816144 Z M58.5365854,6.74530906 C58.5365854,7.56650888 57.8688355,8.23222282 57.0451243,8.23222282 C56.2214131,8.23222282 55.5536633,7.5665088 55.5536633,6.74530898 C55.5536633,5.92410916 56.2214131,5.25839518 57.0451243,5.25839518 C57.4406844,5.25839518 57.8200434,5.41505173 58.0997466,5.69390217 C58.3794498,5.97275262 58.5365854,6.35095498 58.5365854,6.74530906 L58.5365854,6.74530906 Z M10.3967492,3.23827322 C10.3967492,4.05397705 9.90363811,4.7892789 9.14755259,5.10102871 C8.39146708,5.41277853 7.52144952,5.23952031 6.94351901,4.66211005 C6.3655885,4.0846998 6.19367387,3.2169638 6.5080041,2.46385638 C6.82233433,1.71074896 7.56094475,1.220732 8.37914124,1.22248153 C8.91499714,1.22248153 9.4288425,1.4350002 9.80734175,1.81315872 C10.185841,2.19131725 10.3978994,2.7040523 10.3967492,3.23827322 Z M53.4882379,16.6248327 C53.4898957,17.0041448 53.2608177,17.346626 52.9089372,17.4908981 C52.5570567,17.6351702 52.1525768,17.5524496 51.8860897,17.2817145 C51.6196026,17.0109794 51.5442748,16.6062439 51.695601,16.2582205 C51.8469272,15.9101971 52.1947164,15.6883196 52.5750894,15.6971372 C53.0822032,15.7065887 53.4883175,16.1191767 53.4882379,16.6248327 L53.4882379,16.6248327 Z M2.34807277,15.6971372 C2.34807277,16.3435627 1.82243879,16.8675941 1.17403641,16.8675941 C0.525634022,16.8675941 0,16.3435628 0,15.6971372 C0,15.0507117 0.525633942,14.5266803 1.17403633,14.5266803 C1.48541015,14.5266803 1.78403091,14.6499959 2.00420546,14.8694992 C2.22438,15.0890024 2.34807277,15.3867127 2.34807277,15.6971372 L2.34807277,15.6971372 Z" id="形状" fill="#99C6F3"></path>
                                <polygon id="路径" fill="#0064C8" opacity="0.3" points="55.6097561 27.3595258 55.6097561 27.0731707 1.46341463 27.0731707 28.4370039 43.1707317"></polygon>
                                <polygon id="路径" fill="#BFDCF8" points="55.6097561 26.791144 55.6097561 27.0731707 1.46341463 27.0731707 28.4413335 10.9756098"></polygon>
                                <path d="M11.6395784,8.04878049 L45.4335924,8.04878049 C47.0126245,8.04878049 48.2926829,9.31903754 48.2926829,10.885979 L48.2926829,46.097561 L8.7804878,46.097561 L8.7804878,10.885979 C8.7804878,9.31903751 10.0605463,8.04878049 11.6395784,8.04878049 Z" id="路径" fill="#FFFFFF"></path>
                                <path d="M49.7560976,47.5609756 L8.04878049,47.5609756 L8.04878049,11.2926332 C8.05117941,9.09797927 9.84263255,7.31945478 12.0532401,7.31707317 L45.751638,7.31707317 C47.9622455,7.31945481 49.7536986,9.09797929 49.7560976,11.2926332 L49.7560976,47.5609756 Z M10.3556974,45.2966349 L47.4535333,45.2966349 L47.4535333,11.2926332 C47.4511411,10.3604712 46.6905762,9.60539515 45.751638,9.60302017 L12.0532401,9.60302017 C11.1150095,9.60540242 10.3556974,10.3611706 10.3556974,11.2926332 L10.3556974,45.2966349 Z" id="形状" fill="#0064C8"></path>
                                <path d="M0.928465496,27.0731707 L0.731707317,27.0731707 L0.731707317,58.9818984 L28.1685455,43.1729348 L0.928465496,27.0731707 Z M55.6097561,27.359565 L28.1685455,43.1729348 L55.4086255,59.2682927 L55.6097561,59.2682927 L55.6097561,27.359565 Z" id="形状" fill="#99C6F3"></path>
                                <polygon id="路径" fill="#E6F1FD" points="1.46341463 58.9818592 1.46341463 59.2682927 55.6097561 59.2682927 28.6340098 43.1707317 13.2322876 52.1338959 1.46341463 58.9818592"></polygon>
                                <polygon id="路径" fill="#0064C8" points="0.731707317 28.3497524 1.90419914 26.3414634 55.6097561 57.9912709 54.4377023 60"></polygon>
                                <polygon id="路径" fill="#0064C8" points="1.46341463 57.2743104 55.1845488 26.3414634 56.3414634 28.3354457 2.62076628 59.2682927"></polygon>
                                <path d="M53.2021145,60 L49.7560976,60 L49.7560976,57.711522 L53.2021145,57.711522 C53.5445468,57.7089404 53.8724354,57.5801394 54.1161774,57.3524602 C54.3597269,57.1225434 54.5004676,56.8127327 54.5092244,56.4872511 L54.6326229,28.6361709 C54.6354913,28.1896699 54.3839731,27.7763448 53.9744976,27.5546596 L50.3776604,25.3353983 L51.6939108,23.4146341 L55.245045,25.6036131 C56.3761471,26.2370605 57.0708682,27.3878439 57.0731707,28.6318449 L56.9817644,56.4569688 C56.9767222,58.4096518 55.3016224,59.9894149 53.2386771,59.9870219 L53.2021145,60 Z" id="路径" fill="#0064C8"></path>
                                <path d="M37.3170732,60 L3.53146339,60 C1.5765885,59.9904241 -0.00241342807,58.4006637 0,56.444478 L0.0868775658,28.7218376 C0.0916688273,27.4726204 0.75126649,26.3175634 1.82437356,25.6792149 L5.68161468,23.4146341 L6.84573699,25.3966856 L2.98849587,27.6656129 C2.60869144,27.8881018 2.37426114,28.2944954 2.37168482,28.7348774 L2.29784123,56.4314381 C2.29543143,57.1187134 2.84899707,57.6784749 3.53580713,57.6832601 L37.3170732,57.6832601 L37.3170732,60 Z" id="路径" fill="#0064C8"></path>
                                <polygon id="路径" fill="#0064C8" points="14.6341463 16.8292683 43.1707317 16.8292683 43.1707317 19.0243902 14.6341463 19.0243902"></polygon>
                                <polygon id="路径" fill="#0064C8" points="14.6341463 23.4146341 43.1707317 23.4146341 43.1707317 25.6097561 14.6341463 25.6097561"></polygon>
                                <polygon id="路径" fill="#0064C8" points="14.6341463 30.7317073 43.1707317 30.7317073 43.1707317 32.9268293 14.6341463 32.9268293"></polygon>
                                <polygon id="路径" fill="#0064C8" points="40.2439024 57.804878 46.8292683 57.804878 46.8292683 60 40.2439024 60"></polygon>
                            </g>
                        </g>
                    </g>
                </g>
            </g>
        </g>
    </g>
</svg>