<?xml version="1.0" encoding="UTF-8"?>
<svg width="92px" height="91px" viewBox="0 0 92 91" version="1.1" xmlns="http://www.w3.org/2000/svg" xmlns:xlink="http://www.w3.org/1999/xlink">
    <title>V1.1平台管理/基础资源</title>
    <defs>
        <polygon id="path-1" points="0 0.0810584464 91.9179616 0.0810584464 91.9179616 11.5396124 0 11.5396124"></polygon>
        <polygon id="path-3" points="0 0.0733834772 91.9179616 0.0733834772 91.9179616 80.2505549 0 80.2505549"></polygon>
    </defs>
    <g id="V1.1中间件平台" stroke="none" stroke-width="1" fill="none" fill-rule="evenodd">
        <g id="V1.1平台管理/基础资源" transform="translate(-237.000000, -120.000000)">
            <rect fill="#FAFAFA" x="0" y="0" width="1440" height="880"></rect>
            <rect id="Rectangle" fill="#FFFFFF" fill-rule="nonzero" x="208" y="48" width="1232" height="145"></rect>
            <rect id="Rectangle" fill="#FFFFFF" fill-rule="nonzero" x="208" y="48" width="1232" height="188"></rect>
            <g id="分组-copy" transform="translate(237.000000, 120.000000)">
                <g id="分组" transform="translate(0.000000, 0.053590)">
                    <mask id="mask-2" fill="white">
                        <use xlink:href="#path-1"></use>
                    </mask>
                    <g id="Clip-2"></g>
                    <path d="M91.9179616,11.5396124 L-8.08791209e-05,11.5396124 L-8.08791209e-05,3.31258402 C-8.08791209e-05,1.52795171 1.44846418,0.0810180518 3.23508396,0.0810180518 L88.6827968,0.0810180518 C90.4695514,0.0810180518 91.9179616,1.52795171 91.9179616,3.31258402 L91.9179616,11.5396124 Z" id="Fill-1" fill="#253368" mask="url(#mask-2)"></path>
                </g>
                <g id="分组" transform="translate(0.000000, 10.556180)">
                    <mask id="mask-4" fill="white">
                        <use xlink:href="#path-3"></use>
                    </mask>
                    <g id="Clip-4"></g>
                    <path d="M88.6827968,80.2505549 L3.23508396,80.2505549 C1.44846418,80.2505549 -8.08791209e-05,78.8037559 -8.08791209e-05,77.0189889 L-8.08791209e-05,0.0733834772 L91.9179616,0.0733834772 L91.9179616,77.0189889 C91.9179616,78.8037559 90.4695514,80.2505549 88.6827968,80.2505549" id="Fill-3" fill="#E4EBF7" mask="url(#mask-4)"></path>
                </g>
                <path d="M7.46983385,5.46714984 C7.46983385,6.58715674 6.56075253,7.49522678 5.43936352,7.49522678 C4.3181093,7.49522678 3.40916278,6.58715674 3.40916278,5.46714984 C3.40916278,4.34714293 4.3181093,3.4390729 5.43936352,3.4390729 C6.56075253,3.4390729 7.46983385,4.34714293 7.46983385,5.46714984" id="Fill-5" fill="#A3B5D6"></path>
                <path d="M15.0521166,5.46714984 C15.0521166,6.58715674 14.1431701,7.49522678 13.0217811,7.49522678 C11.9005269,7.49522678 10.9915804,6.58715674 10.9915804,5.46714984 C10.9915804,4.34714293 11.9005269,3.4390729 13.0217811,3.4390729 C14.1431701,3.4390729 15.0521166,4.34714293 15.0521166,5.46714984" id="Fill-7" fill="#E4EBF7"></path>
                <path d="M22.6345342,5.46714984 C22.6345342,6.58715674 21.7255877,7.49522678 20.6041987,7.49522678 C19.4829445,7.49522678 18.5739979,6.58715674 18.5739979,5.46714984 C18.5739979,4.34714293 19.4829445,3.4390729 20.6041987,3.4390729 C21.7255877,3.4390729 22.6345342,4.34714293 22.6345342,5.46714984" id="Fill-9" fill="#E4EBF7"></path>
                <g id="分组-2" transform="translate(8.896703, 19.389396)">
                    <path d="M1.03793617,60.5114902 C0.480309654,60.5114902 0.028429011,60.060343 0.028429011,59.503903 L0.028429011,1.09256388 C0.028429011,0.536123872 0.480309654,0.0849767201 1.03793617,0.0849767201 L74.0909219,0.0849767201 C74.6484222,0.0849767201 75.100429,0.536123872 75.100429,1.09256388 L75.100429,59.503903 C75.100429,60.060343 74.6484222,60.5114902 74.0909219,60.5114902 L1.03793617,60.5114902 Z" id="Fill-11" fill="#FFFFFF"></path>
                    <path d="M50.1299575,33.9946092 C45.7459048,33.9946092 42.1838047,30.4215744 42.1838047,26.0026773 C42.1686212,21.6121909 45.7194842,18.040772 50.1149949,18.0255567 C50.1199824,18.0255567 50.12497,18.0255567 50.1299575,18.0255567 C54.5114491,18.0255567 58.0736352,21.5984568 58.0736352,26.0150649 C58.0660864,30.4215744 54.5114491,33.9920509 50.1299575,33.9946092 M69.9004542,23.2232612 C69.7461099,22.3524889 68.9115722,21.4616538 68.0396952,21.2701835 L67.3896967,21.1208583 C65.8112059,20.6427212 64.4748132,19.5811517 63.6532161,18.1523956 C62.8232615,16.7092321 62.5772542,15.0036385 62.9657436,13.3850279 L63.1699634,12.7730501 C63.4316073,11.9244948 63.0927238,10.7526482 62.4126652,10.172986 C62.4126652,10.172986 61.8024322,9.65539687 60.0887385,8.66007455 C58.3673612,7.66986888 57.630148,7.39356999 57.630148,7.39356999 C56.7931839,7.08509009 55.6224586,7.38118232 55.0096645,8.0330161 L54.5587634,8.51828959 C53.3676835,9.6566087 51.7808352,10.2889184 50.1325187,10.2824553 C48.4749011,10.2870334 46.8800996,9.64933768 45.6836278,8.5033436 L45.2502505,8.03059243 C44.6472967,7.37875864 43.4691575,7.09007208 42.6296322,7.39356999 C42.6296322,7.39356999 41.8823092,7.66986888 40.1636278,8.66007455 C38.4425201,9.66280254 37.8371399,10.1803917 37.8371399,10.1803917 C37.1595077,10.7550718 36.8208938,11.9146654 37.0824029,12.7730501 L37.2692337,13.3925683 C37.6534095,15.0088898 37.4076718,16.7105786 36.5816264,18.1523956 C35.7613773,19.5928662 34.4140659,20.6594176 32.8227692,21.1282639 L32.1977084,21.2701835 C31.3407941,21.4691942 30.4964161,22.3475069 30.3369495,23.2232612 C30.3369495,23.2232612 30.1948718,24.009609 30.1948718,26.0051009 C30.1948718,28.0005929 30.3369495,28.7843823 30.3369495,28.7843823 C30.4914286,29.6652533 31.3258315,30.5459897 32.1977084,30.7375946 L32.8079414,30.8793796 C34.4020689,31.3497071 35.752211,32.4196247 36.5717861,33.8652119 C37.4285656,35.3656011 37.6354813,37.0724065 37.2592586,38.6325796 L37.0824029,39.2371517 C36.8208938,40.0855725 37.1595077,41.2575537 37.8395663,41.8373505 C37.8395663,41.8373505 38.4499341,42.354805 40.1636278,43.3501273 C41.8848703,44.3454496 42.6246447,44.6166319 42.6246447,44.6166319 C43.4591824,44.9251118 44.6324689,44.6290196 45.245263,43.9771858 L45.6735179,43.5143986 C48.1645949,41.1331384 52.0903326,41.1356967 54.5787136,43.5192459 L55.0072381,43.9845914 C55.6099223,44.6340016 56.7883311,44.9251118 57.6275868,44.6216139 C57.6275868,44.6216139 58.3749099,44.3454496 60.0962872,43.3551093 C61.8149685,42.359787 62.4176527,41.8423325 62.4176527,41.8423325 C63.0977114,41.270076 63.4365949,40.1005184 63.1749509,39.2421337 L62.9882549,38.6150753 C62.6023267,37.0045436 62.8484689,35.3077022 63.6755927,33.8727522 C64.5000205,32.4317431 65.8477363,31.3626334 67.4394374,30.8869199 L68.0522315,30.7450003 C68.9091458,30.5459897 69.7535238,29.667677 69.9129905,28.791788 C69.9129905,28.791788 70.0550681,28.0055749 70.0550681,26.0125066 C70.0399707,24.0145909 69.9004542,23.2232612 69.9004542,23.2232612" id="Fill-13" fill="#4E5C93"></path>
                    <path d="M22.652948,44.0929202 C20.7012,45.201482 18.2099883,44.511408 17.0900821,42.5441922 C15.9708498,40.5934035 16.6464601,38.1056363 18.5995561,36.9875145 L18.6061612,36.9837443 C20.556696,35.8758558 23.0480425,36.5657951 24.1671399,38.5320684 C25.2805758,40.4956487 24.6029436,42.9839545 22.652948,44.0929202 M28.724948,34.298717 C28.4354007,33.9501118 27.838378,33.7644314 27.4016308,33.8996186 L27.0743399,33.9975081 C26.2504513,34.1838617 25.3865275,34.0490785 24.6587502,33.620896 C23.923559,33.1882701 23.3816689,32.4910598 23.1444235,31.6722617 L23.0803942,31.3481626 C22.9817216,30.9043609 22.5339209,30.4682341 22.0843678,30.382059 C22.0843678,30.382059 21.681455,30.3059826 20.666422,30.2962879 C19.6490974,30.2906326 19.2509026,30.3540521 19.2509026,30.3540521 C18.8001363,30.4283781 18.3538183,30.8561567 18.2463839,31.3014395 L18.1684703,31.6313286 C17.9266418,32.4393547 17.3805729,33.122023 16.6451121,33.5359328 C15.9083033,33.9571135 15.036696,34.0764122 14.2137509,33.868784 L13.9008835,33.7679323 C13.4672366,33.6301868 12.8696747,33.7995747 12.5729832,34.146968 C12.5729832,34.146968 12.310126,34.4589488 11.7960044,35.3342992 C11.28377,36.2159781 11.1454667,36.5994573 11.1454667,36.5994573 C10.9896396,37.0265626 11.132526,37.6284418 11.4665568,37.944462 L11.706633,38.1730953 C12.2873451,38.795441 12.6091092,39.6151816 12.6069524,40.4658913 C12.6066828,41.3145813 12.2771004,42.1300131 11.6874916,42.7410484 L11.4451238,42.9624107 C11.1140586,43.267659 10.9607927,43.8722312 11.111767,44.3024334 C11.111767,44.3024334 11.2479136,44.6883362 11.7535429,45.5767476 C12.259307,46.4650242 12.5210857,46.7780822 12.5210857,46.7780822 C12.8130594,47.1311308 13.4076557,47.3123678 13.8442681,47.1771806 L14.1520132,47.0860235 C14.9808894,46.8922642 15.8531707,47.0271821 16.5841832,47.4635781 C17.3459297,47.9147855 17.8704308,48.6224985 18.0983751,49.4120778 L18.1729187,49.7259436 C18.2714564,50.1697453 18.7192572,50.6058721 19.1689451,50.6920472 C19.1689451,50.6920472 19.5718579,50.7681236 20.5870257,50.7778183 C21.6054286,50.7857626 22.0036235,50.7193808 22.0036235,50.7193808 C22.4533114,50.6458627 22.9004381,50.2172763 23.0081421,49.7721281 L23.0816073,49.4577236 C23.5871018,47.7678839 25.335304,46.7763318 27.0472454,47.2082844 L27.3559341,47.3071165 C27.788907,47.4437848 28.3871429,47.2754741 28.6838344,46.9280807 C28.6838344,46.9280807 28.9465568,46.6162346 29.4618916,45.7400763 C29.9748,44.8624368 30.1120249,44.4796309 30.1120249,44.4796309 C30.2697392,44.0529295 30.1242916,43.446607 29.7902608,43.1307214 L29.5481626,42.8987219 C28.9683942,42.2793384 28.6478432,41.4616176 28.6524264,40.6136008 C28.6541788,39.763699 28.9833568,38.9469207 29.571348,38.3326538 L29.808189,38.1146578 C30.1392542,37.8092748 30.292655,37.2048373 30.1416806,36.7745004 C30.1416806,36.7745004 30.0056689,36.3885976 29.5005788,35.5013981 C28.9875355,34.6156797 28.724948,34.298717 28.724948,34.298717" id="Fill-15" fill="#A3B5D6"></path>
                    <path d="M19.3744586,10.4372848 L8.20168205,10.4372848 C7.47188278,10.4372848 6.87472527,9.84079162 6.87472527,9.11180419 L6.87472527,9.00058446 C6.87472527,8.27146239 7.47188278,7.67496917 8.20168205,7.67496917 L19.3744586,7.67496917 C20.1042579,7.67496917 20.7014154,8.27146239 20.7014154,9.00058446 L20.7014154,9.11180419 C20.7014154,9.84079162 20.1042579,10.4372848 19.3744586,10.4372848" id="Fill-17" fill="#A3B5D6"></path>
                    <path d="M16.2491546,16.9004168 L9.33587692,16.9004168 C8.57224322,16.9004168 7.95311355,16.2821105 7.95311355,15.5193263 C7.95311355,14.756542 8.57224322,14.1381011 9.33587692,14.1381011 L16.2491546,14.1381011 C17.0127883,14.1381011 17.6317832,14.756542 17.6317832,15.5193263 C17.6317832,16.2821105 17.0127883,16.9004168 16.2491546,16.9004168" id="Fill-19" fill="#A3B5D6"></path>
                </g>
            </g>
        </g>
    </g>
</svg>