<?xml version="1.0" encoding="UTF-8"?>
<svg width="69px" height="60px" viewBox="0 0 69 60" version="1.1" xmlns="http://www.w3.org/2000/svg" xmlns:xlink="http://www.w3.org/1999/xlink">
    <title>编组备份 2</title>
    <g id="登录页" stroke="none" stroke-width="1" fill="none" fill-rule="evenodd">
        <g id="git-v1.0-开放中心" transform="translate(-278.000000, -258.000000)" fill="#0064C8" fill-rule="nonzero">
            <g id="编组备份-2" transform="translate(278.000000, 258.000000)">
                <path d="M42.56,37.925 C43.405,37.925 44.16,38.455 44.45,39.25 L51.12,57.265 C51.3501928,57.8865505 51.2624535,58.5813373 50.8849697,59.126149 C50.507486,59.6709607 49.8878015,59.9971786 49.225,60 L49.13,60 C48.2747358,59.9976068 47.5136745,59.4568527 47.23,58.65 L45.76,54.465 L38.26,54.465 L36.79,58.65 C36.5075835,59.4577994 35.7457442,59.9991063 34.89,60 L34.725,60 C34.0621985,59.9971787 33.442514,59.6709608 33.0650302,59.1261491 C32.6875464,58.5813374 32.5998071,57.8865505 32.83,57.265 L39.5,39.25 C39.7889326,38.4572231 40.5412195,37.9284273 41.385,37.925 L42.56,37.925 Z M2.14000001,37.925 C3.26000001,37.925 4.15499998,38.835 4.15499998,39.95 L4.15499998,55.94 L13.005,55.94 C14.1233766,55.94 15.03,56.8466234 15.03,57.965 C15.03,59.0833766 14.1233766,59.99 13.005,59.99 L2.01499997,59.99 C0.902478317,59.9845093 0.00273345688,59.0825318 0,57.97 L0,39.95 C0,38.835 0.90499999,37.925 2.01499997,37.925 L2.14000001,37.925 Z M23.34,37.925 C26.815,37.925 29.415,38.9200001 31.21,40.895 C32.9099999,42.745 33.785,45.44 33.785,48.96 C33.785,52.455 32.92,55.1399999 31.21,57.025 C29.42,59 26.815,59.995 23.345,59.995 L17.55,59.995 C16.4335771,59.9894902 15.5322298,59.0814331 15.5349936,57.965 L15.5349936,39.95 C15.5349936,38.835 16.435,37.925 17.55,37.925 L23.34,37.925 Z M60.82,37.925 C65.9649936,37.925 68.57,40.175 68.57,44.695 C68.57,49.235 65.9649936,51.525 60.76,51.525 L56.15,51.525 L56.15,57.965 C56.1513277,58.5020639 55.9392524,59.0176583 55.5604286,59.3983575 C55.1816047,59.7790567 54.6670639,59.9936756 54.13,59.995 L53.98,59.995 C52.863577,59.9894902 51.9622297,59.0814331 51.9649936,57.965 L51.9649936,39.95 C51.9649936,38.835 52.8649999,37.925 53.98,37.925 L60.82,37.925 Z M22.96,41.84 L19.715,41.84 L19.715,55.97 L22.96,55.97 C24.82,55.97 27.03,55.445 28.22,54.27 C29.175,53.33 29.82,51.495 29.82,48.435 C29.82,45.96 29.285,44.61 28.22,43.515 C27.13,42.39 25.325,41.84 22.96,41.84 L22.96,41.84 Z M42.015,43.995 L41.93,43.995 L39.5,50.93 L44.415,50.93 L42.02,44 L42.015,43.995 Z M60.55,41.64 L56.15,41.64 L56.15,47.885 L60.55,47.885 C62.11,47.885 63.24,47.575 63.96,47.015 C64.68,46.43 65.04,45.85 65.04,44.7 C65.0617174,43.8310007 64.6468866,43.0088475 63.935,42.51 C63.215,41.915 62.075,41.64 60.55,41.64 L60.55,41.64 Z M49.815,0 C53.365,0 56.235,2.88999997 56.235,6.45000002 L56.235,30.25 C56.235,32.695 52.855,33.32 51.99,31.035 C51.8937613,30.7844887 51.844604,30.518361 51.845,30.25 L51.845,6.45000002 C51.8463277,5.91028396 51.6331988,5.39214602 51.2524996,5.00957145 C50.8718004,4.62699688 50.3547161,4.41132446 49.815,4.41 L17.755,4.41 C17.215284,4.41132446 16.6981996,4.62699688 16.3175004,5.00957145 C15.9368012,5.39214602 15.7236723,5.91028396 15.725,6.45000002 L15.725,30.15 C15.780349,30.9695596 15.3745094,31.7516926 14.672544,32.1782907 C13.9705785,32.6048889 13.0894215,32.6048889 12.387456,32.1782907 C11.6854906,31.7516926 11.279651,30.9695596 11.335,30.15 L11.335,6.45000002 C11.335,2.89000004 14.2,0 17.75,0 L49.815,0 Z M43.2,21.88 C44.4177879,21.88 45.405,22.8672121 45.405,24.085 C45.405,25.3027879 44.4177879,26.29 43.2,26.29 L24.25,26.29 C23.0349735,26.29 22.0499772,25.3050265 22.0499772,24.09 C22.0473399,23.504793 22.2779501,22.942642 22.6908188,22.5278966 C23.1036875,22.1131512 23.664787,21.88 24.25,21.88 L43.2,21.88 Z M43.2,11.495 C43.9877706,11.495 44.7157007,11.9152706 45.1095861,12.5975 C45.5034714,13.2797294 45.5034714,14.1202707 45.1095861,14.8025 C44.7157007,15.4847294 43.9877706,15.905 43.2,15.905 L24.25,15.905 C23.0349735,15.905 22.0499772,14.9200265 22.0499772,13.705 C22.0473399,13.1197931 22.2779501,12.557642 22.6908188,12.1428966 C23.1036875,11.7281512 23.664787,11.495 24.25,11.495 L43.2,11.495 Z" id="形状"></path>
            </g>
        </g>
    </g>
</svg>