<?xml version="1.0" encoding="UTF-8"?>
<svg width="16px" height="16px" viewBox="0 0 16 16" version="1.1" xmlns="http://www.w3.org/2000/svg" xmlns:xlink="http://www.w3.org/1999/xlink">
    <title>编组 35</title>
    <g id="-中间件V1.1-" stroke="none" stroke-width="1" fill="none" fill-rule="evenodd">
        <g id="V1.1平台运维/资源总览" transform="translate(-24.000000, -312.000000)">
            <rect fill="#FAFAFA" x="0" y="0" width="1440" height="834"></rect>
            <g id="编组-38" transform="translate(0.000000, 48.000000)">
                <rect id="Cards/Elevation-0" fill="#F5F5F5" x="0" y="0" width="208" height="832"></rect>
                <g id="编组-36备份" transform="translate(0.000000, 89.000000)" fill="#DEDEDE" opacity="0">
                    <g id="编组-15" transform="translate(0.000000, 163.000000)">
                        <rect id="矩形备份" x="0" y="0" width="208" height="40"></rect>
                    </g>
                </g>
                <g id="编组-35" transform="translate(24.000000, 264.000000)" fill-rule="nonzero">
                    <rect id="矩形备份-21" fill="#000000" opacity="0" x="0" y="0" width="16" height="16"></rect>
                    <g id="编组" transform="translate(1.000000, 2.000000)" fill="#555555">
                        <path d="M5.7404375,8.97206183 L2.9316875,7.69887698 L2.9316875,7.68296755 L5.74,6.40032303 L5.74,5.6031313 L1.910125,7.44045615 L1.910125,7.92418899 L5.74,9.7623738 L5.74,8.97206183 L5.7404375,8.97206183 L5.7404375,8.97206183 Z M7.9410625,4.43056288 L7.263375,4.43056288 L6.026125,10.0745427 L6.70425,10.0745427 L7.9410625,4.43056288 L7.9410625,4.43056288 Z M12.089,7.33854976 L8.252125,5.60270132 L8.252125,6.37667387 L11.3155,7.67522782 L11.3155,7.69027729 L8.252125,8.98797127 L8.252125,9.7623738 L12.089,8.02738533 L12.089,7.33854976 Z M0,1 L0,11.5263158 C-4.33869274e-17,12.0786005 0.44771525,12.5263158 1,12.5263158 L13,12.5263158 C13.5522847,12.5263158 14,12.0786005 14,11.5263158 L14,1 C14,0.44771525 13.5522847,7.68579428e-16 13,0 L1,0 C0.44771525,-9.5692398e-18 -1.78657678e-16,0.44771525 0,1 Z M11.6764375,0.80622141 L12.9434375,0.80622141 L12.9434375,2.03124797 L11.6764375,2.03124797 L11.6764375,0.80622141 Z M9.5935,0.80622141 L10.859625,0.80622141 L10.859625,2.03124797 L9.5935,2.03124797 L9.5935,0.80622141 L9.5935,0.80622141 Z M7.3863125,0.80622141 L8.6533125,0.80622141 L8.6533125,2.03124797 L7.3863125,2.03124797 L7.3863125,0.80622141 Z M13.0781875,11.5661598 L0.921375,11.5661598 L0.921375,3.17027758 L13.07775,3.17027758 L13.07775,11.5661598 L13.0781875,11.5661598 L13.0781875,11.5661598 Z" id="形状"></path>
                    </g>
                </g>
            </g>
        </g>
    </g>
</svg>