<?xml version="1.0" encoding="UTF-8"?>
<svg width="14px" height="14px" viewBox="0 0 14 14" version="1.1" xmlns="http://www.w3.org/2000/svg" xmlns:xlink="http://www.w3.org/1999/xlink">
    <title>编组备份</title>
    <g id="githuab-v1.0" stroke="none" stroke-width="1" fill="none" fill-rule="evenodd">
        <g id="编组备份" fill="#666666" fill-rule="nonzero">
            <path d="M13.6,14 L1,14 C0.44771525,14 9.37667865e-16,13.5522847 0,13 L0,1 C-6.76353751e-17,0.44771525 0.44771525,1.01453063e-16 1,0 L5.67176967,0 C5.75702119,1.91287815e-16 5.84004288,0.0272374111 5.90872585,0.0777395949 L8.55327415,2.0222604 C8.62195712,2.07276259 8.70497881,2.1 8.79023033,2.1 L13,2.1 C13.5522847,2.1 14,2.54771525 14,3.1 L14,13.6 C14,13.8209139 13.8209139,14 13.6,14 Z M2.00000001,12.6 L12,12.6 C12.3313708,12.6 12.6,12.3313708 12.6,12 L12.6,4.10000001 C12.6,3.76862916 12.3313708,3.50000001 12,3.50000001 L8.26261516,3.50000001 C8.21998941,3.50000001 8.17847856,3.4863813 8.14413707,3.46113021 L5.39386293,1.43886981 C5.35952144,1.41361872 5.31801059,1.40000001 5.27538484,1.40000001 L2.00000001,1.40000001 C1.66862916,1.40000001 1.40000001,1.66862916 1.40000001,2.00000001 L1.40000001,12 C1.40000001,12.3313708 1.66862916,12.6 2.00000001,12.6 Z" id="形状"></path>
            <path d="M6.5,5.60000001 L10.3,5.60000001 C10.4104569,5.60000001 10.5,5.68954306 10.5,5.80000001 L10.5,6.8 C10.5,6.91045695 10.4104569,7 10.3,7 L6.5,7 C6.38954305,7 6.3,6.91045695 6.3,6.8 L6.3,5.80000001 C6.3,5.68954306 6.38954305,5.60000001 6.5,5.60000001 Z M6.5,8.39999999 L10.3,8.39999999 C10.4104569,8.39999999 10.5,8.48954304 10.5,8.59999999 L10.5,9.6 C10.5,9.71045695 10.4104569,9.8 10.3,9.8 L6.5,9.8 C6.38954305,9.8 6.3,9.71045695 6.3,9.6 L6.3,8.59999999 C6.3,8.48954304 6.38954305,8.39999999 6.5,8.39999999 Z M3,5.60000001 L4.7,5.60000001 C4.81045695,5.60000001 4.9,5.68954306 4.9,5.80000001 L4.9,6.8 C4.9,6.91045695 4.81045695,7 4.7,7 L3,7 C2.88954305,7 2.8,6.91045695 2.8,6.8 L2.8,5.80000001 C2.8,5.68954306 2.88954305,5.60000001 3,5.60000001 Z M3,8.39999999 L4.7,8.39999999 C4.81045695,8.39999999 4.9,8.48954304 4.9,8.59999999 L4.9,9.6 C4.9,9.71045695 4.81045695,9.8 4.7,9.8 L3,9.8 C2.88954305,9.8 2.8,9.71045695 2.8,9.6 L2.8,8.59999999 C2.8,8.48954304 2.88954305,8.39999999 3,8.39999999 Z" id="形状"></path>
        </g>
    </g>
</svg>