<?xml version="1.0" encoding="UTF-8"?>
<svg width="101px" height="106px" viewBox="0 0 101 106" version="1.1" xmlns="http://www.w3.org/2000/svg" xmlns:xlink="http://www.w3.org/1999/xlink">
    <title>icon</title>
    <defs>
        <rect id="path-1" x="0" y="0" width="101" height="106"></rect>
    </defs>
    <g id="-1.3.0" stroke="none" stroke-width="1" fill="none" fill-rule="evenodd">
        <g id="icon">
            <mask id="mask-2" fill="white">
                <use xlink:href="#path-1"></use>
            </mask>
            <use id="蒙版" fill="#D8D8D8" opacity="0" xlink:href="#path-1"></use>
            <path d="M35.991875,0 C56.271875,0 72.9525,16.4707692 74.829375,37.524 C89.755,40.6469231 101,54.6470769 101,71.4358462 C101,89.7493846 87.59375,104.728 70.669375,105.926615 L70.669375,106 L1.330625,106 L1.330625,105.918462 C-15.618125,104.728 -29,89.7493846 -29,71.4276923 C-29,54.6470769 -17.755,40.6632308 -2.82125,37.524 C-0.9525,16.4707692 15.70375,0 35.991875,0 Z M35.9919054,11.5798319 C21.9315068,11.5798319 9.97571606,23.2099654 8.60772105,38.6004004 L7.8630137,46.9900148 L-0.353051059,48.7117944 C-10.0909091,50.758438 -17.4246575,60.1470094 -17.4246575,71.3629412 C-17.4246575,83.6671676 -8.64196762,93.5998863 2.24533001,94.3714385 L2.99003736,94.4201681 L69.0099626,94.4201681 L69.75467,94.3714385 C80.633873,93.5998863 89.4246575,83.659046 89.4246575,71.3629412 C89.4246575,60.1388878 82.0828144,50.7503164 72.3692403,48.719916 L64.1369863,46.9981364 L63.392279,38.6004004 C62.0161893,23.2099654 50.0603985,11.5798319 35.9919054,11.5798319 Z M53.8082192,70.3697479 L53.8082192,81.9495798 L19.0821918,81.9495798 L19.0821918,70.3697479 L53.8082192,70.3697479 Z M53.8082192,49.8823529 L53.8082192,61.4621849 L19.0821918,61.4621849 L19.0821918,49.8823529 L53.8082192,49.8823529 Z" id="形状备份" fill="#FFFFFF" fill-rule="nonzero" opacity="0.2" mask="url(#mask-2)"></path>
        </g>
    </g>
</svg>