<?xml version="1.0" encoding="UTF-8"?>
<svg width="80px" height="80px" viewBox="0 0 80 80" version="1.1" xmlns="http://www.w3.org/2000/svg" xmlns:xlink="http://www.w3.org/1999/xlink">
    <title>其他集群</title>
    <defs>
        <polygon id="path-1" points="0 80 79.9999978 80 79.9999978 0 0 0"></polygon>
    </defs>
    <g id="-Zeus-V0.1.0" stroke="none" stroke-width="1" fill="none" fill-rule="evenodd">
        <g id="添加集群" transform="translate(-274.000000, -218.000000)">
            <g id="编组-4" transform="translate(237.000000, 196.000000)">
                <g id="其他集群" transform="translate(37.000000, 22.000000)">
                    <path d="M15.491141,66.8028547 C17.1200651,67.430915 18.8491042,66.8896902 19.919989,65.4290571 C20.9190426,64.0664882 20.8608293,62.1249661 19.7435534,60.7550611 C18.7545263,59.5426578 16.9195361,58.9662497 15.491141,59.6449141 L15.491141,66.8028547 Z M77.4077689,45.9597879 C74.157403,47.6647582 70.6551786,48.2723073 67.1101547,48.7344818 L67.1101547,53.8526863 C67.448061,53.7990879 67.764867,53.7615091 68.0759862,53.697131 C69.6939861,53.3626646 71.3218627,53.0662261 72.9242991,52.66828 C74.275326,52.3327655 75.5883422,51.847385 76.7391393,51.0336764 C77.0135947,50.8394943 77.3648198,50.5113159 77.3778392,50.2305977 C77.443086,48.8268568 77.4077689,47.4181753 77.4077689,45.9597879 L77.4077689,45.9597879 Z M2.58036418,45.9503558 C2.58036418,47.1367085 2.65518845,48.2679655 2.55776726,49.3842509 C2.4727669,50.3568086 2.87696756,50.9255812 3.67728787,51.32742 C3.79595915,51.3870071 3.90789624,51.4600687 4.02731577,51.5180089 C6.82484528,52.8747389 9.82604643,53.4427629 12.8718428,53.8392119 L12.8718428,48.8023033 C11.0815975,48.4648426 9.3269686,48.1797826 7.59448764,47.7945623 C5.86335351,47.4094917 4.18953477,46.827095 2.58036418,45.9503558 L2.58036418,45.9503558 Z M12.8748358,61.6871954 L12.8748358,56.5411436 C11.0898282,56.2027845 9.33475033,55.9202697 7.60451409,55.527863 C5.87517574,55.1359055 4.18863687,54.5845001 2.58036418,53.7004248 C2.58036418,55.0034065 2.6189735,56.2506938 2.56420214,57.4934895 C2.53636752,58.1234961 2.79929998,58.4950922 3.27727736,58.8117424 C4.56575116,59.6651258 6.00536996,60.1713169 7.48195195,60.5378226 C9.25169539,60.9772402 11.0494231,61.303622 12.8748358,61.6871954 L12.8748358,61.6871954 Z M77.4082179,61.4590276 C74.1391458,63.1355517 70.643057,63.7251349 67.1053659,64.2224927 L67.1053659,69.343991 C67.2418454,69.3147963 67.3564761,69.2884462 67.4721544,69.2661385 C69.1742568,68.9391579 70.8925211,68.6782022 72.5738223,68.2658833 C74.0366366,67.9071628 75.4705688,67.4048643 76.7316569,66.5329161 C77.0430755,66.3177736 77.4049256,66.1093684 77.4064221,65.6527334 C77.4112108,64.2702522 77.4082179,62.8877711 77.4082179,61.4590276 L77.4082179,61.4590276 Z M77.4082179,53.7165941 C74.1478255,55.3917708 70.6518863,55.9791082 67.1177867,56.4776638 L67.1177867,61.6048513 C67.2533683,61.572812 67.3546804,61.5370298 67.4589854,61.5258011 C69.2676374,61.3316189 71.0448633,60.9739465 72.7899148,60.4673062 C74.1771566,60.0644194 75.5492839,59.6077844 76.7533559,58.7768584 C77.0620808,58.563812 77.4104626,58.3453758 77.4094174,57.882303 C77.4061228,56.5131466 77.4082179,55.1441399 77.4082179,53.7165941 L77.4082179,53.7165941 Z M2.58036418,61.462471 C2.58036418,62.790156 2.59712482,64.0780164 2.57063703,65.3649785 C2.56210706,65.7810403 2.67254768,66.0954448 2.9995297,66.3384345 C3.15935432,66.4570098 3.30795531,66.6037319 3.4861867,66.6820336 C4.54899052,67.1491487 5.5959316,67.666868 6.69135879,68.0416081 C8.68931624,68.7253629 10.7694307,69.0676146 12.8724414,69.3281211 L12.8724414,64.2214447 C9.31784004,63.721392 5.8232477,63.1261196 2.58036418,61.462471 L2.58036418,61.462471 Z M2.58036418,69.2037068 C2.58036418,70.5155218 2.61583088,71.7658033 2.56524968,73.0127912 C2.53995908,73.6377074 2.78358688,74.0331084 3.27682842,74.3343377 C3.46942607,74.4520148 3.66501669,74.5656496 3.86494712,74.6701516 C5.30830713,75.4244228 6.85058482,75.9120491 8.42817957,76.2704701 C9.89383721,76.6037388 11.3787995,76.85122 12.878577,77.1410709 L12.878577,71.9640278 C9.33235595,71.4642745 5.83551888,70.8748411 2.58036418,69.2037068 L2.58036418,69.2037068 Z M77.4082179,69.2022096 C74.1508184,70.8788834 70.6532331,71.4641248 67.1192832,71.9662736 L67.1192832,77.0792381 C67.5727183,77.0230944 68.0019102,77.0054279 68.4138926,76.9126037 C70.1299122,76.5266349 71.8525164,76.1613269 73.5496803,75.703045 C74.7791926,75.3711238 75.9763808,74.90326 76.9915964,74.0986841 C77.1946694,73.9375893 77.3829273,73.6213883 77.3899607,73.3713619 C77.4284204,72.002505 77.4082179,70.6321508 77.4082179,69.2022096 L77.4082179,69.2022096 Z M46.4450403,67.1054315 L46.4450403,67.5732953 C46.4450403,69.3868099 46.4736232,71.2009234 46.4291776,73.0132403 C46.4140631,73.6390548 46.648263,74.0332581 47.1431507,74.3332897 C47.3361973,74.4502182 47.5307403,74.5656496 47.7306708,74.6703013 C49.1732826,75.4257702 50.7160092,75.9118994 52.2933046,76.2704701 C53.7588126,76.6038885 55.2437749,76.85122 56.7462461,77.1416698 L56.7462461,68.6894309 C56.6575045,68.7388374 56.6009374,68.7656366 56.549159,68.8000714 C55.7486891,69.3311154 54.9438793,69.8560211 54.1496946,70.3963475 C52.1822654,71.7354109 49.5110393,70.600411 49.0983086,68.3474787 C49.0249809,67.9463885 49.0233347,67.5319735 48.9869701,67.1054315 L46.4450403,67.1054315 Z M56.739063,57.7592361 L56.739063,48.8021536 C54.9501645,48.465142 53.1938895,48.1791837 51.4597624,47.7948617 C49.7263835,47.4106895 48.0521158,46.824999 46.464345,45.9620337 L46.464345,59.3436847 L47.7213926,59.3436847 L49.0252802,59.3436847 C49.0252802,59.082729 49.0267766,58.869982 49.0249809,58.657235 C49.018097,57.8129843 49.342535,57.0919502 49.9076079,56.4938332 C51.0760635,55.2570261 52.8187206,55.1242276 54.3081724,56.1262794 C55.1026564,56.6610664 55.8981879,57.1945059 56.739063,57.7592361 L56.739063,57.7592361 Z M64.4916048,48.9797172 L59.3463892,48.9797172 L59.3463892,49.396378 C59.3463892,52.3535761 59.3800601,55.3113731 59.3255881,58.2675233 C59.3095757,59.1393218 59.5166892,59.6772528 60.2984531,60.1656277 C61.9288738,61.1841483 62.380962,63.2464916 61.5089601,64.9576002 C61.0944336,65.7708596 60.3949764,66.275853 59.6500261,66.7279965 C59.4046025,66.8768146 59.3408522,67.0437484 59.3414508,67.3109921 C59.3490829,70.510132 59.3462396,73.7092718 59.3471375,76.9084117 C59.3472871,77.0385152 59.3585108,77.1687685 59.3665918,77.3451344 L64.4916048,77.3451344 L64.4916048,48.9797172 Z M10.3492177,25.7584056 L23.2016315,25.7584056 L23.2016315,2.57976313 L10.3492177,2.57976313 L10.3492177,25.7584056 Z M56.7948819,25.757657 L69.6459489,25.757657 L69.6459489,2.57916426 L56.7948819,2.57916426 L56.7948819,25.757657 Z M33.5650911,25.7724789 L46.4163078,25.7724789 L46.4163078,2.59383647 L33.5650911,2.59383647 L33.5650911,25.7724789 Z M18.0945763,38.6242836 L18.0878422,38.6703963 C17.4042477,38.7055796 16.7196057,38.7274382 16.0372084,38.7789407 C14.7192539,38.8788015 13.3896267,38.9157815 12.0882832,39.1253844 C10.4418501,39.3903824 8.80424631,39.74536 7.19013732,40.1662128 C5.71565042,40.5505347 4.2676513,41.0522344 3.01314772,41.9716427 C2.47905213,42.3631511 2.4573531,42.7832553 3.00656318,43.1431735 C3.54784189,43.4978516 4.11171753,43.8351626 4.70402639,44.0916268 C6.67280238,44.9439622 8.74767916,45.4226055 10.8532339,45.8075264 C12.9367903,46.1882551 15.0389031,46.3563867 17.1464033,46.4243579 C19.329476,46.4945749 21.5058144,46.3276411 23.675718,46.0478212 C25.5496169,45.8060292 27.3949328,45.444015 29.2011905,44.8987479 C30.5866365,44.48059 31.9641512,44.0257516 33.1412865,43.1349391 C33.6412622,42.7567555 33.6583222,42.3162898 33.1156966,41.9918544 C32.3777797,41.5509397 31.622354,41.1140672 30.8250266,40.8020583 C28.3278417,39.8251588 25.7203658,39.28079 23.0563228,39.0220801 C21.405101,38.8617338 19.7486415,38.7551358 18.0945763,38.6242836 L18.0945763,38.6242836 Z M62.2188927,38.6530292 C61.26204,38.7049808 60.604634,38.728636 59.9490238,38.7784915 C58.6179002,38.8798495 57.2748047,38.9147334 55.9602921,39.125085 C54.313859,39.3885858 52.6768538,39.7462583 51.0622959,40.1651647 C49.5870607,40.5478398 48.1398098,41.0505875 46.8839594,41.9673009 C46.3325046,42.370038 46.337892,42.7551086 46.8918908,43.1702721 C47.8414107,43.8820239 48.9353414,44.2944925 50.0448356,44.6600999 C52.2955494,45.4016452 54.6022317,45.90065 56.9635358,46.1139958 C58.4423625,46.2473931 59.9241822,46.3912706 61.4068998,46.4242082 C63.4690564,46.4698717 65.5243293,46.3090763 67.5736161,46.0454257 C69.5537654,45.7906084 71.5003934,45.3932611 73.4024262,44.7993362 C74.6686023,44.4040849 75.9259492,43.9618227 77.0007249,43.1389814 C77.5027957,42.7548092 77.511625,42.345784 76.988753,41.9900578 C76.5610576,41.6991589 76.1188462,41.4158955 75.650147,41.2012022 C72.9681461,39.9730786 70.1097097,39.3914304 67.2081744,39.0346563 C65.4569874,38.8195138 63.6866454,38.7606753 62.2188927,38.6530292 L62.2188927,38.6530292 Z M43.8648005,59.3436847 L43.8648005,58.826714 C43.8648005,53.3963508 43.8667459,47.9661373 43.8622564,42.5357741 C43.8616578,41.787791 44.1603563,41.1720075 44.6369868,40.6265907 C45.641727,39.4764693 46.9670144,38.8259516 48.3559023,38.2940093 C51.0236866,37.2726441 53.7993674,36.7029732 56.6358055,36.4448621 C58.3398533,36.2899057 60.0515331,36.2208864 61.759771,36.1118929 C61.8093046,36.1085991 61.8579404,36.0895852 61.8941554,36.0810513 L61.8941554,28.3552364 L54.1740873,28.3552364 L54.1740873,15.4993894 L49.0082202,15.4993894 L49.0082202,28.3432591 L30.9419021,28.3432591 L30.9419021,15.4899572 L25.790102,15.4899572 L25.790102,28.3794905 L18.0860464,28.3794905 L18.0860464,36.0749129 C18.8851695,36.1153364 19.6618453,36.12926 20.4335828,36.1991775 C22.0125244,36.3423064 23.5917652,36.4914239 25.1654691,36.6821626 C27.0767801,36.9140733 28.9463391,37.3552875 30.7681602,37.9763111 C32.309989,38.5019654 33.8063245,39.1258336 35.0168315,40.2720622 C35.7465177,40.9630034 36.1402429,41.7692262 36.1354542,42.8149951 C36.1104629,48.1645115 36.1239312,53.5141776 36.1239312,58.8639934 L36.1239312,59.3436847 L36.5056846,59.3436847 L43.8648005,59.3436847 Z M20.6302209,73.8739598 C20.7025012,73.6278261 20.7747814,73.3815426 20.8569384,73.1017227 C21.1315435,73.2258376 21.3534723,73.2924614 21.5375399,73.4155283 C22.1578331,73.8302427 22.7272457,73.9298041 23.2128552,73.2241907 L23.2128552,77.1100796 C23.4085954,77.067111 23.5353477,77.0275859 23.665093,77.0126143 C25.537196,76.7973221 27.3766757,76.4176413 29.1791922,75.8731228 C30.5644886,75.4545158 31.938262,74.9975814 33.1230294,74.119345 C33.4145447,73.903454 33.5495277,73.6351622 33.5478815,73.266261 C33.5389026,71.3329733 33.5439907,69.3996855 33.5427935,67.4663978 C33.5426438,67.3497687 33.530223,67.2332893 33.5218427,67.086717 C33.3389722,67.086717 33.1806441,67.0870164 33.0223159,67.086717 L27.3461474,67.0686013 C27.5439828,66.9926951 27.7368797,66.897176 27.940701,66.8450747 C28.2735193,66.7600358 28.4129917,66.5886106 28.3917416,66.2249494 C28.35837,65.653482 28.3829124,65.0788705 28.383062,64.5056064 L51.60552,64.5056064 C51.60552,65.5534714 51.6007313,66.5463905 51.6073158,67.5391599 C51.6118053,68.2317479 52.1831633,68.5684601 52.7512291,68.19372 C54.8000671,66.841781 56.8441163,65.4825059 58.8773908,64.1073608 C59.4969356,63.6884543 59.4981328,62.7432948 58.8808327,62.3260352 C56.8457624,60.9501416 54.7997678,59.5902676 52.7497326,58.2369811 C52.1822654,57.8623907 51.6125535,58.1980549 51.6071661,58.891092 C51.600432,59.7645375 51.6062683,60.6382823 51.6046221,61.5118775 C51.6044725,61.6412324 51.5930992,61.7705874 51.5856168,61.9241964 L28.383062,61.9241964 C28.3829124,61.5645776 28.3826131,61.2048091 28.3829124,60.8450407 C28.3838103,59.77906 28.3838103,59.77906 27.3808659,59.3835092 C27.3687443,59.378868 27.3585682,59.3691365 27.3474942,59.3616507 L33.5158568,59.3616507 L33.5158568,45.9752087 C30.277313,47.6662554 26.7863123,48.2764994 23.2134538,48.7388236 L23.2134538,53.2069595 C23.0946328,53.1012598 22.9511199,53.0129271 22.8616301,52.886267 C22.6373069,52.5682694 22.3992161,52.5853371 22.0845053,52.7584092 C21.7042484,52.9677128 21.2960072,53.1261127 20.849456,53.3295773 C20.7656528,53.0350851 20.6975628,52.7958383 20.629323,52.5567413 L20.629323,48.9795675 L15.4918892,48.9795675 L15.4918892,51.592418 L15.4918892,56.8652796 C17.3993093,56.5453356 19.1060507,56.8932765 20.6146575,58.0101608 C22.1386781,59.1384235 23.0123261,60.6752623 23.209114,62.5513584 C23.3818083,64.1961426 22.9861377,65.7332808 21.9725682,67.057672 C20.3442426,69.1849922 18.1481505,69.9579779 15.4918892,69.5850344 L15.4918892,74.837834 L15.4918892,77.3502247 L20.6302209,77.3502247 L20.6302209,73.8739598 Z M25.7887552,12.8652792 L30.9550712,12.8652792 L30.9550712,0.00883326706 L49.0082202,0.00883326706 L49.0082202,12.8525533 L54.1746859,12.8525533 L54.1746859,0.00314404421 L72.2155637,0.00314404421 L72.2155637,28.3609256 L64.5290169,28.3609256 L64.5290169,36.1548615 C64.8465711,36.1940872 65.1731042,36.2351095 65.4997869,36.2744849 C66.8346517,36.4355797 68.171462,36.5805052 69.5036332,36.7607637 C71.4255692,37.0209708 73.3053043,37.4783544 75.1245814,38.1469878 C76.6441125,38.7055796 78.1197966,39.3653798 79.2188154,40.6288364 C79.7044248,41.1869791 79.9918996,41.8202794 79.9914507,42.5815873 C79.9869612,52.81081 79.9805263,63.0401824 79.9999931,73.2694051 C80.0020757,74.3461653 79.5948821,75.1654134 78.8369123,75.8716256 C77.6283508,76.9976426 76.1454836,77.6113301 74.6178715,78.1323431 C72.7953021,78.7539656 70.9257431,79.1947307 69.0133846,79.424695 C67.4524008,79.6125891 65.8882745,79.7931471 64.3201076,79.8988468 C62.9957181,79.9879281 61.6624994,80.0162245 60.3360149,79.9765497 C59.095728,79.9395697 57.8578354,79.7897036 56.62114,79.6684333 C54.1972828,79.4306837 51.8183202,78.963868 49.4975709,78.2179809 C48.0625912,77.7568544 46.670411,77.1952683 45.4673865,76.2647809 C44.7435366,75.7049913 44.1141149,75.051629 43.9192725,74.1024271 C43.887547,73.9473209 43.8673445,73.7865255 43.8670452,73.6285747 C43.8637529,71.6121943 43.8649501,69.5959637 43.8649501,67.5795833 L43.8649501,67.1139654 L36.1237816,67.1139654 L36.1237816,67.5500892 C36.1237816,69.4588235 36.0934029,71.3683063 36.1357535,73.2759926 C36.1590986,74.3391287 35.7366409,75.1495435 34.9988736,75.8515637 C33.9324783,76.8666408 32.6239516,77.4605657 31.2712785,77.9544801 C29.2998089,78.6746159 27.2563583,79.1080449 25.1838759,79.4374209 C22.3589607,79.8859712 19.5192303,80.0635349 16.6660315,79.9799931 C15.3449344,79.9412166 14.0260819,79.7938957 12.7091749,79.6661876 C10.4581618,79.4480508 8.24471047,79.0177659 6.08004457,78.3645533 C4.48673673,77.8838139 2.93188857,77.2925839 1.59747268,76.2619363 C0.87317382,75.7024461 0.247792638,75.0451912 0.0514537738,74.0970373 C0.0219730145,73.9549564 0.00221940935,73.8076355 0.00221940935,73.66271 C-6.85788906e-06,63.2586186 -0.00212039785,52.8546769 0.00416484017,42.4507352 C0.00476343426,41.5189003 0.517159981,40.8252643 1.16543739,40.2160683 C2.27837346,39.1699999 3.64690922,38.5748772 5.05465288,38.0779685 C6.97060294,37.4014002 8.94581381,36.9446155 10.9614298,36.6796174 C12.4520787,36.4836387 13.945571,36.3087699 15.4618099,36.1214747 L15.4618099,28.3857785 L7.76538625,28.3857785 L7.76538625,0 L25.7887552,0 L25.7887552,12.8652792 Z" id="Fill-1" fill="#0070cc"></path>
                    <path d="M27.4709479,59.760727 C27.482126,59.768115 27.4923978,59.7777194 27.5046333,59.7823 C28.5170075,60.1726816 28.5170075,60.1726816 28.5161011,61.224732 C28.515799,61.5799467 28.5161011,61.934866 28.5162522,62.2897852 L28.5162522,64.8374612 C28.5161011,65.4033815 28.491328,65.9703362 28.5250134,66.5343357 C28.5464633,66.8932445 28.4056795,67.0624295 28.069732,67.1463571 C27.8639944,67.1977776 27.6692838,67.2920484 27.4695884,67.3671104 C27.2608297,67.4508903 27.052222,67.5348179 26.8055483,67.6339648 C27.0132496,68.0726639 27.1913441,68.4847662 27.4020666,68.8804672 C27.5339381,69.1281127 27.5230621,69.299662 27.3010104,69.498399 C26.8819824,69.8734136 26.4901443,70.2779802 26.0904514,70.6733856 C25.1582877,71.5952595 24.2282388,72.5190543 23.2974346,73.4421103 C22.8071084,74.1385027 22.2324931,74.0402424 21.606368,73.6309475 C21.4205696,73.5094889 21.1965543,73.4438835 20.9193674,73.3212428 C20.8364379,73.5975537 20.7634781,73.840471 20.6905183,74.083536 C20.6266218,74.2278974 20.5365927,74.3669395 20.5039647,74.5178023 C20.4163525,74.923551 20.1914308,75.0467827 19.7618289,75.0383604 C18.3429643,75.0105815 16.9231933,75.0321545 15.5038755,75.0346664 L15.5038755,69.8505108 C18.1851112,70.2185807 20.4018511,69.4556964 22.0454864,67.3561762 C23.0685855,66.04924 23.4679763,64.5320415 23.2936582,62.9087514 C23.0950202,61.0571722 22.213158,59.540417 20.6748085,58.4268985 C19.1520177,57.3246098 17.4292293,56.9812158 15.5038755,57.2969787 L15.5038755,52.0930233 C16.7744036,52.0958307 18.0452338,52.0992292 19.3157619,52.1008545 C20.2677138,52.1020366 20.2674117,52.1010023 20.6269239,52.944268 C20.6421805,52.9800259 20.6684642,53.0113509 20.6896119,53.0447447 C20.7583422,53.280865 20.8272235,53.5168375 20.9118146,53.8074812 C21.3625643,53.6068233 21.7746438,53.4503456 22.1584759,53.243925 C22.4761457,53.0729668 22.7164751,53.0561222 22.9429073,53.3699642 C23.0332385,53.4949691 23.1781008,53.5822951 23.2980388,53.6866136 C23.3962249,53.7952171 23.4891241,53.9089923 23.5936545,54.0115376 C24.7416766,55.1368769 25.8954387,56.2564536 27.0390801,57.3862256 C27.683483,58.0226275 27.6050852,57.761979 27.2582617,58.5346155 C27.1150611,58.8540723 26.9627971,59.1696875 26.8060015,59.5053979 C27.0704997,59.6070567 27.2706483,59.6837441 27.4709479,59.760727" id="Fill-3" fill="#CAE2FC"></path>
                    <path d="M35.9689913,8.0620155 L35.9689913,5.58139535 L43.4108515,5.58139535 L43.4108515,8.06186991 C40.9300872,8.0620155 38.4496113,8.0620155 35.9689913,8.0620155" id="Fill-5" fill="#0070cc"></path>
                    <path d="M43.4108515,20.4651163 L43.4108515,22.9457364 L35.9689913,22.9457364 L35.9689913,20.4651163 C38.4496594,20.4651163 40.9301834,20.4651163 43.4108515,20.4651163" id="Fill-7" fill="#0070cc"></path>
                    <path d="M43.4108515,20.4651163 C40.9301834,20.4651163 38.4496594,20.4651163 35.9689913,20.4651163 C35.9689913,19.6382905 35.9689913,18.8114648 35.9689913,17.9844961 C38.4496594,17.9846391 40.9303276,17.9846391 43.4108515,17.9846391 L43.4108515,20.4651163 Z" id="Fill-9" fill="#CAE2FC"></path>
                    <path d="M35.9689913,8.06215845 C38.4495633,8.06215845 40.929991,8.06215845 43.4107073,8.0620155 C43.4107073,8.88884124 43.4107073,9.71566697 43.4108515,10.5426357 L35.9691355,10.5426357 C35.9689913,9.71580992 35.9689913,8.88898419 35.9689913,8.06215845" id="Fill-11" fill="#CAE2FC"></path>
                    <path d="M35.9691355,10.5426357 L43.4108515,10.5426357 C43.4107073,11.3693642 43.4107073,12.1962376 43.4107073,13.023111 C40.9301353,13.023111 38.4495633,13.0232558 35.9689913,13.0232558 C35.9691355,12.1963824 35.9691355,11.369509 35.9691355,10.5426357" id="Fill-13" fill="#0070cc"></path>
                    <path d="M43.4108515,17.9844961 C40.9303276,17.9844961 38.4496594,17.9844961 35.9689913,17.9843513 C35.9689913,17.1576227 35.9689913,16.3307494 35.9689913,15.503876 L43.4108515,15.503876 L43.4108515,17.9844961 Z" id="Fill-15" fill="#0070cc"></path>
                    <path d="M43.4108515,15.503876 L35.9691355,15.503876 C35.9691355,14.6770979 35.9691355,13.8501768 35.9689913,13.0233988 C38.4497556,13.0233988 40.9303757,13.0232558 43.4108515,13.0232558 L43.4108515,15.503876 Z" id="Fill-17" fill="#CAE2FC"></path>
                    <path d="M66.9767423,20.4651163 L66.9767423,22.9457364 L59.5348821,22.9457364 L59.5348821,20.4651163 C62.0156464,20.4651163 64.4961223,20.4651163 66.9767423,20.4651163" id="Fill-19" fill="#0070cc"></path>
                    <path d="M66.9767423,20.4651163 C64.4961223,20.4651163 62.0156464,20.4651163 59.5348821,20.4651163 L59.5348821,17.9844961 L66.9765981,17.9844961 C66.9765981,18.8113695 66.9767423,19.6382429 66.9767423,20.4651163" id="Fill-21" fill="#CAE2FC"></path>
                    <path d="M59.5348821,10.5426357 L59.5348821,8.0620155 C62.0155022,8.06215846 64.4961223,8.06215846 66.9767423,8.06215846 C66.9767423,8.88903185 66.9765981,9.71590523 66.9765981,10.5426357 C64.495978,10.5426357 62.0155022,10.5426357 59.5348821,10.5426357" id="Fill-23" fill="#CAE2FC"></path>
                    <path d="M66.9767423,17.9844961 L59.5350263,17.9844961 C59.5350263,17.1576227 59.5350263,16.3307494 59.5348821,15.503876 C62.0156464,15.503876 64.4962665,15.5040208 66.9767423,15.5040208 L66.9767423,17.9844961 Z" id="Fill-25" fill="#0070cc"></path>
                    <path d="M66.9767423,8.0620155 C64.4962665,8.0620155 62.0156464,8.0620155 59.5348821,8.06186992 L59.5348821,5.58139535 L66.9767423,5.58139535 L66.9767423,8.0620155 Z" id="Fill-27" fill="#0070cc"></path>
                    <path d="M66.9767423,15.503876 C64.4962665,15.503876 62.0156464,15.503876 59.5348821,15.503876 C59.5350263,14.6769073 59.5350263,13.8500815 59.5351705,13.0232558 C62.0157906,13.0232558 64.4962665,13.0232558 66.9767423,13.0233988 L66.9767423,15.503876 Z" id="Fill-29" fill="#CAE2FC"></path>
                    <path d="M66.9767423,13.0232558 C64.4962184,13.0232558 62.0156945,13.0232558 59.5350263,13.0232558 C59.5348821,12.1964307 59.5348821,11.3694608 59.5348821,10.5426357 C62.0156945,10.5426357 64.4962184,10.5427805 66.9767423,10.5427805 L66.9767423,13.0232558 Z" id="Fill-31" fill="#0070cc"></path>
                    <mask id="mask-2" fill="white">
                        <use xlink:href="#path-1"></use>
                    </mask>
                    <g id="Clip-34"></g>
                    <polygon id="Fill-33" fill="#0070cc" mask="url(#mask-2)" points="13.0232555 8.0620155 20.4651157 8.0620155 20.4651157 5.58139535 13.0232555 5.58139535"></polygon>
                    <path d="M20.4651157,20.4651163 L20.4651157,22.9457364 L13.0232555,22.9457364 L13.0232555,20.4652619 C15.5038755,20.4651163 17.9844956,20.4651163 20.4651157,20.4651163" id="Fill-35" fill="#0070cc" mask="url(#mask-2)"></path>
                    <path d="M13.0232555,8.0620155 L20.4651157,8.0620155 C20.4651157,8.88884124 20.4651157,9.71566697 20.4651157,10.5426357 C17.9844476,10.5424927 15.5037794,10.5424927 13.0232555,10.5424927 C13.0232555,9.71566697 13.0232555,8.88884124 13.0232555,8.0620155" id="Fill-36" fill="#CAE2FC" mask="url(#mask-2)"></path>
                    <path d="M20.4651157,20.4649733 C17.9845437,20.4649733 15.5039717,20.4649733 13.0233997,20.4651163 C13.0233997,19.6382905 13.0232555,18.8114648 13.0232555,17.9846391 C15.5038275,17.9846391 17.9843995,17.9844961 20.4649715,17.9844961 C20.4649715,18.8113219 20.4651157,19.6381476 20.4651157,20.4649733" id="Fill-37" fill="#CAE2FC" mask="url(#mask-2)"></path>
                    <path d="M13.0232555,10.5426357 C15.5038755,10.5426357 17.9843514,10.5426357 20.4649715,10.5427805 C20.4649715,11.369509 20.4651157,12.1963824 20.4651157,13.0232558 L13.0232555,13.0232558 C13.0232555,12.1963824 13.0232555,11.369509 13.0232555,10.5426357" id="Fill-38" fill="#0070cc" mask="url(#mask-2)"></path>
                    <path d="M20.4649715,17.9844961 C17.9843514,17.9844961 15.5038755,17.9844961 13.0232555,17.9844961 C13.0232555,17.1577676 13.0232555,16.3308942 13.0232555,15.5040208 C15.5038755,15.5040208 17.9844956,15.503876 20.4651157,15.503876 C20.4649715,16.3307494 20.4649715,17.1576227 20.4649715,17.9844961" id="Fill-39" fill="#0070cc" mask="url(#mask-2)"></path>
                    <path d="M20.4651157,15.503876 C17.9844956,15.503876 15.5038755,15.503876 13.0232555,15.503876 L13.0232555,13.0232558 L20.4651157,13.0232558 C20.4651157,13.8500815 20.4651157,14.6770502 20.4651157,15.503876" id="Fill-40" fill="#CAE2FC" mask="url(#mask-2)"></path>
                </g>
            </g>
        </g>
    </g>
</svg>
