<?xml version="1.0" encoding="UTF-8"?>
<svg width="14px" height="17px" viewBox="0 0 14 17" version="1.1" xmlns="http://www.w3.org/2000/svg" xmlns:xlink="http://www.w3.org/1999/xlink">
    <title>password</title>
    <defs>
        <rect id="path-1" x="0" y="0" width="1440" height="880"></rect>
        <linearGradient x1="45.7828229%" y1="55.7650601%" x2="46.360234%" y2="47.8927054%" id="linearGradient-3">
            <stop stop-color="#1F5AE4" offset="0%"></stop>
            <stop stop-color="#36F7FE" stop-opacity="0.8" offset="100%"></stop>
        </linearGradient>
        <filter x="-0.2%" y="-0.6%" width="100.4%" height="101.2%" filterUnits="objectBoundingBox" id="filter-4">
            <feGaussianBlur stdDeviation="1" in="SourceGraphic"></feGaussianBlur>
        </filter>
        <linearGradient x1="50%" y1="0%" x2="50%" y2="100%" id="linearGradient-5">
            <stop stop-color="#A2C0C1" offset="0%"></stop>
            <stop stop-color="#6DDAE2" offset="100%"></stop>
        </linearGradient>
        <linearGradient x1="50%" y1="18.5211775%" x2="50%" y2="113.230045%" id="linearGradient-6">
            <stop stop-color="#A5FBFF" offset="0%"></stop>
            <stop stop-color="#2349E0" offset="100%"></stop>
            <stop stop-color="#2349E0" offset="100%"></stop>
        </linearGradient>
        <path d="M1341.60497,515.884615 C1344.39582,515.884615 1346.65865,518.149248 1346.65865,520.942308 C1346.65865,523.735368 1344.39582,526 1341.60497,526 C1338.81412,526 1336.55128,523.735368 1336.55128,520.942308 C1336.55128,518.149248 1338.81412,515.884615 1341.60497,515.884615 Z M856.451122,515.884615 C859.24202,515.884615 861.504808,518.149197 861.504808,520.942308 C861.504808,523.735418 859.24202,526 856.451122,526 C853.660224,526 851.397436,523.735418 851.397436,520.942308 C851.397436,518.149197 853.660224,515.884615 856.451122,515.884615 Z M1100.21715,494.463801 C1103.00799,494.463801 1105.27083,496.728433 1105.27083,499.521493 C1105.27083,502.314553 1103.00799,504.579186 1100.21715,504.579186 C1097.4263,504.579186 1095.16346,502.314553 1095.16346,499.521493 C1095.16346,496.728433 1097.4263,494.463801 1100.21715,494.463801 Z M457.507212,415.325792 C460.298059,415.325792 462.560897,417.590424 462.560897,420.383484 C462.560897,423.176544 460.298059,425.441176 457.507212,425.441176 C454.716364,425.441176 452.453526,423.176544 452.453526,420.383484 C452.453526,417.590424 454.716364,415.325792 457.507212,415.325792 Z M166.771635,413.540724 C169.562482,413.540724 171.825321,415.805356 171.825321,418.598416 C171.825321,421.391476 169.562482,423.656109 166.771635,423.656109 C163.980787,423.656109 161.717949,421.391476 161.717949,418.598416 C161.717949,415.805356 163.980787,413.540724 166.771635,413.540724 Z M327.895032,407.590498 C330.68588,407.590498 332.948718,409.85513 332.948718,412.64819 C332.948718,415.44125 330.68588,417.705882 327.895032,417.705882 C325.104185,417.705882 322.841346,415.44125 322.841346,412.64819 C322.841346,409.85513 325.104185,407.590498 327.895032,407.590498 Z M1341.60497,405.80543 C1344.39582,405.80543 1346.65865,408.070062 1346.65865,410.863122 C1346.65865,413.656182 1344.39582,415.920814 1341.60497,415.920814 C1338.81412,415.920814 1336.55128,413.656182 1336.55128,410.863122 C1336.55128,408.070062 1338.81412,405.80543 1341.60497,405.80543 Z M759.539263,396.285068 C762.33011,396.285068 764.592949,398.5497 764.592949,401.34276 C764.592949,404.13582 762.33011,406.400452 759.539263,406.400452 C756.748415,406.400452 754.485577,404.13582 754.485577,401.34276 C754.485577,398.5497 756.748415,396.285068 759.539263,396.285068 Z M1025.89824,393.904977 C1028.68908,393.904977 1030.95192,396.16961 1030.95192,398.96267 C1030.95192,401.75573 1028.68908,404.020362 1025.89824,404.020362 C1023.10739,404.020362 1020.84455,401.75573 1020.84455,398.96267 C1020.84455,396.16961 1023.10739,393.904977 1025.89824,393.904977 Z M5.0536859,387.954751 C7.8445334,387.954751 10.1073718,390.219383 10.1073718,393.012443 C10.1073718,395.805503 7.8445334,398.070136 5.0536859,398.070136 C2.2628384,398.070136 4.54747351e-13,395.805503 4.54747351e-13,393.012443 C4.54747351e-13,390.219383 2.2628384,387.954751 5.0536859,387.954751 Z M1197.72356,369.50905 C1200.51441,369.50905 1202.77724,371.773682 1202.77724,374.566742 C1202.77724,377.359802 1200.51441,379.624434 1197.72356,379.624434 C1194.93271,379.624434 1192.66987,377.359802 1192.66987,374.566742 C1192.66987,371.773682 1194.93271,369.50905 1197.72356,369.50905 Z M889.151442,368.319005 C891.94229,368.319005 894.205128,370.583637 894.205128,373.376697 C894.205128,376.169757 891.94229,378.434389 889.151442,378.434389 C886.360595,378.434389 884.097756,376.169757 884.097756,373.376697 C884.097756,370.583637 886.360595,368.319005 889.151442,368.319005 Z M1467.64984,356.418552 C1470.44069,356.418552 1472.70353,358.683184 1472.70353,361.476244 C1472.70353,364.269304 1470.44069,366.533937 1467.64984,366.533937 C1464.85899,366.533937 1462.59615,364.269304 1462.59615,361.476244 C1462.59615,358.683184 1464.85899,356.418552 1467.64984,356.418552 Z M511.611378,349.278281 C514.402226,349.278281 516.665064,351.542913 516.665064,354.335973 C516.665064,357.129033 514.402226,359.393665 511.611378,359.393665 C508.820531,359.393665 506.557692,357.129033 506.557692,354.335973 C506.557692,351.542913 508.820531,349.278281 511.611378,349.278281 Z M225.03766,334.997738 C227.828508,334.997738 230.091346,337.26237 230.091346,340.05543 C230.091346,342.84849 227.828508,345.113122 225.03766,345.113122 C222.246813,345.113122 219.983974,342.84849 219.983974,340.05543 C219.983974,337.26237 222.246813,334.997738 225.03766,334.997738 Z M633.494391,308.221719 C638.912425,308.221719 643.304487,312.617263 643.304487,318.039593 C643.304487,323.461922 638.912425,327.857466 633.494391,327.857466 C628.076357,327.857466 623.684295,323.461922 623.684295,318.039593 C623.684295,312.617263 628.076357,308.221719 633.494391,308.221719 Z M362.379006,300.486425 C365.169854,300.486425 367.432692,302.751058 367.432692,305.544118 C367.432692,308.337178 365.169854,310.60181 362.379006,310.60181 C359.588159,310.60181 357.325321,308.337178 357.325321,305.544118 C357.325321,302.751058 359.588159,300.486425 362.379006,300.486425 Z M1123.40465,284.420814 C1128.82268,284.420814 1133.21474,288.816358 1133.21474,294.238688 C1133.21474,299.661017 1128.82268,304.056561 1123.40465,304.056561 C1117.98661,304.056561 1113.59455,299.661017 1113.59455,294.238688 C1113.59455,288.816358 1117.98661,284.420814 1123.40465,284.420814 Z M978.928686,290.966063 C981.719533,290.966063 983.982372,293.230696 983.982372,296.023756 C983.982372,298.816816 981.719533,301.081448 978.928686,301.081448 C976.137838,301.081448 973.875,298.816816 973.875,296.023756 C973.875,293.230696 976.137838,290.966063 978.928686,290.966063 Z M1320.79567,258.239819 C1323.58652,258.239819 1325.84936,260.504451 1325.84936,263.297511 C1325.84936,266.090571 1323.58652,268.355204 1320.79567,268.355204 C1318.00483,268.355204 1315.74199,266.090571 1315.74199,263.297511 C1315.74199,260.504451 1318.00483,258.239819 1320.79567,258.239819 Z M852.289263,238.00905 C855.08011,238.00905 857.342949,240.273682 857.342949,243.066742 C857.342949,245.859802 855.08011,248.124434 852.289263,248.124434 C849.498415,248.124434 847.235577,245.859802 847.235577,243.066742 C847.235577,240.273682 849.498415,238.00905 852.289263,238.00905 Z M708.407853,236.223982 C711.1987,236.223982 713.461538,238.488614 713.461538,241.281674 C713.461538,244.074734 711.1987,246.339367 708.407853,246.339367 C705.617005,246.339367 703.354167,244.074734 703.354167,241.281674 C703.354167,238.488614 705.617005,236.223982 708.407853,236.223982 Z M432.72516,209.86086 C436.036285,209.86086 438.720407,212.54711 438.720407,215.86086 C438.720407,219.17461 436.036285,221.86086 432.72516,221.86086 C429.414035,221.86086 426.729913,219.17461 426.729913,215.86086 C426.729913,212.54711 429.414035,209.86086 432.72516,209.86086 Z M1071.67869,209.447964 C1074.46953,209.447964 1076.73237,211.712596 1076.73237,214.505656 C1076.73237,217.298716 1074.46953,219.563348 1071.67869,219.563348 C1068.88784,219.563348 1066.625,217.298716 1066.625,214.505656 C1066.625,211.712596 1068.88784,209.447964 1071.67869,209.447964 Z M1478.94631,175.531674 C1481.73716,175.531674 1484,177.796307 1484,180.589367 C1484,183.382427 1481.73716,185.647059 1478.94631,185.647059 C1476.15547,185.647059 1473.89263,183.382427 1473.89263,180.589367 C1473.89263,177.796307 1476.15547,175.531674 1478.94631,175.531674 Z M1251.23317,152.920814 C1254.02402,152.920814 1256.28686,155.185447 1256.28686,157.978507 C1256.28686,160.771567 1254.02402,163.036199 1251.23317,163.036199 C1248.44233,163.036199 1246.17949,160.771567 1246.17949,157.978507 C1246.17949,155.185447 1248.44233,152.920814 1251.23317,152.920814 Z M927.797276,119.599548 C930.588123,119.599548 932.850962,121.86418 932.850962,124.65724 C932.850962,127.4503 930.588123,129.714932 927.797276,129.714932 C925.006428,129.714932 922.74359,127.4503 922.74359,124.65724 C922.74359,121.86418 925.006428,119.599548 927.797276,119.599548 Z M1108.54087,117.219457 C1111.33171,117.219457 1113.59455,119.484089 1113.59455,122.277149 C1113.59455,125.070209 1111.33171,127.334842 1108.54087,127.334842 C1105.75002,127.334842 1103.48718,125.070209 1103.48718,122.277149 C1103.48718,119.484089 1105.75002,117.219457 1108.54087,117.219457 Z M1221.50561,42.841629 C1224.29646,42.841629 1226.55929,45.1062613 1226.55929,47.8993213 C1226.55929,50.6923813 1224.29646,52.9570136 1221.50561,52.9570136 C1218.71476,52.9570136 1216.45192,50.6923813 1216.45192,47.8993213 C1216.45192,45.1062613 1218.71476,42.841629 1221.50561,42.841629 Z M1374.89984,19.040724 C1380.31787,19.040724 1384.70994,23.4362677 1384.70994,28.8585973 C1384.70994,34.2809269 1380.31787,38.6764706 1374.89984,38.6764706 C1369.48181,38.6764706 1365.08974,34.2809269 1365.08974,28.8585973 C1365.08974,23.4362677 1369.48181,19.040724 1374.89984,19.040724 Z M1078.21875,0 C1081.0096,0 1083.27244,2.26463231 1083.27244,5.05769231 C1083.27244,7.85075231 1081.0096,10.1153846 1078.21875,10.1153846 C1075.4279,10.1153846 1073.16506,7.85075231 1073.16506,5.05769231 C1073.16506,2.26463231 1075.4279,0 1078.21875,0 Z" id="path-7"></path>
        <filter x="-0.4%" y="-1.1%" width="100.8%" height="102.3%" filterUnits="objectBoundingBox" id="filter-8">
            <feGaussianBlur stdDeviation="2" in="SourceGraphic"></feGaussianBlur>
        </filter>
    </defs>
    <g id="登录页" stroke="none" stroke-width="1" fill="none" fill-rule="evenodd">
        <g id="Zues-V0.2.0登录页" transform="translate(-900.000000, -538.000000)">
            <rect fill="#FAFAFA" x="0" y="0" width="1440" height="880"></rect>
            <g id="底纹" transform="translate(0.000000, 7.000000)">
                <mask id="mask-2" fill="white">
                    <use xlink:href="#path-1"></use>
                </mask>
                <use id="蒙版" fill="#151822" xlink:href="#path-1"></use>
                <g mask="url(#mask-2)" id="形状结合">
                    <g transform="translate(-0.741648, 371.000000)">
                        <path d="M1374,24 L1249,155 M1318,260 L1374,24 M1476,177 L1318,261 M1248,154 L1318,260 M1374,24 L1106,120 M1220,44 L1121,291 M1106,120 L1121,292 M1069,212 L1121,292 M1106,120 L1248,155 M1196,372 L1249,155 M1121,291 L1248,154 M1318,260 L1121,292 M1340,408 L1318,261 M1465,359 L1340,408 M1195,372 L1340,408 M1318,260 L1196,372 M1121,292 L1340,409 M1318,260 L1106,120 M1374,24 L1476,177 M1219,44 L1374,24 M1106,120 L1220,44 M1068,212 L1106,120 M1122,291 L977,293 M1069,212 L977,293 M924,121 L1069,212 M848,238 L1069,211 M1106,120 L848,238 M923,121 L847,238 M1075,1 L1106,120 M1220,44 L1075,1 M1106,120 L923,121 M848,238 L887,370 M976,293 L848,238 M1024,396 L977,293 M887,370 L977,293 M1024,396 L1069,211 M1196,372 L1024,396 M1120,291 L1023,396 M1195,372 L1121,292 M1023,397 L886,370 M848,238 L1023,396 M924,121 L977,293 M848,238 L705,236 M631,315 L705,237 M757,399 L705,237 M631,315 L848,238 M886,371 L704,237 M757,398 L887,370 M631,315 L758,398 M848,238 L757,399 M631,315 L509,351 M431,216 L631,315 M704,237 L601,534 M509,351 L758,399 M431,217 L508,351 M705,237 L431,217 M631,315 L359,302 M508,351 L454,416 M431,216 L359,302 M324,408 L454,416 M431,217 L454,416 M508,351 L324,409 M359,303 L324,409 M509,351 L359,303 M221,335 L358,302 M324,409 L222,335 M165,415 L221,335 M359,303 L165,415 M324,409 L164,415 M0,389 L165,415 M165,414 L13,484 M324,409 L221,508 M509,351 L484,523 M454,416 L338,521 M359,302 L454,416 M222,335 L228,484 M165,415 L151,505 M509,351 L586,504 M630,315 L587,520 M757,398 L674,525 M704,237 L870,501 M886,370 L855,525 M757,398 L862,517 M1099,498 L853,517 M1024,396 L850,521 M887,371 L1099,498 M1024,397 L1099,497 M1196,372 L1099,497 M1121,292 L1098,498 M1195,372 L1339,516 M1340,409 L1099,498 M1318,260 L1465,359 M1374,24 L1465,359 M1339,516 L1340,408 M1465,359 L1196,372 M1340,408 L1106,120 M976,293 L1106,119 M1249,154 L1075,1 M1068,211 L1075,0 M324,408 L432,521 M454,416 L518,499 M630,315 L694,514 M1479,180 L1220,44 M1248,156 L1221,46 M1219,43 L1465,358" stroke="url(#linearGradient-3)" stroke-width="1" opacity="0.531608945" filter="url(#filter-4)"></path>
                        <g stroke="none" filter="url(#filter-8)" fill-rule="evenodd">
                            <use fill="url(#linearGradient-5)" xlink:href="#path-7"></use>
                            <use fill="url(#linearGradient-6)" xlink:href="#path-7"></use>
                        </g>
                    </g>
                </g>
            </g>
            <g id="编组-2" transform="translate(845.000000, 292.000000)">
                <rect id="bg" fill="#FFFFFF" fill-rule="nonzero" x="0" y="0" width="360" height="380" rx="8"></rect>
                <g id="编组" transform="translate(39.000000, 216.000000)">
                    <rect id="BG备份" stroke="#C0C6CC" fill="#FFFFFF" x="0.5" y="22.5" width="279" height="31" rx="2"></rect>
                    <g id="password" transform="translate(16.005521, 30.000000)" fill="#666666" fill-rule="nonzero">
                        <path d="M0.847280847,7.64609938 L0.847280847,15.7285318 C0.849221124,15.9621449 1.03875374,16.1503874 1.27162731,16.1499905 L12.7085059,16.1499905 C12.9457445,16.1499905 13.1328524,15.9622817 13.1328524,15.728886 L13.1328524,7.64645356 C13.1307193,7.41297914 12.941243,7.2249507 12.7085059,7.22534902 L1.27162731,7.22534902 C1.03438869,7.22534902 0.847280847,7.41305787 0.847280847,7.64645356 L0.847280847,7.64609938 Z M0,7.64609938 C0,7.30815352 0.133994336,6.98408864 0.372624077,6.74555721 C0.611253817,6.50702578 0.934764906,6.37367737 1.27162731,6.37498633 L12.7085059,6.37498633 C13.4091781,6.37460222 13.9779923,6.94318212 13.9801334,7.64609938 L13.9801334,15.7285318 C13.9803235,16.0665391 13.8462743,16.3906951 13.6076343,16.6293032 C13.3689943,16.8679114 13.0454295,17.0013083 12.7085059,16.9999991 L1.27162731,16.9999991 C0.570955138,17.0003832 0.00214088953,16.4318033 0,15.728886 L0,7.64645356 L0,7.64609938 Z" id="Shape"></path>
                        <path d="M3.38912322,3.61249774 C3.38912322,2.08958203 4.62368195,0.849999469 6.14313883,0.849999469 L7.6255272,0.849999469 C9.14630944,0.850194972 10.379153,2.0868358 10.3795428,3.61249774 L10.3795428,5.1318718 C10.3795428,5.1318718 10.49675,5.42335077 10.8300138,5.42335077 C11.1636306,5.42335077 11.2268236,5.13222596 11.2268236,5.13222596 L11.2268236,3.61249774 C11.2264706,1.61747815 9.61310673,0 7.62517417,0 L6.14278581,0 C4.15414717,0 2.54184243,1.62137399 2.54184243,3.61249774 L2.54184243,6.79999575 L3.38912322,6.63707919 L3.38912322,3.61249774 Z M3.38912322,3.61249774 C3.38912322,2.08958203 4.62368195,0.849999469 6.14313883,0.849999469 L7.6255272,0.849999469 C9.14630944,0.850194972 10.379153,2.0868358 10.3795428,3.61249774 L10.3795428,5.1318718 L11.2268236,5.1318718 L11.2268236,3.61249774 C11.2264706,1.61747815 9.61310673,0 7.62517417,0 L6.14278581,0 C4.15414717,0 2.54184243,1.62137399 2.54184243,3.61249774 L2.54184243,6.79999575 L3.38912322,6.63707919 L3.38912322,3.61249774 Z M6.79307381,9.57630651 L6.79307381,13.5794498 C6.79307381,13.8141707 6.98274408,14.0044496 7.21671421,14.0044496 C7.45068434,14.0044496 7.6403546,13.8141707 7.6403546,13.5794498 L7.6403546,9.57630651 C7.6403546,9.34158563 7.45068434,9.15130677 7.21671421,9.15130677 C6.98274408,9.15130677 6.79307381,9.34158563 6.79307381,9.57630651 Z" id="Shape"></path>
                    </g>
                </g>
            </g>
        </g>
    </g>
</svg>