<?xml version="1.0" encoding="UTF-8"?>
<svg width="27px" height="30px" viewBox="0 0 27 30" version="1.1" xmlns="http://www.w3.org/2000/svg" xmlns:xlink="http://www.w3.org/1999/xlink">
    <title>编组 64备份</title>
    <g id="githuab-v1.0" stroke="none" stroke-width="1" fill="none" fill-rule="evenodd">
        <g id="我的项目" transform="translate(-244.000000, -197.000000)">
            <g id="编组-64备份" transform="translate(244.000000, 197.000000)">
                <path d="M0.000927908286,0 L22.7382419,0 C22.7423776,0.0824532001 22.7492442,0.156991508 22.7492442,0.231452972 C22.7497905,7.7230908 22.7395685,15.2147286 22.756746,22.7063665 C22.7612609,24.6889317 21.3459433,26.3320788 19.486632,26.6603547 C19.2388851,26.7040787 18.983023,26.7210612 18.7309064,26.7212149 C13.8154517,26.7247283 8.89991888,26.7265171 3.9843861,26.7223675 C1.77830716,26.7205233 0.00365897658,24.9773258 0.00241048822,22.8043421 C-0.00188119053,15.2678276 0.000849877763,7.73138991 0.000927908286,0.194875411 L0.000927908286,0 Z" id="路径备份-7" fill="#D4D4D4"></path>
                <g id="编组-58备份-2" transform="translate(4.243254, 3.275272)">
                    <path d="M0.000927908286,0 L22.7382419,0 C22.7423776,0.0824532001 22.7492442,0.156991508 22.7492442,0.231452972 C22.7497905,7.7230908 22.7395685,15.2147286 22.756746,22.7063665 C22.7612609,24.6889317 21.3459433,26.3320788 19.486632,26.6603547 C19.2388851,26.7040787 18.983023,26.7210612 18.7309064,26.7212149 C13.8154517,26.7247283 8.89991888,26.7265171 3.9843861,26.7223675 C1.77830716,26.7205233 0.00365897658,24.9773258 0.00241048822,22.8043421 C-0.00188119053,15.2678276 0.000849877763,7.73138991 0.000927908286,0.194875411 L0.000927908286,0 Z" id="路径" fill="#575757"></path>
                    <path d="M7.9439368,22.8772209 C6.24744978,22.8787862 4.87442925,21.5198159 4.87799873,19.8426052 C4.88159616,18.1842114 6.24872389,16.8351983 7.92697512,16.8342563 C9.63405325,16.8332383 11.0038885,18.1782527 11.0036496,19.8552282 C11.0034107,21.5212272 9.63214207,22.8756501 7.9439368,22.8772209 Z" id="Fill-3" fill="#FFFFFF"></path>
                    <polygon id="Fill-5" fill="#FFFFFF" points="4.89283228 6.59977547 18.3376353 6.59977547 18.3376353 4.61255678 4.89283228 4.61255678"></polygon>
                    <polygon id="Fill-7" fill="#FFFFFF" points="4.88877103 11.4195609 12.2100076 11.4195609 12.2100076 9.42497228 4.88877103 9.42497228"></polygon>
                    <path d="M18.5565207,22.6791157 C18.5575559,22.827769 18.5225177,22.8845332 18.3587936,22.8817107 C17.8019248,22.8719102 17.2447374,22.8741839 16.6877889,22.880613 C16.5480342,22.8822595 16.4869562,22.8532502 16.4873544,22.6991086 C16.4918138,20.9362811 16.4915749,19.1734537 16.4870319,17.4106262 C16.4866377,17.2575823 16.5469194,17.2263776 16.6874704,17.2279457 C17.2444189,17.2343748 17.8016062,17.2364133 18.3584751,17.2270049 C18.5215621,17.2241823 18.5573966,17.280633 18.5563614,17.4298351 C18.5503094,18.3112488 18.553415,19.1926626 18.5534947,20.0740763 C18.5535743,20.9423966 18.5505483,21.8107953 18.5565207,22.6791157 Z" id="Fill-8" fill="#FFFFFF"></path>
                    <path d="M14.8870313,22.7179255 C14.888624,22.8331004 14.8533469,22.880613 14.7286427,22.8795938 C14.1449377,22.8748896 13.5611532,22.8750464 12.9774482,22.8797506 C12.8543366,22.8807698 12.8170687,22.8360014 12.817614,22.7194151 C12.8212096,22.014096 12.82113,21.3086984 12.8177854,20.6033009 C12.817228,20.4885179 12.8510717,20.4402997 12.9760148,20.4413189 C13.5597198,20.4462584 14.1435043,20.44618 14.7272093,20.4417894 C14.8495245,20.4408485 14.8893407,20.4845193 14.8875888,20.6018112 C14.8824127,20.9544708 14.8857572,21.3072088 14.8855183,21.6598683 C14.8852794,22.0125279 14.8821738,22.3652659 14.8870313,22.7179255 Z" id="Fill-9" fill="#FFFFFF"></path>
                </g>
            </g>
        </g>
    </g>
</svg>