<?xml version="1.0" standalone="no"?><!DOCTYPE svg PUBLIC "-//W3C//DTD SVG 1.1//EN" "http://www.w3.org/Graphics/SVG/1.1/DTD/svg11.dtd"><svg t="1638273223839" class="icon" viewBox="0 0 1024 1024" version="1.1" xmlns="http://www.w3.org/2000/svg" p-id="2796" width="12" height="12" xmlns:xlink="http://www.w3.org/1999/xlink"><defs><style type="text/css"></style></defs><path d="M512 505.6c19.2 0 38.4-19.2 38.4-38.4v-428.8c0-19.2-19.2-38.4-38.4-38.4s-38.4 19.2-38.4 38.4v428.8c0 19.2 12.8 38.4 38.4 38.4zM710.4 128c6.4 0 12.8 6.4 19.2 6.4 19.2 12.8 44.8 6.4 57.6-12.8 12.8-19.2 6.4-44.8-12.8-57.6-6.4-6.4-12.8-6.4-19.2-12.8-19.2-12.8-44.8 0-51.2 19.2-19.2 25.6-12.8 44.8 6.4 57.6z" p-id="2797" fill="#ffffff"></path><path d="M934.4 224c-12.8-19.2-38.4-25.6-57.6-12.8-6.4 6.4-12.8 12.8-19.2 25.6 0 12.8 0 19.2 6.4 32 44.8 70.4 70.4 153.6 70.4 236.8a428.8 428.8 0 0 1-857.6 0c0-160 89.6-307.2 230.4-384 19.2-12.8 25.6-32 19.2-51.2-12.8-19.2-32-25.6-51.2-19.2-172.8 89.6-275.2 262.4-275.2 454.4 0 281.6 230.4 512 512 512s512-230.4 512-512c0-96-32-198.4-89.6-281.6z" p-id="2798" fill="#ffffff"></path></svg>