<?xml version="1.0" encoding="UTF-8"?>
<svg width="16px" height="14px" viewBox="0 0 16 14" version="1.1" xmlns="http://www.w3.org/2000/svg" xmlns:xlink="http://www.w3.org/1999/xlink">
    <title>编组</title>
    <g id="Zeus-V0.2.0（1.0组件样式）" stroke="none" stroke-width="1" fill="none" fill-rule="evenodd">
        <g id="V0.2.0实例可视化展示" transform="translate(-277.000000, -644.000000)" fill="#FFFFFF" fill-rule="nonzero">
            <g id="编组" transform="translate(277.000000, 644.000000)">
                <path d="M14.6437047,6.5 C14.3627984,6.5 14.1329659,6.725 14.1329659,7 C14.1329659,10.3083333 11.3834886,13 8.00410014,13 C5.57809078,13 3.40745082,11.5916667 2.42853477,9.49166667 L3.49257396,10.1 C3.73943105,10.2416667 4.04587434,10.1583333 4.19058367,9.91666667 C4.335293,9.675 4.25016987,9.375 4.00331277,9.23333333 L1.95184521,8.06666667 C1.70498811,7.925 1.39854483,8.00833333 1.2538355,8.25 L0.0706239136,10.25 C-0.0740854167,10.4916667 0.0110377188,10.7916667 0.257894812,10.9333333 C0.334505634,10.9833333 0.428141083,11 0.513264218,11 C0.692022803,11 0.862269074,10.9083333 0.955904523,10.75 L1.48366796,9.86666667 C2.61580566,12.3416667 5.16098742,14 8.00410014,14 C11.9453013,14 15.1544435,10.8583333 15.1544435,7 C15.1544435,6.725 14.9246111,6.5 14.6437047,6.5 Z" id="路径"></path>
                <path d="M5.9696572,10.3166667 C6.06329265,10.3166667 6.16544041,10.2916667 6.25056355,10.25 L11.4175379,7.51666667 C11.6133211,7.41666667 11.7324935,7.21666667 11.7324935,7 C11.7324935,6.78333333 11.6133211,6.59166667 11.4175379,6.48333333 L6.25056355,3.75 C6.06329265,3.65 5.8419725,3.65833333 5.66321391,3.75833333 C5.48445533,3.86666667 5.37379525,4.05833333 5.37379525,4.25833333 L5.37379525,9.725 C5.37379525,9.93333333 5.48445533,10.125 5.66321391,10.225 C5.75684936,10.2916667 5.85899713,10.3166667 5.9696572,10.3166667 Z" id="路径"></path>
                <path d="M15.7503055,3.05833333 C15.5034484,2.925 15.1970051,3.00833333 15.0522958,3.24166667 L14.5330446,4.13333333 C13.3923946,1.65833333 10.8387006,0 8.00410014,0 C4.06289897,0 0.85375676,3.14166667 0.85375676,7 C0.85375676,7.275 1.08358923,7.5 1.36449557,7.5 C1.64540192,7.5 1.87523439,7.275 1.87523439,7 C1.87523439,3.69166667 4.62471166,1 8.00410014,1 C10.4301095,1 12.6007495,2.40833333 13.5881778,4.51666667 L12.5156263,3.91666667 C12.2687692,3.78333333 11.9623259,3.86666667 11.8176166,4.1 C11.6814196,4.34166667 11.7665427,4.64166667 12.0048875,4.78333333 L14.0563551,5.93333333 C14.1329659,5.975 14.2266013,6 14.3117245,6 C14.4904831,6 14.6607293,5.90833333 14.7543648,5.75 L15.9290641,3.74166667 C16.0737734,3.5 15.9886502,3.2 15.7503055,3.05833333 Z" id="路径"></path>
            </g>
        </g>
    </g>
</svg>