<?xml version="1.0" encoding="UTF-8"?>
<svg width="200px" height="200px" viewBox="0 0 200 200" version="1.1" xmlns="http://www.w3.org/2000/svg" xmlns:xlink="http://www.w3.org/1999/xlink">
    <title>矩形备份 41</title>
    <defs>
        <polygon id="path-1" points="0 0 69.1274226 0 69.1274226 8.1957254 0 8.1957254"></polygon>
        <polygon id="path-3" points="0 0 69.1274226 0 69.1274226 59.9970394 0 59.9970394"></polygon>
        <polygon id="path-5" points="1.04832 19.3714802 26.6559214 19.3714802 26.6559214 33.7935584 1.04832 33.7935584"></polygon>
        <polygon id="path-7" points="15.514564 0 41.1222152 0 41.1222152 14.4221773 15.514564 14.4221773"></polygon>
        <polygon id="path-9" points="31.0028198 19.3714802 41.1222152 19.3714802 41.1222152 33.7935584 31.0028198 33.7935584"></polygon>
        <polygon id="path-11" points="0 0 33.046875 0 33.046875 33.0468713 0 33.0468713"></polygon>
    </defs>
    <g id="Zeus-V0.2.0（1.0组件样式）" stroke="none" stroke-width="1" fill="none" fill-rule="evenodd">
        <g id="用户操作引导页" transform="translate(-1063.000000, -207.000000)">
            <rect fill="#FFFFFF" x="0" y="0" width="1440" height="800"></rect>
            <g id="编组-72" transform="translate(1063.000000, 207.000000)">
                <rect id="矩形备份-41" fill="#EDEFF4" opacity="0.3" x="0" y="0" width="200" height="200"></rect>
                <g id="编组-69" transform="translate(52.444444, 58.333333)">
                    <path d="M88.8623188,60.5555556 L78.7487923,60.5555556 C77.481401,60.5555556 76.4444444,59.518599 76.4444444,58.2512077 L76.4444444,48.1376812 C76.4444444,46.8702899 77.481401,45.8333333 78.7487923,45.8333333 L88.8623188,45.8333333 C90.1297101,45.8333333 91.1666667,46.8702899 91.1666667,48.1376812 L91.1666667,58.2512077 C91.1666667,59.518599 90.1297101,60.5555556 88.8623188,60.5555556" id="Fill-1备份" fill="#7CB305"></path>
                    <g id="分组-copy-6" transform="translate(12.833333, 15.057977)">
                        <g id="分组">
                            <mask id="mask-2" fill="white">
                                <use xlink:href="#path-1"></use>
                            </mask>
                            <g id="Clip-2"></g>
                            <path d="M69.1274226,8.1957254 L-6.08256e-05,8.1957254 L-6.08256e-05,2.31134717 C-6.08256e-05,1.03488974 1.08932567,-2.88922006e-05 2.43296317,-2.88922006e-05 L66.6943986,-2.88922006e-05 C68.0381374,-2.88922006e-05 69.1274226,1.03488974 69.1274226,2.31134717 L69.1274226,8.1957254 Z" id="Fill-1" fill="#253369" mask="url(#mask-2)"></path>
                        </g>
                        <g id="分组" transform="translate(0.000000, 7.887571)">
                            <mask id="mask-4" fill="white">
                                <use xlink:href="#path-3"></use>
                            </mask>
                            <g id="Clip-4"></g>
                            <path d="M66.6943986,59.9970394 L2.43296317,59.9970394 C1.08932567,59.9970394 -6.08256e-05,58.9143913 -6.08256e-05,57.5788399 L-6.08256e-05,0 L69.1274226,0 L69.1274226,57.5788399 C69.1274226,58.9143913 68.0381374,59.9970394 66.6943986,59.9970394" id="Fill-3" fill="#E4EBF7" mask="url(#mask-4)"></path>
                        </g>
                        <path d="M5.67123934,4.07521282 C5.67123934,4.90523353 4.99409442,5.57819094 4.15880845,5.57819094 C3.32362288,5.57819094 2.64657836,4.90523353 2.64657836,4.07521282 C2.64657836,3.2451921 3.32362288,2.5722347 4.15880845,2.5722347 C4.99409442,2.5722347 5.67123934,3.2451921 5.67123934,4.07521282" id="Fill-5" fill="#FF7946"></path>
                        <path d="M10.9643961,4.07521282 C10.9643961,4.90523353 10.2873291,5.57819094 9.45201537,5.57819094 C8.61680207,5.57819094 7.93973508,4.90523353 7.93973508,4.07521282 C7.93973508,3.2451921 8.61680207,2.5722347 9.45201537,2.5722347 C10.2873291,2.5722347 10.9643961,3.2451921 10.9643961,4.07521282" id="Fill-7" fill="#FFC53D"></path>
                        <path d="M17.013718,4.07521282 C17.013718,4.90523353 16.336651,5.57819094 15.5013373,5.57819094 C14.666124,5.57819094 13.989057,4.90523353 13.989057,4.07521282 C13.989057,3.2451921 14.666124,2.5722347 15.5013373,2.5722347 C16.336651,2.5722347 17.013718,3.2451921 17.013718,4.07521282" id="Fill-9" fill="#BAE637"></path>
                        <path d="M7.56302518,60.0611478 C7.14458015,60.0611478 6.80548721,59.7217034 6.80548721,59.3030363 L6.80548721,15.3541712 C6.80548721,14.9355041 7.14458015,14.5960597 7.56302518,14.5960597 L62.3822601,14.5960597 C62.8006104,14.5960597 63.139798,14.9355041 63.139798,15.3541712 L63.139798,59.3030363 C63.139798,59.7217034 62.8006104,60.0611478 62.3822601,60.0611478 L7.56302518,60.0611478 Z" id="Fill-11" fill="#FFFFFF"></path>
                        <g id="分组" transform="translate(13.628160, 20.879275)">
                            <mask id="mask-6" fill="white">
                                <use xlink:href="#path-5"></use>
                            </mask>
                            <g id="Clip-2"></g>
                            <path d="M25.6078006,20.5742094 L25.6078006,32.5388714 C25.6078006,33.2144157 25.0521591,33.767629 24.3730418,33.767629 L1.23525661,33.767629 C0.556139312,33.767629 0,33.2144157 0,32.5388714 L0,20.5742094 C0,19.8981698 0.556139312,19.3454518 1.23525661,19.3454518 L24.3730418,19.3454518 C25.0521591,19.3454518 25.6078006,19.8981698 25.6078006,20.5742094" id="Fill-1" fill="#FFC53D"></path>
                            <mask id="mask-8" fill="white">
                                <use xlink:href="#path-7"></use>
                            </mask>
                            <g id="Clip-4"></g>
                            <path d="M43.1718067,13.2210538 C43.1718067,13.8965981 42.6161653,14.4498114 41.937048,14.4498114 L1.23525661,14.4498114 C0.556139312,14.4498114 0,13.8965981 0,13.2210538 L0,1.25589653 C0,0.580352242 0.556139312,0.0276341852 1.23525661,0.0276341852 L41.937048,0.0276341852 C42.6161653,0.0276341852 43.1718067,0.580352242 43.1718067,1.25589653 L43.1718067,13.2210538 Z" id="Fill-3" fill="#597EF7"></path>
                            <mask id="mask-10" fill="white">
                                <use xlink:href="#path-9"></use>
                            </mask>
                            <g id="Clip-6"></g>
                            <path d="M43.1416248,32.5388714 C43.1416248,33.2144157 42.5859833,33.767629 41.906866,33.767629 L31.3875056,33.767629 C30.7083883,33.767629 30.1527469,33.2144157 30.1527469,32.5388714 L30.1527469,20.5742094 C30.1527469,19.8981698 30.7083883,19.3454518 31.3875056,19.3454518 L41.906866,19.3454518 C42.5859833,19.3454518 43.1416248,19.8981698 43.1416248,20.5742094 L43.1416248,32.5388714 Z" id="Fill-5" fill="#FF7946"></path>
                        </g>
                    </g>
                    <g id="分组备份-11" opacity="0.21030971" transform="translate(2.666667, 12.944444) rotate(-270.000000) translate(-2.666667, -12.944444) translate(0.000000, 10.277778)" fill="#597EF7">
                        <path d="M4.49509605,5.33333333 L0.83819209,5.33333333 C0.377175141,5.33333333 0,4.95920117 0,4.50200324 L0,0.831374922 C0,0.374132163 0.377175141,0 0.83819209,0 L4.49509605,0 C4.95611299,0 5.33333333,0.374132163 5.33333333,0.831374922 L5.33333333,4.50200324 C5.33333333,4.95920117 4.95611299,5.33333333 4.49509605,5.33333333" id="Fill-3"></path>
                    </g>
                    <g id="分组备份-12" opacity="0.21030971" transform="translate(91.044444, 80.155556) rotate(-360.000000) translate(-91.044444, -80.155556) translate(88.111111, 77.222222)" fill="#597EF7">
                        <path d="M4.94460565,5.86666667 L0.922011299,5.86666667 C0.414892655,5.86666667 0,5.45512129 0,4.95220356 L0,0.914512414 C0,0.41154538 0.414892655,0 0.922011299,0 L4.94460565,0 C5.45172429,0 5.86666667,0.41154538 5.86666667,0.914512414 L5.86666667,4.95220356 C5.86666667,5.45512129 5.45172429,5.86666667 4.94460565,5.86666667" id="Fill-3"></path>
                    </g>
                    <g id="编组" transform="translate(55.888889, 0.000000)">
                        <g id="分组" transform="translate(3.059896, 3.059896)">
                            <g>
                                <mask id="mask-12" fill="white">
                                    <use xlink:href="#path-11"></use>
                                </mask>
                                <g id="Clip-2"></g>
                                <path d="M16.5234375,-3.68826731e-06 C7.39777902,-3.68826731e-06 0,7.39777533 0,16.5234338 C0,25.6490554 7.39777902,33.0468713 16.5234375,33.0468713 C25.649096,33.0468713 33.046875,25.6490554 33.046875,16.5234338 C33.046875,7.39777533 25.649096,-3.68826731e-06 16.5234375,-3.68826731e-06" id="Fill-1" fill="#597EF7" mask="url(#mask-12)"></path>
                            </g>
                            <path d="M13.8609843,22.1363349 L12.8177948,21.0931454 L22.9266347,10.9474228 C23.2722991,10.6017215 23.8327682,10.6017215 24.1784695,10.9474228 L24.59576,11.3646765 C24.9414244,11.7103778 24.9414244,12.2708469 24.59576,12.6165482 L15.1128191,22.1363349 C14.7671547,22.4820362 14.2066856,22.4820362 13.8609843,22.1363349" id="Fill-3" fill="#FFFFFF"></path>
                            <path d="M16.1541239,21.093138 L15.1109344,22.1363275 C14.7652331,22.4820288 14.204764,22.4820288 13.8590996,22.1363275 L9.70515166,17.9823796 C9.35945037,17.6367152 9.35945037,17.0762461 9.70515166,16.7305448 L10.1224053,16.3132911 C10.4681066,15.9675898 11.0285757,15.9675898 11.374277,16.3132911 L16.1541239,21.093138 Z" id="Fill-5" fill="#FFFFFF"></path>
                        </g>
                    </g>
                </g>
            </g>
        </g>
    </g>
</svg>