<?xml version="1.0" encoding="UTF-8"?>
<svg width="200px" height="200px" viewBox="0 0 200 200" version="1.1" xmlns="http://www.w3.org/2000/svg" xmlns:xlink="http://www.w3.org/1999/xlink">
    <title>矩形备份</title>
    <g id="Zeus-V0.2.0（1.0组件样式）" stroke="none" stroke-width="1" fill="none" fill-rule="evenodd">
        <g id="用户操作引导页" transform="translate(-670.000000, -207.000000)">
            <rect fill="#FFFFFF" x="0" y="0" width="1440" height="800"></rect>
            <g id="编组-71" transform="translate(670.000000, 207.000000)">
                <rect id="矩形备份" fill="#EDEFF4" opacity="0.3" x="0" y="0" width="200" height="200"></rect>
                <g id="资源-11" transform="translate(39.166667, 60.088000)">
                    <line x1="89.5333333" y1="0.0161472905" x2="89.5333333" y2="34.1786667" id="路径" stroke="#FFFFFF" stroke-width="0.666666667" stroke-linecap="round" stroke-linejoin="round"></line>
                    <g id="分组-2" transform="translate(13.866667, 3.746667)">
                        <rect id="矩形-copy" fill="#597EF7" fill-rule="nonzero" x="0" y="0" width="85.204" height="42.6986667" rx="3.2"></rect>
                        <rect id="矩形-copy-2" fill="#2A55BB" fill-rule="nonzero" x="34.1333333" y="10.6666667" width="38.2666667" height="4.26666667" rx="1.06666667"></rect>
                        <rect id="矩形-copy-3" fill="#597EF7" fill-rule="nonzero" x="34.1333333" y="27.7333333" width="21.4666667" height="4.26666667" rx="1.06666667"></rect>
                        <rect id="矩形-copy-4" fill="#2A55BB" fill-rule="nonzero" x="34.1333333" y="19.2" width="38.2666667" height="4.26666667" rx="1.06666667"></rect>
                        <rect id="矩形-copy-5" fill="#2A55BB" fill-rule="nonzero" x="5.33333333" y="10.6666667" width="17.0666667" height="17.0666667" rx="2.13333333"></rect>
                        <line x1="27.8" y1="10.6666667" x2="27.8" y2="38.4453333" id="路径-copy" stroke="#FFFFFF" stroke-width="0.666666667" stroke-linecap="round" stroke-linejoin="round"></line>
                    </g>
                    <rect id="矩形" fill="#E4EBF7" fill-rule="nonzero" x="0" y="29.7786667" width="85.204" height="42.6986667" rx="3.2"></rect>
                    <rect id="矩形" fill="#597EF7" fill-rule="nonzero" x="34.1333333" y="40.4453333" width="38.2666667" height="4.26666667" rx="1.06666667"></rect>
                    <rect id="矩形" fill="#597EF7" fill-rule="nonzero" x="34.1333333" y="57.512" width="21.4666667" height="4.26666667" rx="1.06666667"></rect>
                    <rect id="矩形" fill="#597EF7" fill-rule="nonzero" x="34.1333333" y="48.9786667" width="38.2666667" height="4.26666667" rx="1.06666667"></rect>
                    <rect id="矩形" fill="#597EF7" fill-rule="nonzero" x="5.33333333" y="40.4453333" width="17.0666667" height="17.0666667" rx="2.13333333"></rect>
                    <line x1="27.8" y1="40.4453333" x2="27.8" y2="68.224" id="路径" stroke="#FFFFFF" stroke-width="0.666666667" stroke-linecap="round" stroke-linejoin="round"></line>
                </g>
                <g id="编组" transform="translate(126.944444, 113.919229)" fill="#FF7946">
                    <polygon id="矩形备份" transform="translate(12.517372, 13.661781) rotate(-60.000000) translate(-12.517372, -13.661781) " points="-1.81240599 11.2177475 24.090401 11.1581222 26.8471495 15.9329508 1.04414535 16.1654395"></polygon>
                    <circle id="椭圆形备份-12" cx="4.02777778" cy="5.94188163" r="4.02777778"></circle>
                    <circle id="椭圆形备份-13" cx="19.5833333" cy="20.9418816" r="4.02777778"></circle>
                </g>
                <path d="M148.766878,80.3115335 L152.870225,88.5182277 C153.028298,88.834374 152.900155,89.2188047 152.584008,89.3768778 C152.495141,89.4213116 152.397148,89.4444444 152.297792,89.4444444 L144.091097,89.4444444 C143.737635,89.4444444 143.451097,89.1579067 143.451097,88.8044444 C143.451097,88.7050876 143.47423,88.6070952 143.518664,88.5182277 L147.622011,80.3115335 C147.780084,79.9953872 148.164515,79.8672437 148.480661,80.0253168 C148.604519,80.0872455 148.704949,80.1876759 148.766878,80.3115335 Z" id="三角形" fill="#FFC53D" transform="translate(148.194444, 84.305556) rotate(-270.000000) translate(-148.194444, -84.305556) "></path>
                <path d="M38.0555556,79.2578124 C36.010865,79.2578124 34.3532987,77.6002461 34.3532987,75.5555556 C34.3532987,73.510865 36.010865,71.8532987 38.0555556,71.8532987 C40.1002461,71.8532987 41.7578124,73.510865 41.7578124,75.5555556 C41.7578124,77.6002461 40.1002461,79.2578124 38.0555556,79.2578124 L38.0555556,79.2578124 Z M49.1666667,77.2302715 L49.1666667,73.880797 L46.5267995,73.2100425 C46.3332161,72.5091589 46.055033,71.8434685 45.7038252,71.2245887 L47.0964855,68.8830333 L44.7280778,66.514583 L42.3865224,67.9072859 C41.7676001,67.5560356 41.1019096,67.277895 40.4010686,67.084269 L39.7302715,64.4444444 L36.380797,64.4444444 L35.7100425,67.084269 C35.0091589,67.277895 34.3434685,67.5560356 33.7245887,67.9072859 L31.3830333,66.514583 L29.014583,68.8830333 L30.4072434,71.2245887 C30.0560781,71.8434685 29.777895,72.5092015 29.584269,73.2100425 L26.9444444,73.880797 L26.9444444,77.2302715 L29.584269,77.9010686 C29.777895,78.6019096 30.0560781,79.2676001 30.4072434,79.8865224 L29.014583,82.2280778 L31.3830333,84.5965281 L33.7245887,83.2038252 C34.3434685,83.555033 35.0091589,83.8332161 35.7100425,84.0268421 L36.380797,86.6666667 L39.7302715,86.6666667 L40.4010686,84.0268421 C41.1019096,83.8332161 41.7676001,83.555033 42.3865224,83.2038252 L44.7280778,84.5965281 L47.0964855,82.2280778 L45.7038252,79.8865224 C46.055033,79.2676001 46.3332161,78.6019096 46.5267995,77.9010686 L49.1666667,77.2302715 Z" id="Fill-1" fill="#7DB308"></path>
                <g id="分组备份-2" opacity="0.21030971" transform="translate(97.843581, 141.312183) rotate(-270.000000) translate(-97.843581, -141.312183) translate(95.806544, 139.275146)" fill="#597EF7">
                    <path d="M3.43375392,4.07407407 L0.640285625,4.07407407 C0.2881199,4.07407407 4.54747351e-13,3.78827867 4.54747351e-13,3.43903025 L4.54747351e-13,0.635078066 C4.54747351e-13,0.285795403 0.2881199,0 0.640285625,0 L3.43375392,0 C3.78591965,0 4.07407407,0.285795403 4.07407407,0.635078066 L4.07407407,3.43903025 C4.07407407,3.78827867 3.78591965,4.07407407 3.43375392,4.07407407" id="Fill-3"></path>
                </g>
                <g id="分组备份-3" opacity="0.21030971" transform="translate(26.944444, 103.611111) rotate(-270.000000) translate(-26.944444, -103.611111) translate(23.333333, 100.000000)" fill="#597EF7">
                    <path d="M6.08710923,7.22222222 L1.13505179,7.22222222 C0.510758004,7.22222222 0,6.71558492 0,6.09646272 L0,1.12582021 C0,0.506637305 0.510758004,0 1.13505179,0 L6.08710923,0 C6.71140301,0 7.22222222,0.506637305 7.22222222,1.12582021 L7.22222222,6.09646272 C7.22222222,6.71558492 6.71140301,7.22222222 6.08710923,7.22222222" id="Fill-3"></path>
                </g>
            </g>
        </g>
    </g>
</svg>