<?xml version="1.0" encoding="UTF-8"?>
<svg width="200px" height="200px" viewBox="0 0 200 200" version="1.1" xmlns="http://www.w3.org/2000/svg" xmlns:xlink="http://www.w3.org/1999/xlink">
    <title>矩形备份</title>
    <defs>
        <polygon id="path-1" points="0 56.037631 35.7376516 56.037631 35.7376516 100.136858 0 100.136858"></polygon>
    </defs>
    <g id="Zeus-V0.2.0（1.0组件样式）" stroke="none" stroke-width="1" fill="none" fill-rule="evenodd">
        <g id="用户操作引导页" transform="translate(-311.000000, -207.000000)">
            <rect fill="#FFFFFF" x="0" y="0" width="1440" height="800"></rect>
            <g id="编组-70" transform="translate(311.000000, 207.000000)">
                <rect id="矩形备份" fill="#EDEFF4" opacity="0.3" x="0" y="0" width="200" height="200"></rect>
                <g id="编组-68" transform="translate(42.777778, 46.944444)">
                    <g id="分组" transform="translate(31.940155, 45.841637)"></g>
                    <g id="分组" transform="translate(0.000000, 56.037631)"></g>
                    <g id="分组备份-4" opacity="0.21030971" transform="translate(107.671266, 64.293290) rotate(-270.000000) translate(-107.671266, -64.293290) translate(105.171266, 61.793290)"></g>
                    <g id="分组备份-6" opacity="0.21030971" transform="translate(60.032377, 102.674354) rotate(-225.000000) translate(-60.032377, -102.674354) translate(57.532377, 100.174354)"></g>
                    <g id="分组备份-5" opacity="0.21030971" transform="translate(49.337933, 7.071068) rotate(-225.000000) translate(-49.337933, -7.071068) translate(44.337933, 2.071068)"></g>
                    <g id="编组-60" transform="translate(0.000000, 0.000000)">
                        <circle id="椭圆形" fill="#EDEDED" opacity="0.503534226" cx="54.7545992" cy="55.2655123" r="48.1944444"></circle>
                        <path d="M92.8101547,38.6423024 C88.7974495,38.6423024 85.5444757,35.3893286 85.5444757,31.3766234 C85.5444757,27.3639181 88.7974495,24.1109443 92.8101547,24.1109443 C96.82286,24.1109443 100.075834,27.3639181 100.075834,31.3766234 C100.075834,35.3893286 96.82286,38.6423024 92.8101547,38.6423024 L92.8101547,38.6423024 Z M114.61571,34.6632535 L114.61571,28.0899097 L109.434971,26.773554 C109.055064,25.39807 108.509129,24.0916525 107.819884,22.8771009 L110.55298,18.2817984 L105.90498,13.6337148 L101.309677,16.3668942 C100.095042,15.6775654 98.7886246,15.1317146 97.4132241,14.7517235 L96.0967848,9.57106781 L89.5234411,9.57106781 L88.2070854,14.7517235 C86.8316014,15.1317146 85.5251839,15.6775654 84.3106323,16.3668942 L79.7153298,13.6337148 L75.0672461,18.2817984 L77.800342,22.8771009 C77.1111803,24.0916525 76.5652459,25.3981535 76.1852549,26.773554 L71.0045992,28.0899097 L71.0045992,34.6632535 L76.1852549,35.9796927 C76.5652459,37.3550932 77.1111803,38.6615107 77.800342,39.8761458 L75.0672461,44.4714483 L79.7153298,49.119532 L84.3106323,46.3863525 C85.5251839,47.0755978 86.8316014,47.6215322 88.2070854,48.0015232 L89.5234411,53.1821789 L96.0967848,53.1821789 L97.4132241,48.0015232 C98.7886246,47.6215322 100.095042,47.0755978 101.309677,46.3863525 L105.90498,49.119532 L110.55298,44.4714483 L107.819884,39.8761458 C108.509129,38.6615107 109.055064,37.3550932 109.434971,35.9796927 L114.61571,34.6632535 Z" id="Fill-1备份" fill="#597EF7"></path>
                        <path d="M22.1431544,37.2266234 L9.46588731,37.2266234 C7.86769522,37.2266234 6.56015473,35.9296319 6.56015473,34.344679 L6.56015473,21.6198342 C6.56015473,20.034726 7.86769522,18.7377345 9.46588731,18.7377345 L22.1431544,18.7377345 C23.7413464,18.7377345 25.0490436,20.034726 25.0490436,21.6198342 L25.0490436,34.344679 C25.0490436,35.9296319 23.7413464,37.2266234 22.1431544,37.2266234" id="Fill-3" fill="#7DB308" transform="translate(15.804599, 27.982179) rotate(-270.000000) translate(-15.804599, -27.982179) "></path>
                        <rect id="矩形" fill="#E4EBF7" fill-rule="nonzero" x="15.7268214" y="29.2619867" width="81.0666667" height="59.554197" rx="2.37355647"></rect>
                        <rect id="矩形" fill="#253369" fill-rule="nonzero" x="23.0453399" y="39.8516685" width="66.4296296" height="43.5120353" rx="0.902307246"></rect>
                        <rect id="矩形-copy-20" fill="#FFFFFF" fill-rule="nonzero" x="31.9426527" y="53.2158046" width="44.9633471" height="2.11180623"></rect>
                        <rect id="矩形-copy-20" fill="#FFC53D" fill-rule="nonzero" x="31.9414037" y="60.5619923" width="22.4816736" height="2.11180623"></rect>
                        <rect id="矩形-copy-20" fill="#E4EBF7" fill-rule="nonzero" x="31.9414037" y="75.2543679" width="22.4816736" height="2.11180623"></rect>
                        <rect id="矩形-copy-20" fill="#E4EBF7" fill-rule="nonzero" x="31.9401547" y="45.841637" width="13.4890041" height="2.11180623"></rect>
                        <rect id="矩形-copy-21" fill="#E4EBF7" fill-rule="nonzero" x="58.962377" y="60.5340126" width="6.75555556" height="2.11180623"></rect>
                        <rect id="矩形-copy-20" fill="#FFFFFF" fill-rule="nonzero" x="31.9420282" y="67.9081801" width="33.7225103" height="2.11180623"></rect>
                        <path d="M17.89825,26.5155123 L94.5813452,26.5155123 C95.7805921,26.5155123 96.7527738,27.4674904 96.7527738,28.641815 L96.7527738,34.9781973 L15.7268214,34.9781973 L15.7268214,28.641815 C15.7268214,27.4674904 16.6990031,26.5155123 17.89825,26.5155123 Z" id="路径" fill="#253369" fill-rule="nonzero"></path>
                        <ellipse id="椭圆形" fill="#FF7946" fill-rule="nonzero" cx="20.36825" cy="30.7468548" rx="1.54985714" ry="1.51764861"></ellipse>
                        <ellipse id="椭圆形" fill="#FFC53D" fill-rule="nonzero" cx="26.1569166" cy="30.7468548" rx="1.54985714" ry="1.51764861"></ellipse>
                        <ellipse id="椭圆形" fill="#BAE637" fill-rule="nonzero" cx="31.9464881" cy="30.7468548" rx="1.54985714" ry="1.51764861"></ellipse>
                        <mask id="mask-2" fill="white">
                            <use xlink:href="#path-1"></use>
                        </mask>
                        <g id="Clip-2"></g>
                        <path d="M27.7054392,56.0376257 L8.03226547,56.0376257 C7.39233764,56.0376257 6.85799337,56.5128028 6.76839604,57.1462659 C6.18359685,61.2804495 2.41397628,63.4058167 0.767499146,64.1226442 C0.302304695,64.3251613 0,64.7824442 0,65.2897988 L0,82.1127861 C0,93.1219301 17.8688523,100.136858 17.8688523,100.136858 C17.8688523,100.136858 35.7376516,93.1219301 35.7376516,82.1127861 L35.7376516,65.2897457 C35.7376516,64.7824442 35.4353469,64.3251613 34.9701524,64.1226442 C33.3236753,63.4058167 29.5540547,61.2804495 28.9692555,57.1462659 C28.8796582,56.5128028 28.3453139,56.0907241 27.7054392,56.0907241 L27.7054392,56.0376257 Z" id="Fill-1" fill="#ADC6FF" mask="url(#mask-2)"></path>
                        <path d="M26.0515426,59.3149932 C26.2939918,60.0642108 26.6186029,60.7869323 27.0231452,61.4769452 C27.617876,62.4911234 28.3875527,63.4364332 29.3108779,64.2864845 C30.3463193,65.239812 31.4406602,65.9529227 32.391709,66.4685076 L32.391709,82.0218605 C32.391709,86.2320278 28.3596166,89.9609648 24.9771181,92.3477882 C22.2273244,94.2881077 19.4267572,95.6826824 17.8666376,96.3961648 C16.3317456,95.6954791 13.5936893,94.3330289 10.8595101,92.417347 C8.54607192,90.7965202 6.72730448,89.1243473 5.45371584,87.4473956 C4.76035888,86.5344228 4.23121945,85.6188481 3.88100912,84.7261589 C3.52097337,83.8084603 3.34592132,82.9238951 3.34592132,82.0218605 L3.34592132,66.4685076 C4.29691708,65.9529227 5.39141728,65.2397589 6.42680555,64.2864845 C7.35007765,63.4364332 8.11975432,62.4911765 8.71448517,61.4769452 C9.11902748,60.7869854 9.44363857,60.0642108 9.68614089,59.3149932 L26.0515426,59.3149932" id="Fill-3" fill="#597EF7" mask="url(#mask-2)"></path>
                        <path d="M18.7257523,68.0685729 L12.8523736,76.9806511 C12.5363664,77.463846 12.8761671,78.0580164 13.4458829,78.0580164 L16.0767623,78.0580164 L12.8420702,84.1455816 C12.6007363,84.6375908 13.2225535,85.0941835 13.6038865,84.7049726 L22.4015267,75.8987725 C22.8504694,75.4405869 22.5320722,74.6578112 21.8968181,74.6578112 L17.9183141,74.6578112 L19.5826895,68.4554474 C19.7126507,67.9275437 19.0219493,67.6156972 18.7257523,68.0685729" id="Fill-5" fill="#FFFFFF" mask="url(#mask-2)"></path>
                        <path d="M95.4490436,90.5883203 C93.6599394,90.5883203 92.2095689,89.1379499 92.2095689,87.3488456 C92.2095689,85.5597413 93.6599394,84.1093709 95.4490436,84.1093709 C97.2381479,84.1093709 98.6885183,85.5597413 98.6885183,87.3488456 C98.6885183,89.1379499 97.2381479,90.5883203 95.4490436,90.5883203 L95.4490436,90.5883203 Z M105.171266,88.8142221 L105.171266,85.8834319 L102.861382,85.2965217 C102.691997,84.6832485 102.448586,84.1007694 102.14128,83.5592496 L103.359857,81.5103886 L101.287501,79.4379946 L99.2386396,80.6566097 C98.6970826,80.3492656 98.1146034,80.1058926 97.5013675,79.9364699 L96.9144201,77.6266234 L93.9836299,77.6266234 L93.3967197,79.9364699 C92.7834466,80.1058926 92.2009674,80.3492656 91.6594476,80.6566097 L89.6105866,79.4379946 L87.5381927,81.5103886 L88.7567704,83.5592496 C88.4495009,84.1007694 88.2060907,84.6832858 88.0366679,85.2965217 L85.7268214,85.8834319 L85.7268214,88.8142221 L88.0366679,89.4011695 C88.2060907,90.0144054 88.4495009,90.5968845 88.7567704,91.1384416 L87.5381927,93.1873026 L89.6105866,95.2596966 L91.6594476,94.0410815 C92.2009674,94.3483883 92.7834466,94.5917986 93.3967197,94.7612213 L93.9836299,97.0710678 L96.9144201,97.0710678 L97.5013675,94.7612213 C98.1146034,94.5917986 98.6970826,94.3483883 99.2386396,94.0410815 L101.287501,95.2596966 L103.359857,93.1873026 L102.14128,91.1384416 C102.448586,90.5968845 102.691997,90.0144054 102.861382,89.4011695 L105.171266,88.8142221 Z" id="Fill-1备份-2" fill="#FF885A" mask="url(#mask-2)" transform="translate(95.449044, 87.348846) rotate(-297.000000) translate(-95.449044, -87.348846) "></path>
                        <path d="M109.385418,66.79329 L105.957071,66.79329 C105.524868,66.79329 105.171266,66.4425411 105.171266,66.0139181 L105.171266,62.572704 C105.171266,62.1440389 105.524868,61.79329 105.957071,61.79329 L109.385418,61.79329 C109.817622,61.79329 110.171266,62.1440389 110.171266,62.572704 L110.171266,66.0139181 C110.171266,66.4425411 109.817622,66.79329 109.385418,66.79329" id="Fill-3" fill="#597EF7" transform="translate(107.671266, 64.293290) rotate(-270.000000) translate(-107.671266, -64.293290) "></path>
                        <path d="M61.7465295,105.174354 L58.318182,105.174354 C57.8859787,105.174354 57.532377,104.823605 57.532377,104.394982 L57.532377,100.953768 C57.532377,100.525103 57.8859787,100.174354 58.318182,100.174354 L61.7465295,100.174354 C62.1787329,100.174354 62.532377,100.525103 62.532377,100.953768 L62.532377,104.394982 C62.532377,104.823605 62.1787329,105.174354 61.7465295,105.174354" id="Fill-3" fill="#597EF7" transform="translate(60.032377, 102.674354) rotate(-225.000000) translate(-60.032377, -102.674354) "></path>
                        <path d="M52.7662376,12.0710678 L45.9095427,12.0710678 C45.0451359,12.0710678 44.3379325,11.36957 44.3379325,10.5123239 L44.3379325,3.62989579 C44.3379325,2.77256562 45.0451359,2.07106781 45.9095427,2.07106781 L52.7662376,2.07106781 C53.6306444,2.07106781 54.3379325,2.77256562 54.3379325,3.62989579 L54.3379325,10.5123239 C54.3379325,11.36957 53.6306444,12.0710678 52.7662376,12.0710678" id="Fill-3" fill="#597EF7" transform="translate(49.337933, 7.071068) rotate(-225.000000) translate(-49.337933, -7.071068) "></path>
                    </g>
                </g>
            </g>
        </g>
    </g>
</svg>