<?xml version="1.0" encoding="UTF-8"?>
<svg width="12px" height="12px" viewBox="0 0 12 12" version="1.1" xmlns="http://www.w3.org/2000/svg" xmlns:xlink="http://www.w3.org/1999/xlink">
    <title>形状备份 2</title>
    <g id="githuab-v1.0" stroke="none" stroke-width="1" fill="none" fill-rule="evenodd">
        <path d="M10.6342857,1.10599464 C10.614072,0.479264662 10.0926201,-0.0141258285 9.46571428,0.000308805634 L2.5,0.000308805634 C1.87949049,0.000927621314 1.36766246,0.486399066 1.33428572,1.10599464 L0,8.04581605 L0,10.8257445 C0.0061037241,11.4683962 0.523108007,11.9891886 1.16571429,12 L10.8342857,12 C11.476892,11.9891886 11.9938963,11.4683962 12,10.8257445 L12,8.11152863 L10.6342857,1.10599464 Z M8.28571429,4.51162128 L3.42857143,4.51162128 L3.94571428,1.09742343 L7.78285714,1.09742343 L8.28571429,4.51162128 Z M2.3,1.14313653 C2.29663269,1.09798598 2.31290432,1.05357712 2.34464527,1.02128974 C2.37638622,0.989002366 2.42051161,0.971974466 2.46571429,0.974569452 L2.95428572,0.974569452 L2.42571429,4.53162077 C2.38394756,4.77545153 2.4495704,5.02543686 2.60571429,5.21731741 C2.76675827,5.40188807 3.00078141,5.50635999 3.24571429,5.50302434 L8.48285715,5.50302434 C8.72795113,5.5071453 8.96229027,5.40253231 9.12285714,5.21731741 C9.27800813,5.03047143 9.34469278,4.78562003 9.30571429,4.54590611 L8.77714286,0.971712374 L9.46571428,0.971712374 C9.51114435,0.969205888 9.55549301,0.986159172 9.58766578,1.01833111 C9.61983854,1.05050305 9.63679226,1.09485057 9.63428571,1.14027947 L10.8571429,7.60868444 L1.1,7.60868444 L2.3,1.14313653 Z M11,10.8257445 C10.9802606,10.9213761 10.8975955,10.9910492 10.8,10.9943116 L1.16571429,10.9943116 C1.12051161,10.9969066 1.07638622,10.9798787 1.04464527,10.9475913 C1.01290432,10.9153039 0.996632693,10.8708951 1,10.8257445 L1,8.61437284 L11,8.61437284 L11,10.8257445 Z" id="形状备份-2" fill="#666666" fill-rule="nonzero"></path>
    </g>
</svg>