<?xml version="1.0" encoding="UTF-8"?>
<svg width="31px" height="29px" viewBox="0 0 31 29" version="1.1" xmlns="http://www.w3.org/2000/svg" xmlns:xlink="http://www.w3.org/1999/xlink">
    <title>编组 19</title>
    <g id="githuab-v1.0" stroke="none" stroke-width="1" fill="none" fill-rule="evenodd">
        <g id="存储管理" transform="translate(-257.000000, -193.000000)" fill-rule="nonzero">
            <g id="编组-19" transform="translate(257.000000, 193.000000)">
                <path d="M1.70596678,19.8793753 L1.7018659,19.8793753 C1.21181054,19.8793753 0.451096986,20.224184 0,20.6471495 L5.34754972,2.65732629 C5.78429362,1.19073964 6.77465655,0 7.55997539,0 L22.4400246,0 C23.2273939,0 24.2177568,1.19073964 24.6545007,2.65732629 L30,20.642552 C29.4556376,20.1766965 28.8804915,19.917227 28.2981341,19.8747778 L1.70596678,19.8747778 L1.70596678,19.8793753 Z" id="路径" fill="#D4D4D4"></path>
                <path d="M30.071837,26.4186087 C30.071837,27.8436482 28.951873,29 27.5716764,29 L2.57392534,29 C1.91084151,29 1.27491587,28.7280328 0.806044795,28.243928 C0.337173723,27.7598232 0.0737646983,27.1032363 0.0737646983,26.4186087 L0.0737646983,21.2578165 C0.0737646983,19.8327771 1.19372872,18.6764253 2.57392534,18.6764253 L27.5736041,18.6764253 C28.9538007,18.6764253 30.0737647,19.8327771 30.0737647,21.2578165 L30.0737647,26.4186087 L30.071837,26.4186087 Z" id="路径" fill="#575757"></path>
                <path d="M19.0167705,23.7944305 C19.0167705,24.7369924 19.7881825,25.5010899 20.7397674,25.5010899 C21.6913523,25.5010899 22.4627642,24.7369924 22.4627642,23.7944305 C22.4627642,22.8518685 21.6913523,22.0877711 20.7397674,22.0877711 C19.7881825,22.0877711 19.0167705,22.8518685 19.0167705,23.7944305 L19.0167705,23.7944305 Z" id="路径" fill="#FFFFFF"></path>
                <path d="M24.1837692,23.7944305 C24.1837692,24.7369924 24.9551812,25.5010899 25.906766,25.5010899 C26.8583509,25.5010899 27.6297629,24.7369924 27.6297629,23.7944305 C27.6297629,22.8518685 26.8583509,22.0877711 25.906766,22.0877711 C24.9551812,22.0877711 24.1837692,22.8518685 24.1837692,23.7944305 Z" id="路径" fill="#FFFFFF"></path>
            </g>
        </g>
    </g>
</svg>