<?xml version="1.0" encoding="UTF-8"?>
<svg width="48px" height="16px" viewBox="0 0 48 16" version="1.1" xmlns="http://www.w3.org/2000/svg" xmlns:xlink="http://www.w3.org/1999/xlink">
    <title>编组 37</title>
    <g id="-Zeus-V0.1.0" stroke="none" stroke-width="1" fill="none" fill-rule="evenodd">
        <g id="系统集群" transform="translate(-553.000000, -579.000000)" fill="#FFFFFF">
            <g id="编组-37" transform="translate(553.000000, 579.000000)">
                <path d="M2.35367281e-14,15 C2.35367281e-14,15.5522847 0.44771525,16 1,16 L1,16 L0,16 Z M48,15 L48,16 L47,16 C47.5522847,16 48,15.5522847 48,15 L48,15 Z M5.89795918,4.43913011e-13 C5.34567443,4.43879193e-13 4.89795918,0.44771525 4.89795918,1 L4.89795918,1 L4.89795918,15 C4.89795918,15.5522847 5.34567443,16 5.89795918,16 L5.89795918,16 L2.91836735,16 C3.4706521,16 3.91836735,15.5522847 3.91836735,15 L3.91836735,15 L3.91836735,1 C3.91836735,0.44771525 3.4706521,4.44299227e-13 2.91836735,4.44265409e-13 L2.91836735,4.44265409e-13 Z M10.7959184,4.47465724e-13 C10.2436336,4.4767717e-13 9.79591837,0.44771525 9.79591837,1 L9.79591837,1 L9.79591837,15 C9.79591837,15.5522847 10.2436336,16 10.7959184,16 L10.7959184,16 L7.81632653,16 C8.36861128,16 8.81632653,15.5522847 8.81632653,15 L8.81632653,15 L8.81632653,1 C8.81632653,0.44771525 8.36861128,4.44299227e-13 7.81632653,4.44265409e-13 L7.81632653,4.44265409e-13 Z M30.3877551,4.45689368e-13 C29.8354704,4.4565555e-13 29.3877551,0.44771525 29.3877551,1 L29.3877551,1 L29.3877551,15 C29.3877551,15.5522847 29.8354704,16 30.3877551,16 L30.3877551,16 L27.4081633,16 C27.960448,16 28.4081633,15.5522847 28.4081633,15 L28.4081633,15 L28.4081633,1 C28.4081633,0.44771525 27.960448,4.46075584e-13 27.4081633,4.46041766e-13 L27.4081633,4.46041766e-13 Z M15.6938776,4.47465724e-13 C15.1415928,4.4767717e-13 14.6938776,0.44771525 14.6938776,1 L14.6938776,1 L14.6938776,15 C14.6938776,15.5522847 15.1415928,16 15.6938776,16 L15.6938776,16 L12.7142857,16 C13.2665705,16 13.7142857,15.5522847 13.7142857,15 L13.7142857,15 L13.7142857,1 C13.7142857,0.44771525 13.2665705,4.4785194e-13 12.7142857,4.47818123e-13 L12.7142857,4.47818123e-13 Z M35.2857143,4.45689368e-13 C34.7334295,4.4565555e-13 34.2857143,0.44771525 34.2857143,1 L34.2857143,1 L34.2857143,15 C34.2857143,15.5522847 34.7334295,16 35.2857143,16 L35.2857143,16 L32.3061224,16 C32.8584072,16 33.3061224,15.5522847 33.3061224,15 L33.3061224,15 L33.3061224,1 C33.3061224,0.44771525 32.8584072,4.46075584e-13 32.3061224,4.46041766e-13 L32.3061224,4.46041766e-13 Z M20.5918367,4.45689368e-13 C20.039552,4.4565555e-13 19.5918367,0.44771525 19.5918367,1 L19.5918367,1 L19.5918367,15 C19.5918367,15.5522847 20.039552,16 20.5918367,16 L20.5918367,16 L17.6122449,16 C18.1645296,16 18.6122449,15.5522847 18.6122449,15 L18.6122449,15 L18.6122449,1 C18.6122449,0.44771525 18.1645296,4.4785194e-13 17.6122449,4.47818123e-13 L17.6122449,4.47818123e-13 Z M40.1836735,4.45689368e-13 C39.6313887,4.45789791e-13 39.1836735,0.44771525 39.1836735,1 L39.1836735,1 L39.1836735,15 C39.1836735,15.5522847 39.6313887,16 40.1836735,16 L40.1836735,16 L37.2040816,16 C37.7563664,16 38.2040816,15.5522847 38.2040816,15 L38.2040816,15 L38.2040816,1 C38.2040816,0.44771525 37.7563664,4.46075584e-13 37.2040816,4.46041766e-13 L37.2040816,4.46041766e-13 Z M25.4897959,4.45689368e-13 C24.9375112,4.4565555e-13 24.4897959,0.44771525 24.4897959,1 L24.4897959,1 L24.4897959,15 C24.4897959,15.5522847 24.9375112,16 25.4897959,16 L25.4897959,16 L22.5102041,16 C23.0624888,16 23.5102041,15.5522847 23.5102041,15 L23.5102041,15 L23.5102041,1 C23.5102041,0.44771525 23.0624888,4.46075584e-13 22.5102041,4.46041766e-13 L22.5102041,4.46041766e-13 Z M1,4.43913011e-13 C0.44771525,4.43879193e-13 2.62012634e-14,0.44771525 2.62012634e-14,1 L2.62012634e-14,1 L0,0 Z M48,1 C48,0.44771525 47.5522847,4.46075584e-13 47,4.46041766e-13 L47,4.46041766e-13 L48,0 Z M45.0816327,4.45689368e-13 C44.5293479,4.4565555e-13 44.0816327,0.44771525 44.0816327,1 L44.0816327,1 L44.0816327,15 C44.0816327,15.5522847 44.5293479,16 45.0816327,16 L45.0816327,16 L42.1020408,16 C42.6543256,16 43.1020408,15.5522847 43.1020408,15 L43.1020408,15 L43.1020408,1 C43.1020408,0.44771525 42.6543256,4.45964561e-13 42.1020408,4.46041766e-13 L42.1020408,4.46041766e-13 Z" id="形状结合"></path>
            </g>
        </g>
    </g>
</svg>
