<?xml version="1.0" encoding="UTF-8"?>
<svg width="14px" height="14px" viewBox="0 0 14 14" version="1.1" xmlns="http://www.w3.org/2000/svg" xmlns:xlink="http://www.w3.org/1999/xlink">
    <!-- Generator: Sketch 57 (83077) - https://sketch.com -->
    <title>形状</title>
    <desc>Created with Sketch.</desc>
    <g id="优化页面" stroke="none" stroke-width="1" fill="none" fill-rule="evenodd">
        <g id="title菜单" transform="translate(-1253.000000, -258.000000)" fill-rule="nonzero">
            <g id="编组-65" transform="translate(1231.000000, 73.000000)">
                <g id="编组-38">
                    <g id="矩形">
                        <g id="编组-55">
                            <g id="编组-56">
                                <g id="编组-51" transform="translate(0.000000, 78.000000)">
                                    <g id="编组-40备份" transform="translate(20.000000, 103.000000)">
                                        <g id="编组-58" transform="translate(0.000000, 2.000000)">
                                            <rect id="矩形" fill="#000000" opacity="0" x="0" y="0" width="16" height="16"></rect>
                                            <path d="M15.8593775,8.68425538 C16.0468742,8.87956438 16.0468742,9.18268396 15.8593775,9.37799297 L12.9500546,12.4045013 C12.7703703,12.5841856 12.4750631,12.5919979 12.2875664,12.4045013 C12.1000698,12.2091923 12.1000698,11.8982604 12.2875664,11.7029514 L14.3937787,9.51861545 L8.79387896,9.51861545 C8.52044635,9.51861545 8.30326274,9.29986936 8.30326274,9.02799923 C8.30326274,8.75612909 8.52200882,8.53738301 8.79387896,8.53738301 L14.3469046,8.53738301 L12.2875664,6.36710935 C12.1000698,6.17180034 12.1000698,5.86868077 12.2875664,5.67337176 C12.451626,5.49368748 12.7406833,5.47806276 12.9188051,5.64212232 C12.9266175,5.64993468 12.9422422,5.65774704 12.9500546,5.67337176 L15.8593775,8.68425538 Z M10.6969699,13.3013603 C10.9625901,13.3091726 11.1797738,13.5279187 11.1719614,13.7919765 L11.1719614,14.3450916 C11.1875861,15.2419505 10.4704115,15.9825623 9.57355251,15.998187 L3.59865943,15.998187 C2.70180048,15.9841247 1.98462582,15.243513 2.00025054,14.346654 L2.00025054,3.65309542 C1.98462582,2.75623647 2.70180048,2.01562472 3.59865943,2 L9.58136487,2 C10.4782238,2.01562472 11.1953985,2.75623647 11.1797738,3.65309542 L11.1797738,4.20621052 C11.1875861,4.47183076 10.96884,4.69682674 10.7047823,4.69682674 C10.439162,4.68901438 10.2219784,4.47026829 10.2297908,4.20621052 L10.2297908,3.65309542 C10.2376031,3.29372685 9.9485458,2.99841963 9.58292734,2.99060727 L3.59865943,2.99060727 C3.23929086,2.99841963 2.95179601,3.29528932 2.95179601,3.65309542 L2.95179601,14.3450916 C2.94398365,14.7044601 3.23304097,14.9997674 3.59865943,15.0075797 L9.58136487,15.0075797 C9.94073344,14.9997674 10.2282283,14.7028977 10.2282283,14.3450916 L10.2282283,13.7919765 C10.2282283,13.6591664 10.2751025,13.5341686 10.3688508,13.4482326 C10.4469744,13.3560468 10.5719721,13.3013603 10.6969699,13.3013603 Z" id="形状" fill="#686A7B"></path>
                                        </g>
                                    </g>
                                </g>
                            </g>
                        </g>
                    </g>
                </g>
            </g>
        </g>
    </g>
</svg>