<?xml version="1.0" encoding="UTF-8"?>
<svg width="98px" height="23px" viewBox="0 0 98 23" version="1.1" xmlns="http://www.w3.org/2000/svg" xmlns:xlink="http://www.w3.org/1999/xlink">
    <title>谐云科技新版logo矢量图-02</title>
    <defs>
        <linearGradient x1="-0.0256344901%" y1="50.0069107%" x2="99.9666641%" y2="50.0069107%" id="linearGradient-1">
            <stop stop-color="#9FA0A0" offset="0%"></stop>
            <stop stop-color="#BFC0C1" offset="19%"></stop>
            <stop stop-color="#FFFFFF" offset="47%"></stop>
            <stop stop-color="#DCDDDD" offset="69%"></stop>
            <stop stop-color="#A7A7A8" offset="100%"></stop>
        </linearGradient>
    </defs>
    <g id="V1.1中间件平台" stroke="none" stroke-width="1" fill="none" fill-rule="evenodd">
        <g id="V1.1工作台/空间概览" transform="translate(-24.000000, -13.000000)" fill-rule="nonzero">
            <g id="谐云科技新版logo矢量图-02-2" transform="translate(24.000000, 13.000000)">
                <g id="谐云科技新版logo矢量图-02" transform="translate(0.000000, -0.000000)">
                    <path d="M43.3496472,5.89252799 C41.9514925,3.49644318 39.628794,1.74107497 36.8957451,1.01502256 C34.1626962,0.288970151 31.2447463,0.652125638 28.7878641,2.02409453 L16.2783189,8.90282304 C15.6573546,9.23697228 15.2023997,9.80181329 15.0175621,10.4680926 C14.8327245,11.134372 14.9338246,11.8450626 15.2977275,12.437536 C15.6453576,13.0279921 16.2203474,13.4596621 16.8957908,13.6372721 C17.5712342,13.8148821 18.2916009,13.7238302 18.8978989,13.3842125 L31.4284568,6.52591587 C32.6544933,5.83083844 34.1188029,5.65132212 35.4839029,6.02874044 C36.8639991,6.36568794 38.03539,7.25021409 38.7128504,8.46694322 C39.4334726,9.65259424 39.6136676,11.076519 39.2101504,12.3966723 C38.4356914,15.1569445 35.5074293,16.784857 32.6682046,16.0335446 C32.1555,15.8996232 31.6649698,15.6955344 31.2113258,15.4273992 L26.259339,18.1516481 C29.6604028,21.6334348 35.0588511,22.4246069 39.3642433,20.0722436 C41.8568513,18.7432348 43.6685822,16.4659155 44.3652597,13.7860392 C45.167589,11.1318072 44.7997312,8.27275445 43.3496472,5.89252799 Z" id="路径" fill="url(#linearGradient-1)"></path>
                    <path d="M48.0264901,5.67759409 L48.8328316,5.67759409 C49.518188,5.67759409 50.0747928,6.25852897 50.0783999,6.97763043 L50.0783999,12.3359812 C50.0766444,12.4612205 50.1228345,12.5819663 50.2066259,12.6711775 C50.2904174,12.7603887 50.4048087,12.8106112 50.5241822,12.8105977 L51.1797445,12.8105977 L51.1797445,13.6291391 L50.5241822,13.6291391 C49.843515,13.6291391 49.2917252,13.0501726 49.2917252,12.3359812 L49.2917252,6.97763043 C49.2917379,6.85055343 49.2431822,6.72877865 49.1569292,6.6395704 C49.0706762,6.55036216 48.9539309,6.50117229 48.8328316,6.50301399 L48.0264901,6.50301399 L48.0264901,5.67759409 Z M49.8948425,2.59602649 L49.8948425,4.78338921 L49.1081678,4.78338921 L49.1081678,2.59602649 L49.8948425,2.59602649 Z M54.6345575,7.36282638 L52.6678708,7.36282638 C51.9886937,7.35906573 51.4389979,6.78229637 51.4354137,6.06966854 L51.4354137,2.63041899 L52.2155328,2.63041899 L52.2155328,3.71034335 L54.66078,3.71034335 L54.66078,4.52888474 L52.2155328,4.52888474 L52.2155328,6.06966854 C52.2137465,6.19428548 52.2601389,6.31434855 52.3441297,6.40247599 C52.4281204,6.49060344 52.5425477,6.53928074 52.6613151,6.53740648 L54.6280019,6.53740648 L54.6345575,7.36282638 Z M53.5922135,7.74114383 L53.5922135,8.35333025 L57.0076928,8.35333025 C57.6889854,8.36455026 58.2366663,8.94531888 58.2401498,9.66024508 L58.2401498,12.2740747 C58.2366663,12.9890009 57.6889854,13.5697696 57.0076928,13.5809896 L52.628537,13.5809896 C51.9483212,13.569719 51.4025508,12.9878814 51.4026356,12.2740747 L51.4026356,9.66024508 C51.4025508,8.94643842 51.9483212,8.36460088 52.628537,8.35333025 L52.8120945,8.35333025 L52.8120945,7.74114383 L53.5922135,7.74114383 Z M52.2155328,10.55445 L57.4600783,10.55445 L57.4600783,9.66024508 C57.461786,9.53318143 57.4149051,9.41068624 57.3298843,9.32018512 C57.2448635,9.229684 57.1288048,9.17875014 57.0076928,9.17875014 L52.628537,9.17875014 C52.3812847,9.18624414 52.1856223,9.40073576 52.189259,9.66024508 L52.2155328,10.55445 Z M57.4600323,12.2740747 L57.4600323,11.3729914 L52.2155328,11.3729914 L52.2155328,12.2671962 C52.2120046,12.393087 52.2563096,12.5152872 52.3386912,12.6068868 C52.4210728,12.6984864 52.5347751,12.7519735 52.6547595,12.7555697 L57.0339153,12.7555697 C57.2744724,12.7374954 57.4606467,12.5271251 57.4600323,12.2740747 L57.4600323,12.2740747 Z M58.4040404,7.36282638 L56.4373537,7.36282638 C55.7545332,7.36282638 55.198973,6.78607949 55.1917854,6.06966854 L55.1917854,2.63041899 L55.9719045,2.63041899 L55.9719045,4.23998778 L58.115593,3.34578289 L58.410596,4.1092963 L55.945682,5.12043567 L55.945682,6.06966854 C55.9473865,6.19676753 55.9976092,6.31783768 56.0851001,6.40575877 C56.1725909,6.49367986 56.2900375,6.54110346 56.4111312,6.53740648 L58.3778179,6.53740648 L58.4040404,7.36282638 Z" id="形状" fill="#555550"></path>
                    <path d="M61.0066225,6.645635 L71.3907285,6.645635 L71.3907285,7.48702103 L63.8453465,7.48702103 L62.5933621,12.787753 L69.3420267,12.787753 C69.7117871,12.787753 70.0115371,12.4738352 70.0115371,12.086598 L70.0115371,9.63255541 L70.8149496,9.63255541 L70.8149496,12.0725749 C70.8149496,12.9322416 70.1495045,13.6291391 69.3286365,13.6291391 L61.6493525,13.6291391 L63.0285439,7.48702103 L61.0200127,7.48702103 L61.0066225,6.645635 Z M61.4418043,3.24503311 L70.9555467,3.24503311 L70.9555467,4.08641915 L61.4418043,4.08641915 L61.4418043,3.24503311 Z" id="形状" fill="#555550"></path>
                    <path d="M73.986755,13.2995875 C74.3977924,11.2524057 74.5847237,9.16674847 74.544261,7.07930124 L74.544261,6.39273542 L75.3701958,6.39273542 L75.3701958,7.07930124 C75.4144144,9.23184513 75.2181928,11.382607 74.7851586,13.4918259 L73.986755,13.2995875 Z M76.051592,13.4780946 L76.051592,5.69930396 L74.1244108,5.69930396 L74.1244108,4.88229064 L76.086006,4.88229064 L76.086006,3.83184495 L74.3171289,3.9554268 L74.2551838,3.13154782 L78.5638104,2.82945887 L78.6257555,3.65333784 L76.8775268,3.74259139 L76.8775268,4.88229064 L78.7289974,4.88229064 L78.7289974,5.69930396 L76.8775268,5.69930396 L76.8775268,13.4780946 L76.051592,13.4780946 Z M77.7722895,13.3613784 L77.7722895,6.37900411 L78.5913416,6.37900411 L78.5913416,13.3613784 L77.7722895,13.3613784 Z M83.89109,2.59602649 L83.89109,10.5945182 L85.0198675,10.5945182 L85.0198675,11.4183972 L83.89109,11.4183972 L83.89109,13.6291391 L83.0720379,13.6291391 L83.0720379,11.4183972 L79.2589722,11.4183972 L79.2589722,10.5945182 L83.0720379,10.5945182 L83.0720379,2.59602649 L83.89109,2.59602649 Z M79.7614159,4.23005312 L82.4663524,5.20497657 L82.1703924,5.98079594 L79.4723387,4.99900683 L79.7614159,4.23005312 Z M79.7614159,7.57362862 L82.4663524,8.55541773 L82.1703924,9.32437144 L79.4723387,8.34944799 L79.7614159,7.57362862 Z" id="形状" fill="#555550"></path>
                    <path d="M87.3641069,12.7536038 L88.0010277,12.7536038 C88.3792661,12.7536038 88.6858888,12.4473612 88.6858888,12.0695919 L88.6858888,9.74395126 L87.3641069,10.4690039 L86.9668874,9.78499197 L88.7338291,8.8068549 L88.7338291,5.01742876 L87.1791944,5.01742876 L87.1791944,4.19661443 L88.7338291,4.19661443 L88.7338291,2.59602649 L89.5556624,2.59602649 L89.5556624,4.19661443 L90.5281652,4.19661443 L90.5281652,5.01742876 L89.5556624,5.01742876 L89.5556624,8.36224714 L90.5898027,7.78083699 L90.9870222,8.46484893 L89.5556624,9.25830278 L89.5556624,12.0695919 C89.5482896,12.9062906 88.8729667,13.5838145 88.0352708,13.5949385 L87.3641069,13.5949385 L87.3641069,12.7536038 Z M91.1924805,6.87110111 L94.1442319,6.87110111 L94.1442319,4.76434434 L91.1102972,4.76434434 L91.1102972,3.94353001 L94.1442319,3.94353001 L94.1442319,2.64390733 L94.9660653,2.64390733 L94.9660653,3.94353001 L98,3.94353001 L98,4.76434434 L94.9660653,4.76434434 L94.9660653,6.87110111 L97.8219361,6.87110111 C97.1681402,8.28247047 96.2892109,9.57843878 95.2194639,10.7084081 L97.9589083,13.0203684 L97.4315653,13.6291391 L94.6236347,11.2829781 C93.5619388,12.23501 92.363935,13.0234673 91.0692055,13.622299 L90.7199263,12.8698858 C91.9059511,12.3239297 93.0082008,11.6122711 93.9935625,10.7562889 L91.4732736,8.64953215 L92.0143138,8.03392141 L94.6167861,10.2227596 C95.3634021,9.48276738 95.9999489,8.63969759 96.5070028,7.71927592 L91.2061777,7.71927592 L91.1924805,6.87110111 Z" id="形状" fill="#555550"></path>
                    <path d="M50.4671206,20.6635334 L50.4671206,16.8741722 L50.042067,16.8741722 L51.6942916,16.8741722 L51.152691,16.8741722 L51.152691,18.6257922 C51.152691,18.6257922 51.152691,18.6257922 51.152691,18.6257922 L52.6609458,18.6257922 L52.6609458,16.8741722 L52.1741908,16.8741722 L53.8332712,16.8741722 L53.4013618,16.8741722 C53.3952385,16.8849681 53.3952385,16.8982691 53.4013618,16.909065 L53.4013618,20.6635334 C53.3952385,20.6743293 53.3952385,20.6876304 53.4013618,20.6984263 L53.8332712,20.6984263 C53.8522027,20.6984263 53.8675497,20.7140483 53.8675497,20.7333191 C53.8675497,20.7525899 53.8522027,20.7682119 53.8332712,20.7682119 L52.1741908,20.7682119 C52.1552593,20.7682119 52.1399123,20.7525899 52.1399123,20.7333191 C52.1399123,20.7140483 52.1552593,20.6984263 52.1741908,20.6984263 L52.6609458,20.6984263 L52.6609458,18.7514064 L51.152691,18.7514064 L51.152691,20.6286406 L51.6394459,20.6286406 C51.6583775,20.6286406 51.6737245,20.6442627 51.6737245,20.6635334 C51.6737245,20.6828042 51.6583775,20.6984263 51.6394459,20.6984263 L50.0077885,20.6984263 C49.9888569,20.6984263 49.9735099,20.6828042 49.9735099,20.6635334 C49.9735099,20.6442627 49.9888569,20.6286406 50.0077885,20.6286406 L50.4671206,20.6635334 Z" id="路径" fill="#555550"></path>
                    <path d="M54.2257748,20.6740555 C54.2257748,20.6740555 54.2257748,20.6740555 54.2257748,20.6740555 L55.7183795,16.8741722 L57.3701953,20.6606046 C57.3807249,20.6654975 57.3928346,20.6654975 57.4033643,20.6606046 L57.7284204,20.6606046 C57.7467391,20.6606046 57.7615894,20.6756601 57.7615894,20.6942319 C57.7615894,20.7128037 57.7467391,20.7278592 57.7284204,20.7278592 L56.1694778,20.7278592 C56.151159,20.7278592 56.1363088,20.7128037 56.1363088,20.6942319 C56.1363088,20.6756601 56.151159,20.6606046 56.1694778,20.6606046 L56.6006747,20.6606046 L56.1097736,19.3894932 C56.1097736,19.3894932 56.1097736,19.3894932 56.1097736,19.3894932 L54.8626194,19.3894932 C54.8626194,19.3894932 54.8626194,19.3894932 54.8626194,19.3894932 L54.3650846,20.6606046 C54.3650846,20.6606046 54.3650846,20.7009573 54.3650846,20.7009573 L54.7166759,20.7009573 C54.7349946,20.7009573 54.7498449,20.7160128 54.7498449,20.7345846 C54.7498449,20.7531565 54.7349946,20.7682119 54.7166759,20.7682119 L53.9007187,20.7682119 C53.8823999,20.7682119 53.8675497,20.7531565 53.8675497,20.7345846 C53.8675497,20.7160128 53.8823999,20.7009573 53.9007187,20.7009573 L54.2257748,20.6740555 Z M54.8891546,19.2348077 C54.8891546,19.2348077 54.8891546,19.2818859 54.9223236,19.2818859 L56.0434356,19.2818859 L55.4729289,17.8291871 C55.4655545,17.8179161 55.4531008,17.8111402 55.4397599,17.8111402 C55.426419,17.8111402 55.4139654,17.8179161 55.4065909,17.8291871 L54.8891546,19.2348077 Z" id="形状" fill="#555550"></path>
                    <path d="M57.581573,20.6862328 C57.5879197,20.6757207 57.5879197,20.6627693 57.581573,20.6522572 L57.581573,17.0032794 C57.5938303,16.9976025 57.6016156,16.985725 57.6016156,16.9727014 C57.6016156,16.9596778 57.5938303,16.9478002 57.581573,16.9421234 L57.1339005,16.9421234 C57.1339005,16.9421234 57.1339005,16.8741722 57.1339005,16.8741722 L58.7469425,16.8741722 C59.3935805,16.8741722 60.2249722,17.1120013 60.2249722,17.852669 C60.2249722,18.2875565 59.7915116,18.5321807 59.3935805,18.6544928 C59.3739581,18.6544928 59.3580509,18.6697042 59.3580509,18.6884684 C59.3580509,18.7072326 59.3739581,18.722444 59.3935805,18.722444 C60.3457727,18.899117 60.3741964,19.4631117 60.3813023,20.0339015 C60.3813023,20.4144281 60.3813023,20.7134132 60.7010683,20.7134132 C60.815087,20.7095401 60.9237194,20.666055 61.0066225,20.5911011 C61.0066225,20.5911011 61.0066225,20.5911011 61.0066225,20.5911011 C60.8858279,20.7099632 60.7179333,20.7741837 60.5447382,20.7677742 C59.7701938,20.7677742 59.6138638,20.2853209 59.6138638,19.8096627 C59.6268599,19.6014644 59.6268599,19.3927102 59.6138638,19.1845119 C59.5894513,19.0402966 59.5060832,18.9112786 59.3821266,18.8258824 C59.2581701,18.7404862 59.1037956,18.7057185 58.953014,18.7292391 L58.3632233,18.7292391 L58.3632233,20.5911011 C58.3568765,20.6016132 58.3568765,20.6145646 58.3632233,20.6250767 L58.8108957,20.6250767 C58.8305182,20.6250767 58.8464253,20.6402881 58.8464253,20.6590523 C58.8464253,20.6778165 58.8305182,20.6930279 58.8108957,20.6930279 L57.1481123,20.6930279 C57.1284899,20.6930279 57.1125828,20.6778165 57.1125828,20.6590523 C57.1125828,20.6402881 57.1284899,20.6250767 57.1481123,20.6250767 L57.581573,20.6862328 Z M58.3490115,16.9760989 L58.3490115,18.6341075 C58.3490115,18.6341075 58.3490115,18.6341075 58.3490115,18.6341075 L58.9388021,18.6341075 C59.2088268,18.6341075 59.4930633,18.5389758 59.4930633,17.8186934 C59.4930633,17.3090597 59.3367332,16.9149429 58.7824721,16.9149429 L58.3490115,16.9760989 Z" id="形状" fill="#555550"></path>
                    <path d="M61.5016981,20.6985511 L61.5016981,16.9159687 L61.0430251,16.9159687 L62.2952751,16.9159687 C62.2952751,16.9159687 62.2952751,16.9159687 62.2952751,16.9159687 L63.1325352,19.6606049 C63.1325352,19.6606049 63.1834989,19.6606049 63.1907794,19.6606049 L64.2682968,16.8741722 C64.2682968,16.8741722 64.2682968,16.8741722 64.2682968,16.8741722 L65.5132663,16.8741722 L65.0473128,16.8741722 C65.0473128,16.8741722 65.0473128,16.8741722 65.0473128,16.8741722 L65.0473128,20.6219242 L65.5132663,20.6219242 C65.5333709,20.6219242 65.5496689,20.6375183 65.5496689,20.6567546 C65.5496689,20.6759909 65.5333709,20.691585 65.5132663,20.691585 L63.8824291,20.691585 C63.8623245,20.691585 63.8460265,20.6759909 63.8460265,20.6567546 C63.8460265,20.6375183 63.8623245,20.6219242 63.8824291,20.6219242 L64.326541,20.6219242 L64.326541,17.0692225 L62.8704364,20.7264154 L61.7346748,17.111019 C61.7346748,17.0692225 61.6691501,17.111019 61.6691501,17.111019 L61.6691501,20.6637207 C61.6691501,20.6637207 61.6691501,20.6985511 61.6691501,20.6985511 L62.1423841,20.6985511 C62.1624887,20.6985511 62.1787867,20.7141452 62.1787867,20.7333815 C62.1787867,20.7526178 62.1624887,20.7682119 62.1423841,20.7682119 L61.0430251,20.7682119 C61.0229205,20.7682119 61.0066225,20.7526178 61.0066225,20.7333815 C61.0066225,20.7141452 61.0229205,20.6985511 61.0430251,20.6985511 L61.5016981,20.6985511 Z" id="路径" fill="#555550"></path>
                    <path d="M67.4966887,16.8741722 C68.6093256,16.9239721 69.4729129,17.7887735 69.4365522,18.8167628 C69.4994436,19.4933416 69.1440737,20.1449035 68.5179051,20.5010797 C67.8917365,20.857256 67.1016409,20.857256 66.4754724,20.5010797 C65.8493038,20.1449035 65.4939339,19.4933416 65.5568252,18.8167628 C65.5204646,17.7887735 66.3840519,16.9239721 67.4966887,16.8741722 L67.4966887,16.8741722 Z M66.6479985,20.331325 C66.8566191,20.5658267 67.1680168,20.7017364 67.4966887,20.7017364 C67.8253607,20.7017364 68.1367584,20.5658267 68.345379,20.331325 C68.5662446,19.8535508 68.6662466,19.3355748 68.6377849,18.8167628 C68.6650015,18.2980239 68.5650489,17.7803036 68.345379,17.3022006 C68.1367584,17.067699 67.8253607,16.9317893 67.4966887,16.9317893 C67.1680168,16.9317893 66.8566191,17.067699 66.6479985,17.3022006 C66.4283286,17.7803036 66.3283759,18.2980239 66.3555926,18.8167628 C66.3271309,19.3355748 66.4271329,19.8535508 66.6479985,20.331325 L66.6479985,20.331325 Z" id="形状" fill="#555550"></path>
                    <path d="M70.6083292,20.7327257 L70.6083292,16.8789264 C70.5964239,16.8725874 70.5817559,16.8725874 70.5698505,16.8789264 L70.0927152,16.8789264 L71.2239876,16.8789264 L71.2239876,16.8789264 L73.2864435,19.5616818 C73.2928727,19.5739241 73.3063245,19.5816999 73.3210743,19.5816999 C73.335824,19.5816999 73.3492758,19.5739241 73.355705,19.5616818 L73.355705,16.8789264 L72.8862655,16.8789264 L73.986755,16.8789264 L73.5096197,16.8789264 L73.5096197,20.7469202 L70.869984,17.3260523 C70.869984,17.3260523 70.8084182,17.3260523 70.8084182,17.3260523 L70.8084182,20.6617534 C70.8084182,20.6617534 70.8084182,20.6972396 70.8084182,20.6972396 L71.2778578,20.6972396 C71.2991089,20.6972396 71.3163364,20.7131273 71.3163364,20.7327257 C71.3163364,20.7523242 71.2991089,20.7682119 71.2778578,20.7682119 L70.1773683,20.7682119 C70.1561171,20.7682119 70.1388896,20.7523242 70.1388896,20.7327257 C70.1388896,20.7131273 70.1561171,20.6972396 70.1773683,20.6972396 L70.6083292,20.7327257 Z" id="路径" fill="#555550"></path>
                    <path d="M74.5800633,20.7682119 C74.5600015,20.7682119 74.5437383,20.7524771 74.5437383,20.7330672 C74.5437383,20.7136572 74.5600015,20.6979224 74.5800633,20.6979224 L75.0377582,20.6979224 C75.0377582,20.6979224 75.0377582,20.6979224 75.0377582,20.6627776 L75.0377582,19.1515528 C75.0377582,19.1515528 73.8535633,17.0780118 73.7300583,16.8741722 C73.7300583,16.8741722 73.7300583,16.8741722 73.7300583,16.8741722 L73.3377483,16.8741722 L75.1394682,16.8741722 L74.6527133,16.8741722 C74.6527133,16.8741722 74.6091233,16.8741722 74.6527133,16.9304038 L75.7206682,18.8141631 L76.6796481,16.9304038 C76.688795,16.9237666 76.6941781,16.9133501 76.6941781,16.902288 C76.6941781,16.8912259 76.688795,16.8808094 76.6796481,16.8741722 L76.2946031,16.8741722 L77.2317881,16.8741722 L76.8394781,16.8741722 L75.7860532,18.8703947 C75.7860532,18.8703947 75.7860532,20.5011117 75.7860532,20.6627776 C75.7860532,20.6627776 75.7860532,20.6979224 75.7860532,20.6979224 L76.2364831,20.6979224 C76.2565449,20.6979224 76.2728081,20.7136572 76.2728081,20.7330672 C76.2728081,20.7524771 76.2565449,20.7682119 76.2364831,20.7682119 L74.5800633,20.7682119 Z" id="路径" fill="#555550"></path>
                    <path d="M81.6652072,17.1016254 L81.6652072,18.1154171 C81.6652072,18.1609078 81.5921224,18.1544091 81.5921224,18.1154171 C81.568559,17.5338724 81.0602671,17.0595822 80.4081485,17.0106441 C80.0651087,16.9861065 79.7372169,17.1407599 79.5676732,17.4070627 C79.3745255,17.8901895 79.2925093,18.4028983 79.3264933,18.9147529 C79.2777446,19.3872021 79.3425167,19.8634686 79.5165138,20.3119658 C79.6603238,20.6244197 80.0251907,20.8094297 80.40084,20.7603737 C80.738148,20.7691163 81.0655334,20.6582889 81.3109029,20.4522964 C81.5562725,20.2463039 81.6995045,19.9620391 81.7090581,19.6620993 C81.7090581,19.629606 81.7748344,19.6231073 81.7748344,19.6620993 L81.7748344,20.6888883 C81.7017496,20.6888883 81.7748344,20.597907 81.5117291,20.597907 C81.1676159,20.66894 80.8184238,20.7188805 80.4666163,20.7473763 C79.9250602,20.7510536 79.406888,20.5514131 79.0395506,20.197559 C78.6722131,19.8437048 78.4897998,19.368475 78.5371774,18.8887582 C78.4675866,17.8748374 79.3024124,16.98976 80.4373824,16.8741722 C80.69123,16.8814318 80.9404053,16.9368232 81.1682305,17.0366388 C81.6798242,17.2121027 81.6067394,17.0366388 81.6871327,17.0366388 C81.767526,17.0366388 81.6652072,17.0626335 81.6652072,17.1016254 Z" id="路径" fill="#555550"></path>
                    <path d="M82.2156964,20.7047221 C82.2156964,20.7047221 82.2156964,20.7047221 82.2156964,20.66945 L82.2156964,16.8741722 L81.7748344,16.8741722 L83.4587826,16.8741722 L83.0034661,16.8741722 C82.997011,16.8850854 82.997011,16.8985311 83.0034661,16.9094443 L83.0034661,20.7047221 C83.0034661,20.7047221 83.0034661,20.7399942 83.0034661,20.7399942 L83.3648284,20.7399942 C84.046532,20.7687816 84.6758948,20.3844854 84.9475951,19.7735387 C84.9475951,19.7735387 85.0198675,19.7735387 85.0198675,19.7735387 L85.0198675,20.7682119 C85.0198675,20.7682119 85.0198675,20.7682119 85.0198675,20.7682119 L81.8109707,20.7682119 C81.7910132,20.7682119 81.7748344,20.7524201 81.7748344,20.7329398 C81.7748344,20.7134596 81.7910132,20.6976677 81.8109707,20.6976677 L82.2156964,20.7047221 Z" id="路径" fill="#555550"></path>
                    <path d="M86.9526237,16.8741722 C88.0709097,16.9169929 88.9429332,17.7838683 88.9067509,18.8167628 C88.9696422,19.4933416 88.6142724,20.1449035 87.9881038,20.5010797 C87.3619352,20.857256 86.5718396,20.857256 85.945671,20.5010797 C85.3195025,20.1449035 84.9641326,19.4933416 85.0270239,18.8167628 C84.9904326,17.7936384 85.8456415,16.9308834 86.9526237,16.8741722 L86.9526237,16.8741722 Z M86.1039334,20.331325 C86.2936583,20.5870538 86.6182833,20.728106 86.9526237,20.700088 C87.289138,20.7291485 87.6164128,20.58813 87.8084458,20.331325 C88.0240419,19.8522615 88.1214881,19.3349056 88.0937199,18.8167628 C88.1203025,18.2986879 88.0229012,17.7815699 87.8084458,17.3022006 C87.6174349,17.0442814 87.2894064,16.902938 86.9526237,16.9334377 C86.6180096,16.9039782 86.2926299,17.0453585 86.1039334,17.3022006 C85.8859883,17.7806309 85.7884485,18.2984839 85.8186594,18.8167628 C85.7871899,19.33511 85.8847786,19.8532229 86.1039334,20.331325 L86.1039334,20.331325 Z" id="形状" fill="#555550"></path>
                    <path d="M90.7561334,16.914535 L90.7561334,19.3228487 C90.7376051,19.610915 90.7714342,19.8998455 90.8561638,20.1771947 C90.9989905,20.4968636 91.3472148,20.690846 91.713567,20.6548212 C92.013977,20.6682749 92.3065681,20.5622703 92.5199086,20.362687 C92.7332491,20.1631036 92.8477059,19.8883083 92.8353363,19.6053883 L92.8353363,16.9750792 L92.3851996,16.9750792 C92.3654691,16.9750792 92.3494745,16.96002 92.3494745,16.9414435 C92.3494745,16.9228671 92.3654691,16.9078079 92.3851996,16.9078079 L93.4212285,16.9078079 C93.440959,16.9078079 93.4569536,16.9228671 93.4569536,16.9414435 C93.4569536,16.96002 93.440959,16.9750792 93.4212285,16.9750792 L92.9710918,16.9750792 L92.9710918,19.6053883 C92.9983911,19.9242663 92.8736164,20.238053 92.6306063,20.4616501 C92.3875962,20.6852473 92.0515369,20.7954807 91.713567,20.7624553 C90.6060879,20.7624553 90.0702108,20.3857358 90.0702108,19.3497573 L90.0702108,16.9750792 C90.0702108,16.9750792 90.0702108,16.9414435 90.0344857,16.9414435 L89.598639,16.9414435 C89.5789086,16.9414435 89.5629139,16.9263843 89.5629139,16.9078079 C89.5629139,16.8892314 89.5789086,16.8741722 89.598639,16.8741722 L91.2634303,16.8741722 C91.2831608,16.8741722 91.2991555,16.8892314 91.2991555,16.9078079 C91.2991555,16.9263843 91.2831608,16.9414435 91.2634303,16.9414435 L90.7561334,16.914535 Z" id="路径" fill="#555550"></path>
                    <path d="M93.2723738,20.6014555 L93.2723738,16.9613209 L92.8365271,16.9613209 L94.5584786,16.9613209 C95.1229928,16.9505095 95.6683781,17.1533747 96.0716454,17.5241688 C96.4749126,17.8949629 96.7021043,18.4024627 96.7019868,18.9322225 C96.6938387,19.4472914 96.4588294,19.9362236 96.0527608,20.2829242 C95.6466921,20.6296248 95.1057861,20.8031675 94.5584786,20.7623455 L92.8436722,20.7623455 C92.8239417,20.7623455 92.807947,20.7473386 92.807947,20.7288267 C92.807947,20.7103148 92.8239417,20.695308 92.8436722,20.695308 L93.2723738,20.6014555 Z M94.0511817,16.9076909 L94.0511817,20.5008993 C94.0511817,20.5008993 94.0511817,20.5344181 94.0869068,20.5344181 L94.6227839,20.5344181 C95.7588432,20.5344181 95.9231788,19.5891897 95.9231788,18.7311101 C95.9231788,17.752363 95.7516981,16.8741722 94.5727687,16.8741722 L94.0511817,16.9076909 Z" id="形状" fill="#555550"></path>
                    <path d="M35.5980639,11.5748845 C35.790588,10.911078 35.6949034,10.1996964 35.333258,9.60614601 C34.9892367,9.00763653 34.4115772,8.56873444 33.7304858,8.38836963 C33.0459451,8.1925299 32.3082549,8.28327935 31.6956619,8.63869033 L19.1870698,15.505596 C16.6268901,16.9228296 13.3683002,16.0638805 11.8979403,13.5842155 C11.1816397,12.3938426 11.0026475,10.9693845 11.4031715,9.64673855 C12.1802124,6.89227318 15.1085384,5.26945571 17.9466634,6.02047112 C18.4586007,6.15474505 18.9471056,6.36223549 19.396127,6.63612473 L24.3438153,3.92995501 C23.0010296,2.52503932 21.272097,1.52261651 19.3612842,1.04111882 C16.8022195,0.32228844 14.0554275,0.598908704 11.7028202,1.81237719 L11.7934117,2.13035214 L11.3683286,2.5362776 L10.7969055,2.38743826 L10.7969055,2.32654944 C9.69490216,2.97897352 8.7282476,3.82566545 7.94675832,4.82299102 L8.02341264,5.08684256 L7.59832957,5.49276802 L7.48683237,5.49276802 C6.93710824,6.368615 6.51940014,7.31637263 6.24642602,8.30718454 C6.24642602,8.4086659 6.20461457,8.51014727 6.17674027,8.61162863 L6.17674027,8.61162863 L6.33004892,9.16639343 L5.97465159,9.51819549 C5.59030561,11.8093444 6.04130165,14.1588916 7.24990082,16.1618422 C8.62105898,18.5779819 10.9582199,20.3378854 13.7097698,21.0261823 C16.4358401,21.7885965 19.3650684,21.4263869 21.807254,20.0248995 L34.350689,13.1512283 C34.9755794,12.8186304 35.4280902,12.2467795 35.5980639,11.5748845 L35.5980639,11.5748845 Z M14.1418215,0.966699155 L14.7202132,1.11553849 L14.8735219,1.67706871 L14.4484388,2.08975959 L13.8700471,1.94092026 L13.7097698,1.37939004 L14.1418215,0.966699155 Z M12.1069976,2.94896848 L12.6784207,3.09780781 L12.838698,3.65933803 L12.4136149,4.06526349 L11.8352232,3.91642416 L11.6819145,3.35489394 L12.1069976,2.94896848 Z M8.29518707,5.19508935 L8.87357879,5.34392869 L9.02688744,5.90545891 L8.60877294,6.31814979 L8.03038122,6.16931045 L7.87707257,5.60778024 L8.29518707,5.19508935 Z M8.00250692,6.87291458 L8.58089864,7.02175392 L8.73420729,7.58328414 L8.30912422,7.99597502 L7.76557537,7.90125908 L7.59832957,7.31266716 L8.00250692,6.87291458 Z M7.70982677,10.4112315 L7.13143504,10.2623922 L6.97812639,9.70086195 L7.40320947,9.29493649 L7.97463262,9.44377582 L8.12794127,10.005306 L7.70982677,10.4112315 Z M8.72723872,9.42347955 L8.14884699,9.27464022 L7.99553834,8.71311 L8.42062142,8.30718454 L8.99204457,8.45602387 L9.15232179,9.01755409 L8.72723872,9.42347955 Z M9.91886504,2.89484508 L10.4972568,3.04368442 L10.6505654,3.59844921 L10.2324509,4.0111401 L9.68890207,3.84200449 L9.52862484,3.28047427 L9.91886504,2.89484508 Z M10.3857596,6.04753282 L9.80039926,5.87163178 L9.64709062,5.31686699 L10.0652051,4.90417611 L10.6435968,5.05301544 L10.7969055,5.61454566 L10.3857596,6.04753282 Z" id="形状" fill="#005D97"></path>
                    <polygon id="路径" fill="#005D97" points="2.42400064 3.89403974 1.94701987 4.37102051 2.11904572 5.01220777 2.76805234 5.19205298 3.24503311 4.71507221 3.07300726 4.06606559"></polygon>
                    <polygon id="路径" fill="#005D97" points="4.06606559 2.59602649 4.54304636 2.11904572 4.37102051 1.4700391 3.72201388 1.29801325 3.24503311 1.77499402 3.42487832 2.41618128"></polygon>
                    <polygon id="路径" fill="#005D97" points="6.65920128 3.89403974 7.13907285 3.41705896 6.96600442 2.7758717 6.31306442 2.59602649 5.8410596 3.07300726 6.01412804 3.72201388"></polygon>
                    <polygon id="路径" fill="#005D97" points="11.6821192 1.9082732 11.6037157 1.55955323 10.9067959 1.29801325 10.384106 1.87921321 10.5496244 2.59602649 11.1420063 2.17949985"></polygon>
                    <path d="M7.6959624,4.72041463 L7.00089724,4.54304636 L6.49006623,5.026778 L6.68267464,5.69594011 L7.23537706,5.8410596 C7.41123692,5.5750072 7.60384533,5.32507918 7.78807947,5.0348402 L7.6959624,4.72041463 Z" id="路径" fill="#005D97"></path>
                    <path d="M5.73811372,9.08609272 L5.19205298,9.55809753 L5.38899292,10.2110375 L6.13199361,10.384106 L6.21255995,10.3133052 C6.27820659,9.96192387 6.37070869,9.60529801 6.49006623,9.24342765 L5.73811372,9.08609272 Z" id="路径" fill="#005D97"></path>
                    <polygon id="路径" fill="#005D97" points="5.36407883 8.26506024 6.01308545 8.43708609 6.49006623 7.96010532 6.31022102 7.31891806 5.66903375 7.13907285 5.19205298 7.61605362"></polygon>
                    <polygon id="路径" fill="#005D97" points="4.06606559 5.01220777 4.71507221 5.19205298 5.19205298 4.71507221 5.02002713 4.06606559 4.37102051 3.89403974 3.89403974 4.36320115"></polygon>
                    <polygon id="路径" fill="#005D97" points="6.66209208 2.59602649 7.13907285 2.12402167 6.95922764 1.47108168 6.31804037 1.29801325 5.8410596 1.77001806 6.01308545 2.42295806"></polygon>
                    <polygon id="路径" fill="#005D97" points="9.91210114 1.94701987 10.384106 1.4700391 10.2110375 0.828851831 9.56596428 0.649006623 9.08609272 1.12598739 9.25916115 1.77499402"></polygon>
                    <polygon id="路径" fill="#005D97" points="12.5031517 1.29801325 12.9801325 0.821032474 12.8081066 0.172025852 12.1591 0 11.6821192 0.476980771 11.8541451 1.12598739"></polygon>
                    <polygon id="路径" fill="#005D97" points="8.60622115 3.89403974 9.08609272 3.41705896 8.91302428 2.76805234 8.26008429 2.59602649 7.78807947 3.07300726 7.95328116 3.71419453"></polygon>
                    <polygon id="路径" fill="#005D97" points="4.36997792 6.66313466 3.71703793 6.49006623 3.24503311 6.96993779 3.41810155 7.61501104 4.07104154 7.78807947 4.54304636 7.31607465"></polygon>
                    <polygon id="路径" fill="#005D97" points="0.476980771 0.649006623 0 1.12598739 0.179845209 1.76717466 0.821032474 1.94701987 1.29801325 1.4700391 1.12598739 0.821032474"></polygon>
                    <polygon id="路径" fill="#C9A063" points="34.6537086 0.324503311 34.6537086 0.324503311 34.79 0.324503311"></polygon>
                    <polygon id="路径" fill="#C9A063" points="34.79 0.324503311 34.6537086 0.324503311 34.6537086 0.324503311"></polygon>
                    <polygon id="路径" fill="#C9A063" points="38.6645695 1.59655629 38.5607285 1.59655629 38.6710596 1.64847682"></polygon>
                </g>
            </g>
        </g>
    </g>
</svg>