<?xml version="1.0" encoding="UTF-8"?>
<svg width="215px" height="80px" viewBox="0 0 215 80" version="1.1" xmlns="http://www.w3.org/2000/svg" xmlns:xlink="http://www.w3.org/1999/xlink">
    <title>github开源01</title>
    <g id="github开源01" stroke="none" stroke-width="1" fill="none" fill-rule="evenodd">
        <g id="编组-32备份-2">
            <g id="编组备份-7">
                <path d="M32.7019865,38.0587906 L32.8291413,38.0587906 L32.7019865,38.0587906 Z" id="Fill-1" fill="#044993"></path>
                <g id="编组">
                    <path d="M74.93465,26.0309046 C74.93465,26.0309046 68.4207743,31.9090586 62.2168793,14.2844882 C56.1138946,-3.05334594 41.6624659,-0.874200241 37.4672656,1.83798547 C33.2721841,-0.874200241 18.8207555,-3.05334594 12.7177707,14.2844882 C6.51387574,31.9090586 0,26.0309046 0,26.0309046 C0,26.0309046 0.950861359,31.8422895 6.53717185,29.3693598 C6.53717185,29.3693598 0,40.4975437 2.49601107,47.2981005 C2.49601107,47.2981005 4.63544913,40.9921296 7.25031787,40.7448367 C7.25031787,40.7448367 -5.40184338,61.4353454 37.440166,79.9762599 L37.440166,80 C37.4493181,79.9960433 37.4581135,79.9920866 37.4672656,79.9881299 C37.4765365,79.9920866 37.4853319,79.9960433 37.494484,80 L37.494484,79.9762599 C80.3364934,61.4353454 67.6843321,40.7448367 67.6843321,40.7448367 C70.2992009,40.9921296 72.4386389,47.2981005 72.4386389,47.2981005 C74.93465,40.4975437 68.3974782,29.3693598 68.3974782,29.3693598 C73.9837887,31.8422895 74.93465,26.0309046 74.93465,26.0309046" id="Fill-2" fill="#044993"></path>
                    <g transform="translate(12.410783, 3.458094)" fill="#FFFFFF">
                        <path d="M47.4895367,35.0721231 C48.1634597,36.6078125 48.7731996,38.2016157 49.2712132,39.8189118 C49.9677192,42.082879 51.3369595,47.1573308 47.6654461,53.2580485 C48.0838251,50.3276268 49.151167,46.4945857 44.8734794,40.6844372 C39.7091137,33.6712084 40.1191726,27.454263 40.1191726,27.454263 L40.1108526,27.4517901 C40.1429442,27.3219612 40.1667157,27.1933689 40.1857329,27.0647765 C40.3093449,26.2116158 40.1738471,25.3436174 39.85412,24.5485705 C39.4832841,23.6274042 39.2527002,22.3723923 39.110071,21.0679219 C39.110071,21.0679219 44.0925845,27.3182518 47.4895367,35.0721231" id="Fill-4"></path>
                        <path d="M44.8735032,40.6844248 C49.1511907,46.4945733 48.0838489,50.3276144 47.6654699,53.2580362 L47.6654699,53.2592726 C46.3247553,55.4873824 44.3113064,57.8515032 41.3481847,60.2663191 C41.3481847,60.2663191 40.7170505,60.6842442 39.7031945,61.3729552 C41.6512718,57.2753106 45.1112185,53.2963666 41.6643461,48.5978001 C37.8086033,43.3428243 36.7911816,38.0878486 36.7911816,38.0878486 L36.7792959,38.0878486 C36.7317528,35.8374825 35.7321598,34.1929842 34.4508741,33.0047415 L34.4520627,33.0022685 C38.4349832,33.2347239 36.7067927,30.0903937 36.478586,29.7033802 C36.4690773,29.6860697 36.4821517,29.6662863 36.5011689,29.6675228 C38.927054,29.8381549 39.8208636,28.6573309 40.1108764,27.4517777 L40.1191964,27.4542506 C40.1191964,27.4542506 39.7091374,33.671196 44.8735032,40.6844248" id="Fill-6"></path>
                        <path d="M45.7958149,21.5303597 C46.9190199,24.7154933 47.6606918,29.0863966 47.4895367,35.0721231 C44.0925845,27.3182518 39.110071,21.0679219 39.110071,21.0679219 C38.8664128,18.8361028 38.8842414,16.4571443 38.9103901,15.3455624 C38.9210873,14.8831246 38.8319441,14.4243961 38.6441489,14.0052345 C38.5086512,13.7023006 38.366022,13.4166772 38.2174499,13.1471279 L38.4551652,13.1112704 C38.4551652,13.1112704 43.1690604,14.0806588 45.7958149,21.5303597" id="Fill-8"></path>
                        <path d="M42.7626266,6.97469519 C47.7130486,11.3023223 46.4127457,19.9118272 45.8244002,21.5192316 L45.7958744,21.5303597 C43.1691199,14.0806588 38.4552247,13.1112704 38.4552247,13.1112704 L38.2175093,13.1471279 C36.469113,9.97188605 33.9112959,9.09894185 32.6395189,8.85906766 C32.1985569,8.77622451 31.7457092,8.80960907 31.3178216,8.94438374 C30.5119666,9.19662257 29.7798033,9.37714645 29.1272747,9.50450233 L29.0654687,9.15458277 C29.7013573,7.39138385 36.1493859,3.60285546 41.0498876,5.86311326 C41.6489303,6.13760846 42.2242014,6.50360207 42.7626266,6.97469519" id="Fill-10"></path>
                        <path d="M41.6643461,48.5978001 C45.1112185,53.2963666 41.6512718,57.2753106 39.7031945,61.3729552 C37.7681917,62.6885538 34.4413655,64.9933244 31.4485294,67.277075 L31.4425865,67.2684197 C33.3122176,62.3336884 38.455189,59.725984 33.8197399,51.4416693 C29.7738248,44.2132956 30.8482981,37.4696161 30.8482981,37.4696161 L30.8316581,37.4448868 C31.5531241,36.9169163 31.9192057,36.2368607 31.9192057,36.2368607 L31.9536745,36.1787468 C34.6172749,37.897433 36.200459,40.2702091 36.4274772,40.623838 C36.4381744,40.6411486 36.464323,40.6349662 36.4690773,40.6151828 C36.7020384,39.6977259 36.7971245,38.8569297 36.7792959,38.0878486 L36.7911816,38.0878486 C36.7911816,38.0878486 37.8086033,43.3428243 41.6643461,48.5978001" id="Fill-12"></path>
                        <path d="M41.0700578,5.81611523 L41.0498519,5.86310089 C36.1493502,3.60284309 29.7013216,7.39137148 29.0654331,9.1545704 L29.1272391,9.50448996 C26.8011945,9.96198197 25.4925715,9.7567288 25.4925715,9.7567288 C25.4925715,9.7567288 25.1193584,8.27049801 25.1193584,6.4578405 C25.1193584,3.4371568 26.1557973,-0.491092121 31.6814904,0.0504794962 C31.6814904,0.0504794962 36.8256504,0.00473029566 41.0700578,5.81611523" id="Fill-14"></path>
                        <path d="M35.7214626,16.3112168 C34.743264,16.2926698 33.4025495,16.4150798 32.1699954,17.0283664 C30.4322963,17.8926553 29.1747821,17.6082684 28.4889734,17.2855511 L28.4188474,17.5229523 C31.3843462,20.9219943 33.403738,20.2209187 34.0574552,18.6753376 C34.681458,17.200235 35.7214626,16.3260543 35.7214626,16.3260543 L35.7214626,16.3112168 Z M10.9978787,21.0678972 C11.2403483,18.836078 11.2237083,16.4571196 11.196371,15.3455377 C11.1856738,14.8830998 11.2760056,14.4243714 11.4626122,14.0052098 C11.5981099,13.7022759 11.7407391,13.4166525 11.8893112,13.1471031 C13.6388961,9.97186132 16.1955246,9.09891712 17.4684902,8.85904293 C17.9082636,8.77619978 18.3611113,8.80958434 18.7901875,8.94435901 C19.5960425,9.19659784 20.3282058,9.37712172 20.9807344,9.5044776 C23.3055904,9.9619696 24.6142133,9.75671643 24.6142133,9.75671643 C24.6142133,9.75671643 24.9874264,8.26924918 24.9874264,6.45659167 L25.1193584,6.45782814 C25.1193584,8.27048565 25.4925715,9.75671643 25.4925715,9.75671643 C25.4925715,9.75671643 26.8011945,9.9619696 29.1272391,9.5044776 C29.7797677,9.37712172 30.5119309,9.19659784 31.3177859,8.94435901 C31.7456735,8.80958434 32.1985213,8.77619978 32.6394832,8.85904293 C33.9112603,9.09891712 36.4690773,9.97186132 38.2174737,13.1471031 C38.3660458,13.4166525 38.508675,13.7022759 38.6441727,14.0052098 C38.8319678,14.4243714 38.9211111,14.8830998 38.9104139,15.3455377 C38.8842652,16.4571196 38.8664366,18.836078 39.1100948,21.0678972 C39.252724,22.3723676 39.4833079,23.6273795 39.8541438,24.5485458 C40.1738709,25.3435927 40.3093687,26.211591 40.1857567,27.0647518 C40.1667395,27.1933442 40.1429679,27.3219365 40.1108764,27.4517653 C39.8208636,28.6573186 38.927054,29.8381425 36.5011689,29.6675104 C36.4821517,29.6662739 36.4690773,29.6860574 36.478586,29.7033679 C36.7067927,30.0903814 38.4349832,33.2347116 34.4520627,33.0022562 L34.4508741,33.0047291 C32.2686473,30.9818726 29.2674911,30.2820334 28.7528374,30.174461 C28.7480831,30.1732245 28.7421402,30.1719881 28.7373859,30.1719881 C28.6886543,30.1633328 28.6411112,30.1620963 28.5923796,30.1682787 C28.1846978,30.227629 26.0167339,30.5874403 25.0789468,32.445847 L25.0290266,32.445847 C24.0912396,30.5874403 21.9220871,30.227629 21.5144053,30.1682787 C21.4656737,30.1620963 21.4181306,30.1633328 21.3705875,30.1719881 C21.3658332,30.1719881 21.3598903,30.1732245 21.355136,30.174461 C20.8404823,30.2820334 17.8405147,30.9818726 15.6582879,33.0047291 L15.6559108,33.0022562 C11.6729902,33.2347116 13.4011808,30.0903814 13.6281989,29.7033679 C13.6377075,29.6860574 13.6246332,29.6662739 13.605616,29.6675104 C11.1809195,29.8381425 10.2871098,28.6573186 9.9970971,27.4517653 C9.96500553,27.3219365 9.941234,27.1933442 9.92221677,27.0647518 C9.79860479,26.211591 9.93410254,25.3435927 10.2538297,24.5485458 C10.6246656,23.6273795 10.8552495,22.3723676 10.9978787,21.0678972 L10.9978787,21.0678972 Z M21.3931705,17.3819953 C20.6740816,17.6540176 19.4997678,17.8061028 17.937978,17.0283664 C16.705424,16.4150798 15.3647095,16.2926698 14.3865109,16.3112168 L14.3865109,16.3260543 C14.3865109,16.3260543 15.4265155,17.200235 16.0505182,18.6753376 C16.7042354,20.2209187 18.7236272,20.9219943 21.6891261,17.5229523 L21.3931705,17.3819953 Z" id="Fill-16"></path>
                        <path d="M28.7374216,30.1720004 C28.7421759,30.1720004 28.7481188,30.1732369 28.7528731,30.1744734 C29.2675268,30.2820458 32.268683,30.9818849 34.4509098,33.0047415 C35.7321955,34.1929842 36.7317885,35.8374825 36.7793315,38.0878486 C36.7971602,38.8569297 36.702074,39.6977259 36.469113,40.6151828 C36.4643587,40.6349662 36.43821,40.6411486 36.4275128,40.623838 C36.2004947,40.2702091 34.6173105,37.897433 31.9537101,36.1787468 C30.1363764,35.0065781 27.8150861,34.1373433 25.0801711,34.4242031 L25.0266851,34.4242031 C22.2917701,34.1373433 19.9704798,35.0065781 18.1531461,36.1787468 C15.4907343,37.897433 13.9075501,40.2702091 13.6805319,40.623838 C13.6686462,40.6411486 13.6436861,40.6349662 13.6377432,40.6151828 C13.4047822,39.6977259 13.3108846,38.8569297 13.3275247,38.0878486 C13.3750677,35.8374825 14.3758493,34.1917477 15.6583236,33.0047415 C17.8405504,30.9818849 20.840518,30.2820458 21.3551717,30.1744734 C21.359926,30.1732369 21.3658689,30.1720004 21.3706232,30.1720004 C21.4181663,30.1633452 21.4657093,30.1621087 21.514441,30.168291 C21.9221228,30.2276413 24.0912753,30.5874526 25.0290623,32.4458593 L25.0789825,32.4458593 C26.0167695,30.5874526 28.1847334,30.2276413 28.5924152,30.168291 C28.6411469,30.1621087 28.6886899,30.1633452 28.7374216,30.1720004" id="Fill-18"></path>
                        <path d="M35.7214626,16.3112168 L35.7214626,16.3260543 C35.7214626,16.3260543 34.681458,17.200235 34.0574552,18.6753376 C33.403738,20.2209187 31.3843462,20.9219943 28.4188474,17.5229523 L28.4889734,17.2855511 C29.1747821,17.6082684 30.4322963,17.8926553 32.1699954,17.0283664 C33.4025495,16.4150798 34.743264,16.2926698 35.7214626,16.3112168" id="Fill-20"></path>
                        <path d="M33.8197399,51.4416693 C38.455189,59.725984 33.3122176,62.3336884 31.4425865,67.2684197 L31.4485294,67.277075 C28.0468229,69.8724148 25.0789468,72.4405523 25.0789468,73.4964933 L25.0290266,73.4964933 C25.0290266,72.4405523 22.0611506,69.8724148 18.6594441,67.277075 L18.665387,67.2684197 C16.7957558,62.3336884 11.6527844,59.725984 16.2882336,51.4416693 C20.3329601,44.2132956 19.2596753,37.4696161 19.2596753,37.4696161 L19.2763154,37.4461233 C20.1938966,38.1162873 21.6843718,38.5428677 23.7287237,37.0207794 C23.7287237,37.0207794 24.7924999,36.0316075 25.0290266,37.1444259 L25.0789468,37.1444259 C25.314285,36.0316075 26.3792497,37.0207794 26.3792497,37.0207794 C28.4236017,38.5428677 29.9152654,38.1162873 30.8316581,37.4448868 L30.8482981,37.4696161 C30.8482981,37.4696161 29.7738248,44.2132956 33.8197399,51.4416693" id="Fill-22"></path>
                        <path d="M31.9536507,36.1787592 L31.919182,36.236873 C31.919182,36.236873 31.5531003,36.9169287 30.8316343,37.4448992 C29.9152417,38.1162996 28.4235779,38.54288 26.379226,37.0207918 C26.379226,37.0207918 25.3142613,36.0316198 25.0789231,37.1444382 L25.0290028,37.1444382 C24.7924761,36.0316198 23.7286999,37.0207918 23.7286999,37.0207918 C21.684348,38.54288 20.1938728,38.1162996 19.2762916,37.4461357 C18.553637,36.9169287 18.1875554,36.236873 18.1875554,36.236873 L18.1530866,36.1787592 C19.9704204,35.0065905 22.2917107,34.1373557 25.0266257,34.4242155 L25.0801116,34.4242155 C27.8150266,34.1373557 30.1363169,35.0065905 31.9536507,36.1787592" id="Fill-24"></path>
                        <path d="M24.9874264,6.45659167 C24.9874264,8.26924918 24.6142133,9.75671643 24.6142133,9.75671643 C24.6142133,9.75671643 23.3055904,9.9619696 20.9807344,9.5044776 L21.0425404,9.15455804 C20.4066518,7.39135912 13.9586232,3.60283073 9.05812151,5.86185206 L9.0379157,5.81610286 C13.2811345,0.00471793101 18.4252945,0.0504671315 18.4252945,0.0504671315 C23.9509876,-0.489868021 24.9874264,3.43590797 24.9874264,6.45659167" id="Fill-26"></path>
                        <path d="M21.3931943,17.3820077 L21.6891499,17.5229647 C18.723651,20.9220067 16.7042592,20.2209311 16.050542,18.67535 C15.4265392,17.2002474 14.3865346,16.3260667 14.3865346,16.3260667 L14.3865346,16.3112291 C15.3647332,16.2926822 16.7054478,16.4150922 17.9380018,17.0283788 C19.4997916,17.8061152 20.6741054,17.65403 21.3931943,17.3820077" id="Fill-28"></path>
                        <path d="M11.5505906,13.1372238 C10.8517075,13.3276394 6.71189488,14.7260811 4.31215852,21.5303474 L4.28363268,21.5192192 C3.69409864,19.9118149 2.39379573,11.3023099 7.34540626,6.97468282 C7.8838315,6.5035897 8.4602912,6.1375961 9.05814528,5.86186443 C13.958647,3.60284309 20.4066756,7.39137148 21.0425641,9.1545704 L20.9807582,9.50448996 C20.3282295,9.37713408 19.5960663,9.19661021 18.7902113,8.94437137 C18.3611351,8.8095967 17.9082874,8.77621215 17.468514,8.8590553 C16.1955484,9.09892948 13.6389199,9.97187369 11.889335,13.1471155 L11.5505906,13.1372238 Z" id="Fill-30"></path>
                        <path d="M19.2763392,37.4461357 L19.2596991,37.4696285 C19.2596991,37.4696285 20.3329838,44.213308 16.2882573,51.4416816 C11.6528082,59.7259963 16.7957796,62.3337008 18.6654107,67.2684321 L18.6594679,67.2770873 C15.6654432,64.9921003 12.3362398,62.6860933 10.4024255,61.3717311 C8.45434832,57.2740865 4.9967787,53.296379 8.44365113,48.5978124 C12.2993939,43.3428367 13.3168156,38.0878609 13.3168156,38.0878609 L13.3275128,38.0878609 C13.3108727,38.8569421 13.4047703,39.6977382 13.6377313,40.6151952 C13.6436742,40.6349786 13.6686343,40.6411609 13.6805201,40.6238504 C13.9075382,40.2702215 15.4907224,37.8974454 18.1531342,36.1787592 L18.1876029,36.236873 C18.1876029,36.236873 18.5536845,36.9169287 19.2763392,37.4461357" id="Fill-32"></path>
                        <path d="M15.6559345,33.0022809 L15.6583117,33.0047538 C14.3758374,34.1917601 13.3750559,35.8374949 13.3275128,38.0878609 L13.3168156,38.0878609 C13.3168156,38.0878609 12.2993939,43.3428367 8.44365113,48.5978124 C4.9967787,53.296379 8.45434832,57.2740865 10.4024255,61.3717311 C9.38975818,60.6830201 8.75981253,60.2663315 8.75981253,60.2663315 C5.79550224,57.8515156 3.78205331,55.4873947 2.44252737,53.259285 C2.0229598,50.3288632 0.95561792,46.4958221 5.23449404,40.6844372 C10.3988598,33.6712084 9.98880084,27.454263 9.98880084,27.454263 L9.99712087,27.4517901 C10.2871336,28.6573433 11.1809433,29.8381673 13.6056397,29.6675351 C13.624657,29.6662987 13.6377313,29.6860821 13.6282227,29.7033926 C13.4012045,30.0904061 11.673014,33.2347363 15.6559345,33.0022809" id="Fill-34"></path>
                        <path d="M11.5505906,13.1372238 L11.889335,13.1471155 C11.7407629,13.4166648 11.5981337,13.7022882 11.4626359,14.0052221 C11.2760294,14.4243837 11.1856976,14.8831122 11.1963948,15.3455501 C11.223732,16.457132 11.2403721,18.8360904 10.9979025,21.0679095 C10.9979025,21.0679095 6.01420035,27.3182395 2.61843672,35.0721107 C2.44728168,29.0851478 3.18895354,24.7154809 4.31215852,21.5303474 C6.71189488,14.7260811 10.8517075,13.3276394 11.5505906,13.1372238" id="Fill-36"></path>
                        <path d="M2.61844861,35.0721231 C6.01421224,27.3182518 10.9979143,21.0679219 10.9979143,21.0679219 C10.8552851,22.3723923 10.6247013,23.6274042 10.2538653,24.5485705 C9.93413819,25.3436174 9.79864045,26.2116158 9.92225243,27.0647765 C9.94126965,27.1933689 9.96504119,27.3219612 9.99713276,27.4517901 L9.98881272,27.454263 C9.98881272,27.454263 10.3988717,33.6712084 5.23450592,40.6844372 C0.955629806,46.4958221 2.02297168,50.3288632 2.44253926,53.259285 C-1.23016274,47.1585673 0.14026619,42.082879 0.836772136,39.8189118 C1.33478577,38.2016157 1.94452562,36.6078125 2.61844861,35.0721231" id="Fill-38"></path>
                    </g>
                    <path d="M28.0667174,36.4603746 C24.0837969,36.69283 25.8119874,33.5484998 26.0390055,33.1614863 C26.0485141,33.1441758 26.0354398,33.1243923 26.0164226,33.1256288 C23.5917261,33.2962609 22.6979164,32.115437 22.4079037,30.9098837 C22.3758121,30.7800549 22.3520406,30.6514626 22.3330234,30.5228702 C22.2094114,29.6697095 22.3449091,28.8017111 22.6646363,28.0066642 C23.0354722,27.0854979 23.2660561,25.830486 23.4086853,24.5260156 C23.6511549,22.2941964 23.6345149,19.915238 23.6071776,18.8036561 C23.5964804,18.3412182 23.6868122,17.8824898 23.8734188,17.4633282 C24.0089165,17.1603943 24.1515457,16.8747709 24.3001178,16.6052215 C26.0497027,13.4299797 28.6063312,12.5570355 29.8792968,12.3171613 C30.3190702,12.2343182 30.7719179,12.2677027 31.2009941,12.4024774 C32.0068491,12.6547162 32.7390124,12.8352401 33.391541,12.962596 C35.716397,13.420088 37.02502,13.2148348 37.02502,13.2148348 C37.02502,13.2148348 37.398233,11.7273676 37.398233,9.91471007 C37.398233,6.89402637 36.3617942,2.96825038 30.8361011,3.50858553 C30.8361011,3.50858553 25.6919411,3.46283633 21.4487223,9.27422127" id="Stroke-40" stroke="#044993" stroke-width="1.20329025" stroke-linecap="round"></path>
                    <path d="M37.4374442,37.8823092 C34.7025292,37.5954493 32.3812389,38.4646841 30.5639051,39.6368528 C27.9014933,41.355539 26.3183092,43.7283151 26.091291,44.0819441 C26.0794053,44.0992546 26.0544451,44.0930723 26.0485023,44.0732888 C25.8155412,43.1558319 25.7216437,42.3150358 25.7382837,41.5459546 C25.7858268,39.2955885 26.7866084,37.6498538 28.0690826,36.4628475 C30.2513095,34.439991 33.2512771,33.7401518 33.7659308,33.6325794 C33.7706851,33.6313429 33.776628,33.6301065 33.7813823,33.6301065 C33.8289253,33.6214512 33.8764684,33.6202147 33.9252,33.6263971 C34.3328819,33.6857474 36.5020343,34.0455587 37.4398213,35.9039654" id="Stroke-42" stroke="#044993" stroke-width="1.20329025" stroke-linecap="round"></path>
                    <path d="M32.5024618,25.7191918 C30.3927382,27.1621463 28.0809565,26.1037324 27.9145558,25.993687 C24.6531013,23.8175088 23.4086615,24.5260032 23.4086615,24.5260032 C23.4086615,24.5260032 18.4249594,30.7763332 15.0291958,38.5302044 C14.3552728,40.0658938 13.745533,41.659697 13.2475193,43.2769931 C12.5510134,45.5409603 11.1805844,50.6166486 14.8532864,56.7173663 C16.1928124,58.945476 18.2062613,61.3095969 21.1705716,63.7244128 C21.1705716,63.7244128 21.8005172,64.1411015 22.8131846,64.8298124 C24.7469989,66.1441746 28.0762022,68.4501816 31.0702269,70.7351687 C34.4719334,73.3305084 37.4398095,75.898646 37.4398095,76.954587" id="Stroke-44" stroke="#044993" stroke-width="1.20329025" stroke-linecap="round"></path>
                    <path d="M34.6418999,20.5260393 C34.6418999,20.5260393 36.6125601,25.270355 33.7837475,27.9905778 C30.9656322,30.6996723 31.3376567,33.4421514 33.7813704,33.6300941 C33.790879,33.6313306 33.8003876,33.6313306 33.8098962,33.632567" id="Stroke-46" stroke="#044993" stroke-width="1.20329025" stroke-linecap="round"></path>
                    <path d="M33.4533232,12.6126641 C32.8174347,10.8494652 26.3694061,7.06093677 21.4689043,9.3199581 C20.8710503,9.59568977 20.2945906,9.96168338 19.7561653,10.4327765 C14.8045548,14.7604036 16.1048577,23.3699085 16.6943917,24.9773129" id="Stroke-48" stroke="#044993" stroke-width="1.20329025" stroke-linecap="round"></path>
                    <path d="M24.0635673,16.5693517 C24.0635673,16.5693517 24.02791,16.5767705 23.9613497,16.5953175 C23.2624666,16.785733 19.1226539,18.1841748 16.7229176,24.9884411 C15.5997126,28.1735746 14.8580407,32.5432415 15.0291958,38.5302044 C15.0291958,38.5462785 15.0303844,38.5623525 15.0303844,38.5784265" id="Stroke-50" stroke="#044993" stroke-width="1.20329025" stroke-linecap="round"></path>
                    <path d="M22.3995599,30.9123443 C22.3995599,30.9123443 22.8096189,37.1292897 17.6452531,44.1425185 C13.366377,49.9539034 14.4337189,53.7869446 14.8532864,56.7173663" id="Stroke-52" stroke="#044993" stroke-width="1.20329025" stroke-linecap="round"></path>
                    <path d="M25.7275747,41.5459423 C25.7275747,41.5459423 24.710153,46.800918 20.8544102,52.0558937 C17.4075378,56.7544603 20.8651074,60.7321678 22.8131846,64.8298124 L22.8143732,64.8310489" id="Stroke-54" stroke="#044993" stroke-width="1.20329025" stroke-linecap="round"></path>
                    <path d="M30.598362,39.6949543 C30.598362,39.6949543 30.9644436,40.37501 31.6870982,40.904217 C32.6046794,41.5743809 34.0951546,42.0009613 36.1395065,40.4788731 C36.1395065,40.4788731 37.2032827,39.4897012 37.4398095,40.6025196" id="Stroke-56" stroke="#044993" stroke-width="1.20329025" stroke-linecap="round"></path>
                    <path d="M31.6704582,40.9277098 C31.6704582,40.9277098 32.7437429,47.6713893 28.6990164,54.8997629 C24.0635673,63.1840776 29.2065387,65.7917821 31.0761698,70.7265134" id="Stroke-58" stroke="#044993" stroke-width="1.20329025" stroke-linecap="round"></path>
                    <path d="M25.3710017,19.9078069 C25.3710017,19.9078069 25.9486499,19.7853968 26.7972937,19.7693228 C27.7754923,19.7507758 29.1162068,19.8731858 30.3487609,20.4864724 C31.9105507,21.2642088 33.0848644,21.1121237 33.8039533,20.8401014 C34.3435672,20.6348482 34.627637,20.3628259 34.627637,20.3628259" id="Stroke-60" stroke="#044993" stroke-width="1.20329025" stroke-linecap="round"></path>
                    <path d="M26.7972937,19.7841604 C26.7972937,19.7841604 27.8372983,20.658341 28.4613011,22.1334436 C29.1150183,23.6790247 31.1344101,24.3801003 34.0999089,20.9810584" id="Stroke-62" stroke="#044993" stroke-width="1.20329025" stroke-linecap="round"></path>
                    <path d="M46.8628336,36.4603746 C50.8457542,36.69283 49.1175636,33.5484998 48.8893569,33.1614863 C48.8798483,33.1441758 48.8929226,33.1243923 48.9119399,33.1256288 C51.3378249,33.2962609 52.2316346,32.115437 52.5216473,30.9098837 C52.5537389,30.7800549 52.5775104,30.6514626 52.5965276,30.5228702 C52.7201396,29.6697095 52.5846419,28.8017111 52.2649147,28.0066642 C51.8940788,27.0854979 51.6634949,25.830486 51.5208657,24.5260156 C51.2772075,22.2941964 51.2950362,19.915238 51.3211848,18.8036561 C51.331882,18.3412182 51.2427388,17.8824898 51.0549437,17.4633282 C50.9194459,17.1603943 50.7768167,16.8747709 50.6282446,16.6052215 C48.8798483,13.4299797 46.3220312,12.5570355 45.0502542,12.3171613 C44.6092922,12.2343182 44.1564445,12.2677027 43.7285569,12.4024774 C42.9227019,12.6547162 42.1905386,12.8352401 41.53801,12.962596 C39.2119654,13.420088 37.9033425,13.2148348 37.9033425,13.2148348 C37.9033425,13.2148348 37.5301294,11.7286041 37.5301294,9.91594654 C37.5301294,6.89526284 38.5665683,2.96701392 44.0922614,3.50858553 C44.0922614,3.50858553 49.2364213,3.46283633 53.4808287,9.27422127" id="Stroke-64" stroke="#044993" stroke-width="1.20329025" stroke-linecap="round"></path>
                    <path d="M37.490942,37.8823092 C40.225857,37.5954493 42.5471473,38.4646841 44.3644811,39.6368528 C47.0280815,41.355539 48.6112656,43.7283151 48.8382838,44.0819441 C48.848981,44.0992546 48.8751297,44.0930723 48.879884,44.0732888 C49.112845,43.1558319 49.2079311,42.3150358 49.1901025,41.5459546 C49.1425594,39.2955885 48.1429664,37.6510902 46.8616807,36.4628475 C44.6794539,34.439991 41.6782977,33.7401518 41.163644,33.6325794 C41.1588897,33.6313429 41.1529468,33.6301065 41.1481925,33.6301065 C41.0994609,33.6214512 41.0519178,33.6202147 41.0031862,33.6263971 C40.5955044,33.6857474 38.4275405,34.0455587 37.4897534,35.9039654" id="Stroke-66" stroke="#044993" stroke-width="1.20329025" stroke-linecap="round"></path>
                    <path d="M60.0762884,56.7173663 C58.7355738,58.945476 56.7221249,61.3095969 53.7590032,63.7244128 C53.7590032,63.7244128 53.127869,64.1423379 52.114013,64.8310489 C50.1790102,66.1466475 46.852184,68.451418 43.8593479,70.7351687 C40.4576414,73.3305084 37.4897653,75.898646 37.4897653,76.954587" id="Stroke-68" stroke="#044993" stroke-width="1.20329025" stroke-linecap="round"></path>
                    <path d="M42.4270773,25.7191918 C44.5368009,27.1621463 46.8485826,26.1037324 47.0149833,25.993687 C50.2752492,23.8175088 51.5208776,24.5260032 51.5208776,24.5260032 C51.5208776,24.5260032 56.5033911,30.7763332 59.9003433,38.5302044 C60.5742663,40.0658938 61.1840062,41.659697 61.6820198,43.2769931 C62.3785258,45.5409603 63.7477661,50.6154121 60.0762527,56.7161299" id="Stroke-70" stroke="#044993" stroke-width="1.20329025" stroke-linecap="round"></path>
                    <path d="M40.2876392,20.5260393 C40.2876392,20.5260393 38.3169791,25.270355 41.1457916,27.9905778 C43.963907,30.6996723 43.5906939,33.4421514 41.1481688,33.6300941 C41.1386601,33.6313306 41.1291515,33.6313306 41.1196429,33.632567" id="Stroke-72" stroke="#044993" stroke-width="1.20329025" stroke-linecap="round"></path>
                    <path d="M41.4762159,12.6126641 C42.1121045,10.8494652 48.5601331,7.06093677 53.4606348,9.32119457 C54.0596774,9.59568977 54.6349486,9.96168338 55.1733738,10.4327765 C60.1237958,14.7604036 58.8234929,23.3699085 58.2351474,24.9773129" id="Stroke-74" stroke="#044993" stroke-width="1.20329025" stroke-linecap="round"></path>
                    <path d="M50.8659719,16.5693517 C50.8659719,16.5693517 55.579867,17.5387402 58.2066215,24.9884411 C59.3298265,28.1735746 60.0714984,32.5444779 59.9003433,38.5302044 C59.9003433,38.5462785 59.8991548,38.5623525 59.8991548,38.5784265" id="Stroke-76" stroke="#044993" stroke-width="1.20329025" stroke-linecap="round"></path>
                    <path d="M52.5299792,30.9123443 C52.5299792,30.9123443 52.1199203,37.1292897 57.284286,44.1425185 C61.5619736,49.952667 60.4946317,53.7857081 60.0762527,56.7161299 L60.0762527,56.7173663" id="Stroke-78" stroke="#044993" stroke-width="1.20329025" stroke-linecap="round"></path>
                    <path d="M49.2019645,41.5459423 C49.2019645,41.5459423 50.2193861,46.800918 54.0751289,52.0558937 C57.5220014,56.7544603 54.0620546,60.7334043 52.1139774,64.8310489" id="Stroke-80" stroke="#044993" stroke-width="1.20329025" stroke-linecap="round"></path>
                    <path d="M44.3299648,39.6949543 C44.3299648,39.6949543 43.9638832,40.37501 43.2424171,40.9029805 C42.3260245,41.5743809 40.8343607,42.0009613 38.7900088,40.4788731 C38.7900088,40.4788731 37.7250441,39.4897012 37.4897059,40.6025196" id="Stroke-82" stroke="#044993" stroke-width="1.20329025" stroke-linecap="round"></path>
                    <path d="M43.259081,40.9277098 C43.259081,40.9277098 42.1846076,47.6713893 46.2305227,54.8997629 C50.8659719,63.1840776 45.7230005,65.7917821 43.8533693,70.7265134" id="Stroke-84" stroke="#044993" stroke-width="1.20329025" stroke-linecap="round"></path>
                    <path d="M49.5585375,19.9078069 C49.5585375,19.9078069 48.9808892,19.7853968 48.1322454,19.7693228 C47.1540468,19.7507758 45.8133323,19.8731858 44.5807783,20.4864724 C42.8430791,21.3507614 41.585565,21.0663745 40.8997562,20.7436571 C40.5063373,20.5594239 40.3019021,20.3628259 40.3019021,20.3628259" id="Stroke-86" stroke="#044993" stroke-width="1.20329025" stroke-linecap="round"></path>
                    <path d="M48.1322454,19.7841604 C48.1322454,19.7841604 47.0922408,20.658341 46.4682381,22.1334436 C45.8145209,23.6790247 43.7951291,24.3801003 40.8296302,20.9810584" id="Stroke-88" stroke="#044993" stroke-width="1.20329025" stroke-linecap="round"></path>
                </g>
            </g>
            <text id="Zeus备份" font-family="PingFangSC-Semibold, PingFang SC" font-size="56.4042303" font-weight="500" fill="#004998">
                <tspan x="84" y="60.0466349">Zeus</tspan>
            </text>
        </g>
    </g>
</svg>