<?xml version="1.0" encoding="UTF-8"?>
<svg width="40px" height="40px" viewBox="0 0 40 40" version="1.1" xmlns="http://www.w3.org/2000/svg" xmlns:xlink="http://www.w3.org/1999/xlink">
    <title>V1.1平台管理/基础资源</title>
    <defs>
        <rect id="path-1" x="0" y="0" width="280" height="200" rx="2"></rect>
        <filter x="-4.6%" y="-5.5%" width="109.3%" height="113.0%" filterUnits="objectBoundingBox" id="filter-3">
            <feOffset dx="0" dy="2" in="SourceAlpha" result="shadowOffsetOuter1"></feOffset>
            <feGaussianBlur stdDeviation="4" in="shadowOffsetOuter1" result="shadowBlurOuter1"></feGaussianBlur>
            <feColorMatrix values="0 0 0 0 0   0 0 0 0 0   0 0 0 0 0  0 0 0 0.09 0" type="matrix" in="shadowBlurOuter1"></feColorMatrix>
        </filter>
    </defs>
    <g id="V1.1中间件平台" stroke="none" stroke-width="1" fill="none" fill-rule="evenodd">
        <g id="V1.1平台管理/基础资源" transform="translate(-248.000000, -276.000000)">
            <rect fill="#FAFAFA" x="0" y="0" width="1440" height="880"></rect>
            <g id="编组-24备份" transform="translate(232.000000, 260.000000)">
                <g id="蒙版">
                    <mask id="mask-2" fill="white">
                        <use xlink:href="#path-1"></use>
                    </mask>
                    <g>
                        <use fill="black" fill-opacity="1" filter="url(#filter-3)" xlink:href="#path-1"></use>
                        <use fill="#FFFFFF" fill-rule="evenodd" xlink:href="#path-1"></use>
                    </g>
                </g>
                <g id="编组-12备份-2" transform="translate(16.000000, 16.000000)">
                    <rect id="矩形" fill="#EBECF0" x="0" y="0" width="40" height="40" rx="20"></rect>
                    <g id="编组" transform="translate(8.000000, 8.000000)" fill="#000000" fill-opacity="0.85" fill-rule="nonzero">
                        <path d="M21.4285714,6.85714286 L2.57142857,6.85714286 C1.15371429,6.85714286 0,5.70342857 0,4.28571429 L0,2.57142857 C0,1.15371429 1.15371429,0 2.57142857,0 L21.4285714,0 C22.8462857,0 24,1.15371429 24,2.57142857 L24,4.28571429 C24,5.70342857 22.8462857,6.85714286 21.4285714,6.85714286 Z M2.57142857,1.71428571 C2.1,1.71428571 1.71428571,2.1 1.71428571,2.57142857 L1.71428571,4.28571429 C1.71428571,4.75714286 2.1,5.14285714 2.57142857,5.14285714 L21.4285714,5.14285714 C21.9,5.14285714 22.2857143,4.75714286 22.2857143,4.28571429 L22.2857143,2.57142857 C22.2857143,2.1 21.9,1.71428571 21.4285714,1.71428571 L2.57142857,1.71428571 Z M4.28571429,2.57142857 C3.81257143,2.57142857 3.42857143,2.95542857 3.42857143,3.42857143 C3.42857143,3.90171429 3.81257143,4.28571429 4.28571429,4.28571429 C4.75885714,4.28571429 5.14285714,3.90171429 5.14285714,3.42857143 C5.14285714,2.95542857 4.75885714,2.57142857 4.28571429,2.57142857 Z M7.71428571,2.57142857 C7.24114286,2.57142857 6.85714286,2.95542857 6.85714286,3.42857143 C6.85714286,3.90171429 7.24114286,4.28571429 7.71428571,4.28571429 C8.18742857,4.28571429 8.57142857,3.90171429 8.57142857,3.42857143 C8.57142857,2.95542857 8.18742857,2.57142857 7.71428571,2.57142857 Z M20.5714286,3.42857143 C20.5714286,2.95542857 20.1874286,2.57142857 19.7142857,2.57142857 L16.2857143,2.57142857 C15.8125714,2.57142857 15.4285714,2.95542857 15.4285714,3.42857143 L15.4285714,3.42857143 C15.4285714,3.90171429 15.8125714,4.28571429 16.2857143,4.28571429 L19.7142857,4.28571429 C20.1874286,4.28571429 20.5714286,3.90171429 20.5714286,3.42857143 L20.5714286,3.42857143 Z M21.4285714,15.4285714 L2.57142857,15.4285714 C1.15371429,15.4285714 0,14.2748571 0,12.8571429 L0,11.1428571 C0,9.72514286 1.15371429,8.57142857 2.57142857,8.57142857 L21.4285714,8.57142857 C22.8462857,8.57142857 24,9.72514286 24,11.1428571 L24,12.8571429 C24,14.2748571 22.8462857,15.4285714 21.4285714,15.4285714 Z M2.57142857,10.2857143 C2.1,10.2857143 1.71428571,10.6714286 1.71428571,11.1428571 L1.71428571,12.8571429 C1.71428571,13.3285714 2.1,13.7142857 2.57142857,13.7142857 L21.4285714,13.7142857 C21.9,13.7142857 22.2857143,13.3285714 22.2857143,12.8571429 L22.2857143,11.1428571 C22.2857143,10.6714286 21.9,10.2857143 21.4285714,10.2857143 L2.57142857,10.2857143 Z M4.28571429,11.1428571 C3.81257143,11.1428571 3.42857143,11.5268571 3.42857143,12 C3.42857143,12.4731429 3.81257143,12.8571429 4.28571429,12.8571429 C4.75885714,12.8571429 5.14285714,12.4731429 5.14285714,12 C5.14285714,11.5268571 4.75885714,11.1428571 4.28571429,11.1428571 Z M7.71428571,11.1428571 C7.24114286,11.1428571 6.85714286,11.5268571 6.85714286,12 C6.85714286,12.4731429 7.24114286,12.8571429 7.71428571,12.8571429 C8.18742857,12.8571429 8.57142857,12.4731429 8.57142857,12 C8.57142857,11.5268571 8.18742857,11.1428571 7.71428571,11.1428571 Z M20.5714286,12 C20.5714286,11.5268571 20.1874286,11.1428571 19.7142857,11.1428571 L16.2857143,11.1428571 C15.8125714,11.1428571 15.4285714,11.5268571 15.4285714,12 L15.4285714,12 C15.4285714,12.4731429 15.8125714,12.8571429 16.2857143,12.8571429 L19.7142857,12.8571429 C20.1874286,12.8571429 20.5714286,12.4731429 20.5714286,12 L20.5714286,12 Z M21.4285714,24 L2.57142857,24 C1.15371429,24 0,22.8462857 0,21.4285714 L0,19.7142857 C0,18.2965714 1.15371429,17.1428571 2.57142857,17.1428571 L21.4285714,17.1428571 C22.8462857,17.1428571 24,18.2965714 24,19.7142857 L24,21.4285714 C24,22.8462857 22.8462857,24 21.4285714,24 Z M2.57142857,18.8571429 C2.1,18.8571429 1.71428571,19.2428571 1.71428571,19.7142857 L1.71428571,21.4285714 C1.71428571,21.9 2.1,22.2857143 2.57142857,22.2857143 L21.4285714,22.2857143 C21.9,22.2857143 22.2857143,21.9 22.2857143,21.4285714 L22.2857143,19.7142857 C22.2857143,19.2428571 21.9,18.8571429 21.4285714,18.8571429 L2.57142857,18.8571429 Z M4.28571429,19.7142857 C3.81257143,19.7142857 3.42857143,20.0982857 3.42857143,20.5714286 C3.42857143,21.0445714 3.81257143,21.4285714 4.28571429,21.4285714 C4.75885714,21.4285714 5.14285714,21.0445714 5.14285714,20.5714286 C5.14285714,20.0982857 4.75885714,19.7142857 4.28571429,19.7142857 Z M7.71428571,19.7142857 C7.24114286,19.7142857 6.85714286,20.0982857 6.85714286,20.5714286 C6.85714286,21.0445714 7.24114286,21.4285714 7.71428571,21.4285714 C8.18742857,21.4285714 8.57142857,21.0445714 8.57142857,20.5714286 C8.57142857,20.0982857 8.18742857,19.7142857 7.71428571,19.7142857 Z M20.5714286,20.5714286 C20.5714286,20.0982857 20.1874286,19.7142857 19.7142857,19.7142857 L16.2857143,19.7142857 C15.8125714,19.7142857 15.4285714,20.0982857 15.4285714,20.5714286 L15.4285714,20.5714286 C15.4285714,21.0445714 15.8125714,21.4285714 16.2857143,21.4285714 L19.7142857,21.4285714 C20.1874286,21.4285714 20.5714286,21.0445714 20.5714286,20.5714286 L20.5714286,20.5714286 Z" id="形状"></path>
                    </g>
                </g>
            </g>
        </g>
    </g>
</svg>